<?xml version="1.0" encoding="utf-8"?>
<!-- Generator: Adobe Illustrator 23.0.5, SVG Export Plug-In . SVG Version: 6.00 Build 0)  -->
<svg version="1.1" xmlns="http://www.w3.org/2000/svg" xmlns:xlink="http://www.w3.org/1999/xlink" x="0px" y="0px"
	 viewBox="0 0 1366 768" style="enable-background:new 0 0 1366 768;" xml:space="preserve">
<style type="text/css">
	.st0{display:none;}
	.st1{display:inline;}
	.st2{display:inline;opacity:0.3;}
	.st3{fill:#3B3E41;}
	.st4{fill:#6F7375;}
	.st5{fill:#48444A;}
	.st6{fill:#20272D;}
	.st7{fill:#34383B;}
	.st8{font-family:'Aniron-Bold';}
	.st9{font-size:45px;}
	.st10{fill:none;}
	.st11{font-family:'Aniron';}
	.st12{font-size:20px;}
	.st13{letter-spacing:7;}
	.st14{letter-spacing:3;}
	.st15{letter-spacing:6;}
	.st16{letter-spacing:1;}
	.st17{fill:#362424;}
	.st18{display:inline;fill:#85878C;}
	.st19{font-size:19px;}
	.st20{letter-spacing:26;}
	.st21{letter-spacing:16;}
	.st22{letter-spacing:12;}
	.st23{fill:#1E2021;}
	.st24{fill:#46494C;}
	.st25{fill:#7D8389;}
	.st26{fill:#2C363D;}
	.st27{fill:#563A3A;}
	.st28{fill:#231717;}
	.st29{fill:#4C3333;}
	.st30{fill:#1C1313;}
	.st31{fill:#191111;}
	.st32{fill:#2B1D1D;}
	.st33{fill:#6B4949;}
	.st34{fill:#110B0B;}
	.st35{fill:#755050;}
	.st36{fill:#9E6D6D;}
	.st37{fill:#140E0E;}
	.st38{fill:#647F20;}
	.st39{fill:#44511C;}
	.st40{fill:#5A7025;}
	.st41{fill:#516021;}
	.st42{fill:#576823;}
	.st43{fill:#73892F;}
	.st44{fill:#869936;}
	.st45{fill:#95A53C;}
	.st46{fill:#91AD3B;}
	.st47{display:inline;fill:#95A53C;}
	.st48{display:inline;fill:#5A7025;}
	.st49{display:inline;fill:#73892F;}
	.st50{display:inline;fill:#869936;}
</style>
<g id="background" class="st0">
	<g id="screen" class="st1">
		<defs>
			<rect id="SVGID_1_" x="0.5" y="0.5" width="1366" height="768"/>
		</defs>
		<clipPath id="SVGID_2_">
			<use xlink:href="#SVGID_1_"  style="overflow:visible;"/>
		</clipPath>
		<g style="clip-path:url(#SVGID_2_);">
			
				<image style="overflow:visible;" width="1920" height="1080" xlink:href="Zrzut ekranu (27).png"  transform="matrix(0.8426 0 0 0.8426 -166.8889 -140)">
			</image>
		</g>
	</g>
	<rect id="tinted_back" class="st2" width="1366" height="769"/>
</g>
<g id="stone_modal">
	<g id="stone">
		<polygon class="st3" points="1136.6,595.6 1115.5,569.7 271,602.5 348.8,617.3 		"/>
		<polygon class="st4" points="315,91 235.2,201.7 271,602.5 1115.5,569.7 1130,532 1122.6,184 1001.1,103.5 		"/>
		<polygon class="st5" points="1071,124.5 1001.1,103.5 1122.6,184 1155,184 		"/>
		<polygon class="st6" points="1176.9,536.8 1136.6,595.6 1115.5,569.8 1119,560.7 1044.2,520.4 1069.7,530.7 1074.4,518 
			1074.4,532.5 1122.5,551.6 1130,532 		"/>
		<polygon class="st3" points="346.4,198.2 320.1,167.8 313.7,193.4 313.7,160.4 287.3,130 292.8,122.3 		"/>
		<polygon class="st7" points="1130,532 1122.6,184 1155,184 1176.9,272.6 1176.9,536.8 		"/>
		<polygon class="st3" points="788.7,166.6 777.8,203.8 787.7,212.7 778,206.1 777.5,204.7 770.6,228.2 768.7,232.7 781.7,165.1 
			769.3,162.3 753.7,98.6 764.1,98.8 775.9,160.2 788.7,163.2 		"/>
		<polygon class="st3" points="700.8,548.4 680.5,558.9 679.9,586.6 669.8,587 674,543.7 665.9,541.7 667.3,501.1 669.2,506.8 
			670.9,537.3 680.9,538.5 680.9,540.7 680.8,545.3 680.6,555 		"/>
	</g>
</g>
<g id="content__x23_1" class="st0">
	<g class="st1">
		<text transform="matrix(1 0 0 1 470.4443 238.7448)" class="st6 st8 st9">Good evening</text>
		<rect x="324.1" y="284.3" class="st10" width="717.7" height="158.5"/>
		<text transform="matrix(1 0 0 1 324.1492 303.7993)"><tspan x="0" y="0" class="st5 st11 st12">Something</tspan><tspan x="155.3" y="0" class="st5 st11 st12 st13"> </tspan><tspan x="173.4" y="0" class="st5 st11 st12">...</tspan><tspan x="192.5" y="0" class="st5 st11 st12 st13"> </tspan><tspan x="210.5" y="0" class="st5 st11 st12">something</tspan><tspan x="360.1" y="0" class="st5 st11 st12 st13"> </tspan><tspan x="378.1" y="0" class="st5 st11 st12">broke</tspan><tspan x="453.7" y="0" class="st5 st11 st12 st13"> </tspan><tspan x="471.7" y="0" class="st5 st11 st12">and</tspan><tspan x="522.2" y="0" class="st5 st11 st12 st13"> </tspan><tspan x="540.3" y="0" class="st5 st11 st12">I</tspan><tspan x="551.6" y="0" class="st5 st11 st12 st13"> </tspan><tspan x="569.6" y="0" class="st5 st11 st12">could</tspan><tspan x="648.6" y="0" class="st5 st11 st12 st13"> </tspan><tspan x="666.6" y="0" class="st5 st11 st12">not </tspan><tspan x="0" y="24" class="st5 st11 st12">hear</tspan><tspan x="61.9" y="24" class="st5 st11 st12 st14"> </tspan><tspan x="76.5" y="24" class="st5 st11 st12">it,</tspan><tspan x="107" y="24" class="st5 st11 st12 st14"> </tspan><tspan x="121.5" y="24" class="st5 st11 st12">I</tspan><tspan x="132.9" y="24" class="st5 st11 st12 st14"> </tspan><tspan x="147.4" y="24" class="st5 st11 st12">will</tspan><tspan x="213.5" y="24" class="st5 st11 st12 st14"> </tspan><tspan x="228.1" y="24" class="st5 st11 st12">repeat</tspan><tspan x="319.6" y="24" class="st5 st11 st12 st14"> </tspan><tspan x="334.1" y="24" class="st5 st11 st12">it</tspan><tspan x="358.2" y="24" class="st5 st11 st12 st14"> </tspan><tspan x="372.8" y="24" class="st5 st11 st12">again.</tspan><tspan x="454.1" y="24" class="st5 st11 st12 st14"> </tspan><tspan x="468.6" y="24" class="st5 st11 st12">KWW</tspan><tspan x="572.1" y="24" class="st5 st11 st12 st14"> </tspan><tspan x="586.6" y="24" class="st5 st11 st12">Stonogi&apos;s </tspan><tspan x="0" y="48" class="st5 st11 st12">election</tspan><tspan x="116.6" y="48" class="st5 st11 st12 st15"> </tspan><tspan x="133.2" y="48" class="st5 st11 st12">result</tspan><tspan x="221.6" y="48" class="st5 st11 st12 st15"> </tspan><tspan x="238.2" y="48" class="st5 st11 st12">is</tspan><tspan x="260.1" y="48" class="st5 st11 st12 st15"> </tspan><tspan x="276.7" y="48" class="st5 st11 st12">a</tspan><tspan x="291.9" y="48" class="st5 st11 st12 st15"> </tspan><tspan x="308.5" y="48" class="st5 st11 st12">failure,</tspan><tspan x="412.3" y="48" class="st5 st11 st12 st15"> </tspan><tspan x="428.9" y="48" class="st5 st11 st12">I</tspan><tspan x="440.3" y="48" class="st5 st11 st12 st15"> </tspan><tspan x="456.9" y="48" class="st5 st11 st12">think</tspan><tspan x="535.2" y="48" class="st5 st11 st12 st15"> </tspan><tspan x="551.8" y="48" class="st5 st11 st12">it&apos;s</tspan><tspan x="595.2" y="48" class="st5 st11 st12 st15"> </tspan><tspan x="611.8" y="48" class="st5 st11 st12">Polish, </tspan><tspan x="0" y="72" class="st5 st11 st12">stupid</tspan><tspan x="89.5" y="72" class="st5 st11 st12"> </tspan><tspan x="99.7" y="72" class="st5 st11 st12">social</tspan><tspan x="182.3" y="72" class="st5 st11 st12"> </tspan><tspan x="192.4" y="72" class="st5 st11 st12">whore,</tspan><tspan x="289.8" y="72" class="st5 st11 st12"> </tspan><tspan x="300" y="72" class="st5 st11 st12">these</tspan><tspan x="374.1" y="72" class="st5 st11 st12"> </tspan><tspan x="384.2" y="72" class="st5 st11 st12">whore</tspan><tspan x="475.2" y="72" class="st5 st11 st12"> </tspan><tspan x="485.4" y="72" class="st5 st11 st12">bunch</tspan><tspan x="568.7" y="72" class="st5 st11 st12"> </tspan><tspan x="578.9" y="72" class="st5 st11 st12">of</tspan><tspan x="608.5" y="72" class="st5 st11 st12"> </tspan><tspan x="618.6" y="72" class="st5 st11 st12">imbeci</tspan><tspan x="706.6" y="72" class="st5 st11 st12">-</tspan><tspan x="0" y="96" class="st5 st11 st12">les</tspan><tspan x="41.5" y="96" class="st5 st11 st12 st16"> </tspan><tspan x="53.5" y="96" class="st5 st11 st12">who</tspan><tspan x="116.2" y="96" class="st5 st11 st12 st16"> </tspan><tspan x="128.2" y="96" class="st5 st11 st12">voted</tspan><tspan x="206.6" y="96" class="st5 st11 st12 st16"> </tspan><tspan x="218.6" y="96" class="st5 st11 st12">for</tspan><tspan x="262.7" y="96" class="st5 st11 st12 st16"> </tspan><tspan x="274.7" y="96" class="st5 st11 st12">those</tspan><tspan x="351.7" y="96" class="st5 st11 st12 st16"> </tspan><tspan x="363.8" y="96" class="st5 st11 st12">whore</tspan><tspan x="454.8" y="96" class="st5 st11 st12 st16"> </tspan><tspan x="466.8" y="96" class="st5 st11 st12">cockroaches</tspan><tspan x="633.7" y="96" class="st5 st11 st12 st16"> </tspan><tspan x="645.7" y="96" class="st5 st11 st12">from </tspan><tspan x="0" y="120" class="st5 st11 st12">PiSu, that&apos;s every fucking misunderstanding.</tspan></text>
		<text transform="matrix(1 0 0 1 956.5318 497.4706)" class="st17 st11 st12">Next&gt;</text>
	</g>
</g>
<g id="content__x23_2" class="st0">
	<path class="st18" d="M387.2,218c0,0-83.8,69-75.4,97.1s-26,253.4,181.8,219s41.6-199.5,20.3-218.2
		C489.1,294.2,471.3,178.5,387.2,218z"/>
	<g class="st1">
		<text transform="matrix(1 0 0 1 558.7176 221.0655)" class="st6 st8 st9">HELLO</text>
		<rect x="560.4" y="266.6" class="st10" width="519.1" height="168.5"/>
		<text transform="matrix(1 0 0 1 560.3829 285.1453)"><tspan x="0" y="0" class="st5 st11 st19">Something</tspan><tspan x="147.6" y="0" class="st5 st11 st19 st15"> </tspan><tspan x="163.7" y="0" class="st5 st11 st19">...</tspan><tspan x="181.9" y="0" class="st5 st11 st19 st15"> </tspan><tspan x="198" y="0" class="st5 st11 st19">something</tspan><tspan x="340.1" y="0" class="st5 st11 st19 st15"> </tspan><tspan x="356.2" y="0" class="st5 st11 st19">broke</tspan><tspan x="428" y="0" class="st5 st11 st19 st15"> </tspan><tspan x="444.2" y="0" class="st5 st11 st19">and</tspan><tspan x="492.2" y="0" class="st5 st11 st19 st15"> </tspan><tspan x="508.3" y="0" class="st5 st11 st19">I </tspan><tspan x="0" y="22.8" class="st5 st11 st19">could</tspan><tspan x="75" y="22.8" class="st5 st11 st19 st13"> </tspan><tspan x="92.8" y="22.8" class="st5 st11 st19">not</tspan><tspan x="141.3" y="22.8" class="st5 st11 st19 st13"> </tspan><tspan x="159.1" y="22.8" class="st5 st11 st19">hear</tspan><tspan x="217.9" y="22.8" class="st5 st11 st19 st13"> </tspan><tspan x="235.7" y="22.8" class="st5 st11 st19">it,</tspan><tspan x="264.6" y="22.8" class="st5 st11 st19 st13"> </tspan><tspan x="282.4" y="22.8" class="st5 st11 st19">I</tspan><tspan x="293.2" y="22.8" class="st5 st11 st19 st13"> </tspan><tspan x="310.9" y="22.8" class="st5 st11 st19">will</tspan><tspan x="373.7" y="22.8" class="st5 st11 st19 st13"> </tspan><tspan x="391.5" y="22.8" class="st5 st11 st19">repeat</tspan><tspan x="478.4" y="22.8" class="st5 st11 st19 st13"> </tspan><tspan x="496.2" y="22.8" class="st5 st11 st19">it </tspan><tspan x="0" y="45.6" class="st5 st11 st19">again.</tspan><tspan x="77.2" y="45.6" class="st5 st11 st19 st20"> </tspan><tspan x="113.3" y="45.6" class="st5 st11 st19">KWW</tspan><tspan x="211.6" y="45.6" class="st5 st11 st19 st20"> </tspan><tspan x="247.7" y="45.6" class="st5 st11 st19">Stonogi&apos;s</tspan><tspan x="372.2" y="45.6" class="st5 st11 st19 st20"> </tspan><tspan x="408.3" y="45.6" class="st5 st11 st19">election </tspan><tspan x="0" y="68.4" class="st5 st11 st19">result</tspan><tspan x="83.9" y="68.4" class="st5 st11 st19"> </tspan><tspan x="94.6" y="68.4" class="st5 st11 st19">is</tspan><tspan x="115.4" y="68.4" class="st5 st11 st19"> </tspan><tspan x="126" y="68.4" class="st5 st11 st19">a</tspan><tspan x="140.4" y="68.4" class="st5 st11 st19"> </tspan><tspan x="151" y="68.4" class="st5 st11 st19">failure,</tspan><tspan x="249.6" y="68.4" class="st5 st11 st19"> </tspan><tspan x="260.2" y="68.4" class="st5 st11 st19">I</tspan><tspan x="271" y="68.4" class="st5 st11 st19"> </tspan><tspan x="281.6" y="68.4" class="st5 st11 st19">think</tspan><tspan x="356.1" y="68.4" class="st5 st11 st19"> </tspan><tspan x="366.7" y="68.4" class="st5 st11 st19">it&apos;s</tspan><tspan x="407.9" y="68.4" class="st5 st11 st19"> </tspan><tspan x="418.5" y="68.4" class="st5 st11 st19">Polish, </tspan><tspan x="0" y="91.2" class="st5 st11 st19">stupid</tspan><tspan x="85" y="91.2" class="st5 st11 st19 st21"> </tspan><tspan x="111.6" y="91.2" class="st5 st11 st19">social</tspan><tspan x="190.1" y="91.2" class="st5 st11 st19 st21"> </tspan><tspan x="216.6" y="91.2" class="st5 st11 st19">whore,</tspan><tspan x="309.1" y="91.2" class="st5 st11 st19 st21"> </tspan><tspan x="335.7" y="91.2" class="st5 st11 st19">these</tspan><tspan x="406.1" y="91.2" class="st5 st11 st19 st21"> </tspan><tspan x="432.6" y="91.2" class="st5 st11 st19">whore </tspan><tspan x="0" y="114" class="st5 st11 st19">bunch</tspan><tspan x="79.2" y="114" class="st5 st11 st19 st22"> </tspan><tspan x="101.8" y="114" class="st5 st11 st19">of</tspan><tspan x="129.9" y="114" class="st5 st11 st19 st22"> </tspan><tspan x="152.5" y="114" class="st5 st11 st19">imbeciles</tspan><tspan x="275.5" y="114" class="st5 st11 st19 st22"> </tspan><tspan x="298.1" y="114" class="st5 st11 st19">who</tspan><tspan x="357.6" y="114" class="st5 st11 st19 st22"> </tspan><tspan x="380.2" y="114" class="st5 st11 st19">voted</tspan><tspan x="454.6" y="114" class="st5 st11 st19 st22"> </tspan><tspan x="477.2" y="114" class="st5 st11 st19">for </tspan><tspan x="0" y="136.8" class="st5 st11 st19">those whore cockroaches from PiSu.</tspan></text>
		<text transform="matrix(1 0 0 1 994.8051 489.7912)" class="st17 st11 st12">Next&gt;</text>
	</g>
	
		<image style="display:inline;overflow:visible;" width="1024" height="1024" xlink:href="inne/UIRenderings/Stage3/Water/longRangeWater.png"  transform="matrix(0.3201 0 0 0.3201 286.2276 174.1638)">
	</image>
</g>
<g id="splash_screen_1_" class="st0">
	<g id="the_bloom" class="st1">
		<g>
			<g>
				<path class="st23" d="M464,376.9c-0.2-1.8-0.5-3.8-1-6.1c-0.3-1.4-1.4-3.7-3.4-6.7v0.1c-4.9-8-10.4-12.8-16.3-14.6
					c-0.7,0-1.1-0.2-1.3-0.6l0.1-0.1c0,0,0,0,0.1-0.1c0.1-0.1,0.2-0.2,0.4-0.4c0.4-0.5,0.8-0.9,1.1-1.1c1.1-1.3,2.2-2.5,3.1-3.5
					c0.9-1,1.7-1.9,2.5-2.7v0.1c1.8-2.1,3.3-4.1,4.5-6.2c1.2-2,2.2-3.9,2.9-5.5c0.2-0.5,0.3-2.6,0.3-6.5c0-2.1,0-3.8-0.1-5.2
					c-0.1-1.4-0.3-2.4-0.6-3c-2.8-6.9-6.4-12.2-10.7-15.8c-4.3-3.6-9.4-5.5-15.3-5.5c-4.8,0-8.9,1-12.1,3c-1.6,0.9-3.9,2.3-6.8,4.5
					c-2.9,2.1-6.4,4.8-10.6,8.2c-3.3,2.7-6,4.7-8,6.2c-2,1.5-3,2.2-3.1,2.2c-0.4,0-0.5-0.6-0.4-1.7l0.1-9.5v-1.5
					c0-0.8,0.1-1.7,0.1-2.8c0.1-0.8,0.2-1.5,0.2-2.1c0-0.6,0.1-1.2,0.1-1.6v-1.1c0-3.6-2.5-5.4-7.5-5.4c-1.8,0-4.5,0.5-8.2,1.4
					c-3.7,0.9-8.3,2.3-13.9,4.2c-13.3,4.5-20,9-20,13.3c0,2.5,1.7,3.7,5,3.7c0.7,0,3.4-1,8.1-3c4.4-2,6.6-3,6.8-3
					c0.5,0,1,0.3,1.5,0.8c0.5,0.5,0.8,1.2,0.8,1.9c-0.1,0.1-0.1,0.2-0.1,0.4c-0.1,0.2-0.1,0.4-0.1,0.6s-0.1,0.5-0.1,0.6l0.1-0.1
					c-0.1,0.2-0.2,0.5-0.2,0.8c0,0.3-0.1,0.6-0.2,0.9c-0.4,1.9-0.6,3.5-0.6,4.8c-0.2,5.3,0,9.4,0.6,12.3c0.6,2.9,1.1,4.6,1.5,5.2
					h-2.5v0.7c0,0.6,0,1.1,0.1,1.5c0,0.4,0.1,1,0.2,1.8c0.3,2.3,0.4,3.7,0.4,4.4v3.6c0,1.5,0,3,0.1,4.4c0,0.7,0,1.3,0.1,1.9
					c0,0.6,0.1,1.3,0.1,2.1c0,0.8,0,1.5,0.1,2.2c0,0.7,0.1,1.4,0.1,2.1c0.1,1.4,0.2,2.7,0.2,3.8v2.8c0,3.3,0,6.8,0.1,10.6
					c0,3.8,0.1,7.5,0.1,11.4c0.1,3.8,0.1,7.6,0.1,11.4c0,3.8,0.1,7.3,0.1,10.6c0.1,3.9,0.5,7.2,1.3,9.9c0.8,2.8,1.8,4.6,3.3,5.5
					c1.8,1.1,6.4,1.7,13.9,1.7c3.8,0,7.4-0.1,10.9-0.4c3.5-0.2,6.7-0.6,9.9-1.1h-0.1c6.4-0.9,12.7-2.2,18.7-4.1
					c6-1.9,11.9-4.3,17.5-7.1c1.1-0.6,2.1-1.1,3.1-1.7c15.7-9,23.6-20.1,23.6-33.2C464.3,380.2,464.2,378.7,464,376.9z M415.7,307
					c3.2-2.4,4.9-3.4,5.8-3.9l0.4-0.3c2-1.2,4.7-1.9,8.1-1.9c4.1,0,7.5,1.2,10.4,3.7c3.3,2.8,6.2,7.1,8.6,12.8
					c0,0.1,0.1,0.4,0.1,0.9c0.1,1.2,0.1,2.8,0.1,4.7c0,2.4,0,3.7-0.1,4.4c-0.6,1.2-1.3,2.5-2.1,3.9c-0.8,1.3-1.7,2.6-2.8,4l-0.5,0.5
					c-0.3,0.3-0.7,0.7-1,1.1c0-0.6,0-1.2,0-1.9c0-1.3-0.1-2.6-0.4-4c-0.2-1.1-0.5-2.3-0.8-3.5l-0.1-0.4
					c-5.3-16.6-16.5-19.2-22.8-19.3c-1.6,0-3.3,0.3-5.1,0.8C414.3,308,415,307.5,415.7,307z M441.6,357v3.3h-17
					c-1.7-0.5-3.5-0.8-5.4-0.9l0.9-0.2l0.5-0.1c5.6-1.8,10.3-4.3,14.2-7.5l0.5,0.9C436.5,354.9,438.8,356.5,441.6,357z M389.7,335.4
					c0-0.3,0.1-0.5,0.1-0.8c0.7-2,3.7-5.1,9-9.1c2.5-1.9,4.6-3.5,6.3-4.7c1.8-1.2,3.1-2,4-2.4c0.2-0.1,1.9-0.8,5.3-2.1
					c1.6-0.7,3-1,4.3-1c1.7,0,3.3,0.3,4.8,0.8v0c5,1.7,8.6,6.1,10.8,13.3c0.3,1.1,0.5,2.2,0.7,3.1c0.2,0.9,0.3,1.8,0.3,2.6
					c0,2.4-0.3,4.4-1,5.8c-0.2,0.4-0.4,0.8-0.6,1.1c-3.6,4.5-8.8,7.8-15.5,9.9c-0.8,0.2-1.5,0.4-2.3,0.6s-1.5,0.4-2.1,0.6
					c-1.6,0.5-3,0.9-4.3,1.4c-4.2,1.1-7.5,1.8-9.9,2c-0.2,0-0.4,0-0.6,0.1c-0.2,0.1-0.4,0.1-0.6,0.1c-0.4,0.1-0.8,0.2-1.3,0.2
					c-0.5,0-1,0.2-1.7,0.3c-0.5,0.1-0.9,0.2-1.2,0.2h-0.8c-0.3,0-0.5,0-0.7,0.1c-1.4,0-2.3-0.2-2.7-0.7v-1.4c0-0.6,0-1.1-0.1-1.6
					c0-0.3,0-0.6-0.1-0.9c0-0.3-0.1-0.6-0.1-0.9c-0.1-0.8-0.1-1.4-0.1-1.9V335.4z M391.1,421.2c-3.3,0.2-6.8,0.3-10.4,0.3
					c-5.7,0-8.4-0.3-9.6-0.6c-0.1-0.3-0.3-0.7-0.4-1.2c-0.6-2.1-0.9-4.8-1-8c0-3.3,0-6.8-0.1-10.6s-0.1-7.5-0.1-11.4l-0.1-11.4
					c-0.1-3.6-0.1-7.1-0.1-10.5v-2.8c0-1.2,0-2.6-0.2-4.1c0-0.7,0-1.5-0.1-2.3c0-0.5-0.1-1.1-0.1-1.7c0-0.9,0-1.8-0.1-2.7
					c0-0.4,0-0.8,0-1.3l0-0.5c-0.1-1.2-0.1-2.5-0.1-3.9v-3.6c0-0.2,0-0.5,0-0.9h8.4l-7.4-11.1c-0.1-0.4-0.4-1.3-0.8-3.1
					c-0.3-1.6-0.7-4.6-0.5-10.4v-0.3c0-0.5,0.1-1.5,0.4-3c0.1-0.3,0.1-0.6,0.2-0.9l0.4-0.7l0.3-0.3v-0.3l6.8-13.6
					c3.5-0.8,5-0.9,5.5-0.9c0,0,0,0.1,0,0.1c0,0.5-0.1,1.1-0.2,1.7l0,0.2c-0.1,1.3-0.2,2.4-0.2,3.5l-0.1,10.6
					c-0.1,1.3-0.2,4.5,2.2,7c1.1,1.2,2.6,2,4.1,2.4c-4,3.9-5.7,7.2-5.7,10.6V350c0,0.7,0.1,1.5,0.2,2.5c0,0.5,0.1,0.9,0.1,1.4v0.6
					l0.1,0.7v4.2l1.6,2c1.2,1.5,2.7,2.5,4.6,3c-4.1,1.9-5.3,5.3-5.6,6.7l-0.1,0.3c-0.6,3.1-0.8,6.9-0.8,11.7v1.8
					c0,1.2,0,2.8,0.2,4.8l0,0.2c0.1,1.1,0.1,2,0.2,2.8c0,0.7,0.1,1.3,0.1,1.7l0.1,16c0,3.5,2,6.6,5.4,8.1c1.2,0.5,2.5,1,4.1,1.4
					l0.2,0c1.2,0.3,2.3,0.5,3.3,0.6C394.3,420.9,392.7,421.1,391.1,421.2z M441.1,394.4c0,0.8-0.1,1.6-0.4,2.4
					c-0.5,1.4-1.4,2.8-2.8,4.1c-2.1,2.2-5,4.2-8.7,6.1c-2.8,1.1-5.3,2.1-7.7,3c-2.4,0.8-4.6,1.5-6.8,1.8c-1.1,0.1-2.3,0.2-3.5,0.2
					s-2.1,0.1-2.9,0.2c-0.2,0-0.4,0-0.7,0.1c-0.3,0-0.5,0.1-0.7,0.1c-2.2,0.4-3.9,0.7-5.1,0.9c-1.2,0.2-1.9,0.3-2.1,0.3
					c-1.5,0-3.3-0.2-5.4-0.7c-1.1-0.3-2.1-0.6-2.8-0.9c-0.7-0.3-1.1-0.8-1.1-1.3l-0.1-15.2v-0.8c0-0.5,0-1.2-0.1-2.1
					c0-0.9-0.1-1.9-0.2-3.1c-0.1-1.9-0.1-3.4-0.1-4.4v-1.9c0-4.3,0.2-7.7,0.7-10.4c0.2-0.8,1-1.5,2.3-1.8c0.2-0.1,0.6-0.2,1.1-0.4
					s1.4-0.4,2.6-0.7c2.5-0.7,4.9-1.1,7.3-1.4c0.5-0.1,1.1-0.2,1.8-0.2s1.6-0.2,2.4-0.4h-0.1c0.6-0.1,1.1-0.2,1.7-0.2
					c0.6,0,1.2-0.1,2-0.2c0.8-0.1,1.5-0.2,2.1-0.2c0.7,0,1.2-0.1,1.6-0.2c0.5-0.1,0.8-0.1,0.9-0.1h0.4c7,0,12.9,2.8,17.8,8.2
					C439,380.6,441.3,387.1,441.1,394.4z M447,401.1c1.1-2.1,1.6-4.4,1.7-6.7c0.2-9.1-2.7-17.3-8.6-24.3l-0.1-0.1
					c-0.4-0.5-0.9-1-1.3-1.4l13-2.9c0.5,0.8,1.1,1.6,1.6,2.4l2.1,3.4c0.2,0.4,0.3,0.7,0.3,0.7c0.4,2,0.7,3.8,0.9,5.3
					c0.2,1.5,0.2,2.8,0.2,3.8C456.8,388.8,453.5,395.3,447,401.1z"/>
				<path class="st23" d="M470.3,369.3c-0.4-2-1.4-4.2-3.1-7.1l8.7-2H466c-0.1-0.1-0.1-0.2-0.2-0.3l-10-15.2c1.6-2,3-4,4.2-6
					c1.3-2.2,2.4-4.2,3.2-6l0.2-0.4c0.6-1.5,0.8-3.1,0.8-9.3c0-2.2,0-4.1-0.2-5.7c-0.2-2.2-0.5-4-1.1-5.4c-3.3-8-7.6-14.3-12.8-18.7
					c-5.7-4.8-12.4-7.2-20.1-7.2c-6.1,0-11.4,1.3-15.8,4c-1.9,1-4.4,2.7-7.5,4.9c-2.7,2-6,4.5-9.9,7.6c0.1-0.7,0.2-1.4,0.2-2
					c0.1-0.8,0.1-1.5,0.1-2.2v-1.1c0-5.5-3.4-11.9-12.7-12.8l5-9.9l-10,10c-2,0.2-4.4,0.7-7.3,1.4c-3.8,1-8.7,2.4-14.5,4.4
					c-12.4,4.2-25.1,10-25.1,20.5c0,5.6,3.9,11.2,12.5,11.2c1.1,0,2-0.1,4.4-1L335,350.4l18.1-18.1v5.1c0,0.9,0,1.7,0.1,2.3
					c0.1,0.5,0.1,1.1,0.2,1.9c0.3,2.7,0.4,3.4,0.4,3.5v3.6c0,1.6,0,3.2,0.1,4.7c0,0.8,0,1.5,0.1,2.2c0,0.4,0,1,0,1.5
					c0,1,0,1.9,0.1,2.7c0,0.5,0,1.1,0,1.6l0,0.5c0.1,1.3,0.1,2.4,0.1,3.4v2.8c0,3.4,0,7,0.1,10.7l0.1,11.3c0.1,3.8,0.1,7.6,0.1,11.4
					c0,3.7,0.1,7.2,0.1,10.5v0.2c0.1,4.5,0.6,8.4,1.5,11.8c1.2,4.5,3.4,7.8,6.3,9.8l0.2,0.1c2.4,1.5,6.2,2.9,17.9,2.9
					c3.9,0,7.7-0.1,11.4-0.4c3.6-0.3,7.2-0.6,10.5-1.1v0c6.7-0.9,13.3-2.4,19.7-4.4c6.4-2,12.6-4.5,18.6-7.5l0.1-0.1
					c1.8-0.9,3.5-1.9,5.1-2.9c17-10.2,25.6-23.2,25.6-38.7c0-1.5-0.1-3.2-0.3-5.3C471.2,374.1,470.8,371.8,470.3,369.3z
					 M440.7,414.7c-1,0.6-2,1.2-3.1,1.7c-5.7,2.8-11.5,5.2-17.5,7.1c-6,1.9-12.2,3.3-18.7,4.1h0.1c-3.1,0.5-6.4,0.8-9.9,1.1
					c-3.5,0.2-7.1,0.4-10.9,0.4c-7.5,0-12.1-0.6-13.9-1.7c-1.4-1-2.5-2.8-3.3-5.5c-0.8-2.7-1.2-6-1.3-9.9c0-3.3,0-6.8-0.1-10.6
					c0-3.7-0.1-7.5-0.1-11.4c0-3.8-0.1-7.6-0.1-11.4c-0.1-3.7-0.1-7.3-0.1-10.6v-2.8c0-1.1,0-2.4-0.2-3.8c0-0.7,0-1.3-0.1-2.1
					c0-0.7-0.1-1.4-0.1-2.2c0-0.8,0-1.4-0.1-2.1c-0.1-0.6-0.1-1.3-0.1-1.9c-0.1-1.4-0.1-2.9-0.1-4.4v-3.6c0-0.7-0.1-2.1-0.4-4.4
					c-0.1-0.8-0.2-1.4-0.2-1.8c0-0.4-0.1-0.9-0.1-1.5v-0.7h2.5c-0.4-0.6-0.9-2.3-1.5-5.2c-0.6-2.9-0.8-7-0.6-12.3
					c0-1.3,0.2-2.9,0.6-4.8c0.1-0.3,0.2-0.6,0.2-0.9c0-0.3,0.1-0.6,0.2-0.8l-0.1,0.1c0.1-0.2,0.1-0.4,0.1-0.6s0-0.5,0.1-0.6
					c0-0.2,0-0.3,0.1-0.4c0-0.8-0.3-1.4-0.8-1.9c-0.5-0.5-1-0.8-1.5-0.8c-0.2,0-2.5,1-6.8,3c-4.7,2-7.4,3-8.1,3c-3.3,0-5-1.2-5-3.7
					c0-4.3,6.7-8.8,20-13.3c5.6-1.9,10.2-3.3,13.9-4.2c3.6-0.9,6.4-1.4,8.2-1.4c5,0,7.5,1.8,7.5,5.4v1.1c0,0.5,0,1-0.1,1.6
					c-0.1,0.6-0.1,1.3-0.2,2.1c-0.1,1-0.1,2-0.1,2.8v1.5l-0.1,9.5c-0.1,1.1,0,1.7,0.4,1.7c0.1,0,1.1-0.7,3.1-2.2
					c2-1.5,4.6-3.5,8-6.2c4.2-3.3,7.7-6,10.6-8.2c2.9-2.1,5.1-3.6,6.8-4.5c3.2-2,7.2-3,12.1-3c5.9,0,11,1.8,15.3,5.5
					c4.3,3.6,7.9,8.9,10.7,15.8c0.3,0.7,0.5,1.7,0.6,3c0.1,1.4,0.1,3.1,0.1,5.2c0,3.9-0.1,6.1-0.3,6.5c-0.8,1.6-1.7,3.4-2.9,5.5
					c-1.2,2-2.7,4.1-4.5,6.2v-0.1c-0.8,0.8-1.6,1.7-2.5,2.7c-0.9,1-1.9,2.2-3.1,3.5c-0.3,0.3-0.6,0.7-1.1,1.1
					c-0.2,0.2-0.3,0.3-0.4,0.4c0,0-0.1,0.1-0.1,0.1l-0.1,0.1c0.2,0.4,0.6,0.6,1.3,0.6c6,1.8,11.4,6.7,16.3,14.6v-0.1
					c2,3,3.1,5.3,3.4,6.7c0.5,2.3,0.8,4.3,1,6.1c0.2,1.8,0.3,3.3,0.3,4.6C464.3,394.6,456.4,405.7,440.7,414.7z"/>
				<path class="st23" d="M565,413.1c-0.6-0.2-1.2-0.3-1.6-0.3c-0.3,0-0.7,0-1.2,0.1c-0.5,0-1.1,0.2-1.6,0.3
					c-0.4,0.1-0.7,0.2-1.1,0.3c-0.4,0.1-0.8,0.2-1.3,0.3c-3,0.9-5,1.3-5.9,1.3c-1.3,0.2-2.9,0.3-4.6,0.4c-1.7,0.1-3.6,0.1-5.7,0.1
					c-3.3,0-5.5-0.1-8.8-0.3c-3.2-0.2-6.4-0.5-9.5-0.8c-0.7-0.1-1.4-0.1-2.1-0.1h-1.8c-1.5-0.2-2.6-0.5-3.1-0.9
					c-0.6-0.5-0.9-0.9-0.9-1.2l-0.7-84.6c-0.7-4.8-2.9-7.2-6.7-7.2h-31.7v3.9c2.2,1.9,5.1,2.9,8.7,2.9c3.3,0.2,5.5,0.6,6.5,1.2
					c0.5,0.3,0.9,0.6,1.2,1c0.4,0.5,0.6,1,0.8,1.7c0,0.7,0,1.5,0.1,2.3c0,0.8,0.1,1.8,0.1,3c0,1.1,0,2.3-0.1,3.6
					c0,1.3-0.1,2.8-0.1,4.3c-0.1,2.6,0.1,4.6,0.5,6c0.5,1.4,0.9,2.4,1.3,2.8h-2.1v11.6c0,0.1,0,0.3,0.1,0.5c0,0.3,0.1,0.5,0.1,0.8
					c0.1,0.5,0.1,0.9,0.1,1.3v1.2c-0.1,0.5-0.2,1.1-0.4,2.1c-0.2,0.9-0.3,1.6-0.3,1.9v41c0,2.2,0.4,4.2,1.1,6h-0.1
					c1.2,3.5,3.2,5.2,6,5.2h43.4c1,0,2.4-0.2,4.4-0.5c2-0.3,4.4-0.9,7.2-1.6c3.8-0.9,6.8-1.9,8.8-3c2-1.1,3.1-2.3,3.1-3.4v-2.3
					C566.4,413.6,565.7,413.3,565,413.1z M507.7,328c0,0.1,0.1,0.2,0.1,0.4l0.2,26.2l-6-6c0-0.1-0.1-0.2-0.1-0.4
					c0,0-0.3-0.9-0.2-3.5l0-0.3c0-1.5,0-2.8,0.1-4c0-1.4,0.1-2.7,0.1-3.8c0-1.3,0-2.4-0.1-3.4c0-0.7-0.1-1.3-0.1-1.9v-0.8l-0.2-0.8
					c-0.1-0.6-0.3-1.1-0.5-1.6H507.7z M501.7,417.5l-0.2-0.5c-0.3-0.9-0.5-2-0.5-3.2V373c0-0.2,0.1-0.5,0.1-0.8
					c0.2-0.9,0.3-1.6,0.4-2l0.1-0.7v-1.9c0-0.7,0-1.4-0.2-2.1c0-0.3-0.1-0.7-0.1-1v-3.7h6.7l0.4,51.6c0,1.2,0.3,3.2,1.8,5.2H501.7z"
					/>
				<path class="st23" d="M574.8,409.9l-7.5,4.3c-0.9-0.5-1.7-0.9-2.3-1.1c-0.6-0.2-1.2-0.3-1.6-0.3c-0.3,0-0.7,0-1.2,0.1
					c-0.5,0-1.1,0.2-1.6,0.3c-0.4,0.1-0.7,0.2-1.1,0.3c-0.4,0.1-0.8,0.2-1.3,0.3c-3,0.9-5,1.3-5.9,1.3c-1.3,0.2-2.9,0.3-4.6,0.4
					c-1.7,0.1-3.6,0.1-5.7,0.1c-3.3,0-5.5-0.1-8.8-0.3c-3.2-0.2-6.4-0.5-9.5-0.8c-0.7-0.1-1.4-0.1-2.1-0.1h-1.8
					c-1.5-0.2-2.6-0.5-3.1-0.9c-0.6-0.5-0.9-0.9-0.9-1.2l7.5-5.3c0.4,0,0.9,0.1,1.3,0.1c2.9,0.3,5.9,0.6,9,0.8
					c3,0.2,5.2,0.3,8.3,0.3c1.9,0,3.7,0,5.3-0.1c1.5-0.1,2.9-0.2,4-0.3l0.8-0.1c0.3,0,1.4-0.3,4-1l0.7-0.2c0.4-0.1,0.8-0.2,1.1-0.2
					c0.3-0.1,0.5-0.1,0.7-0.2c1-0.3,2-0.5,3-0.6c0.8-0.1,1.3-0.1,1.8-0.1c0.1,0,0.1,0,0.2,0c1.1,0,2.2,0.2,3.5,0.5
					c1.3,0.4,2.6,1,4.1,1.8L574.8,409.9z"/>
				<path class="st23" d="M574.8,409.9v6.5c0,1.1-0.2,2.5-0.8,3.9c-0.9,2-2.7,4.2-6.2,6.1c-2.7,1.4-6.2,2.7-10.7,3.7
					c-3,0.7-5.5,1.3-7.6,1.7c-2.5,0.5-4.3,0.7-5.8,0.7h-43.4c-1.3,0-3.3-0.2-5.5-1.2c-2.8-1.3-5.9-3.9-7.7-9.2l-3.3-9.9h2v-39.6
					c0-0.9,0.1-1.9,0.4-3.3c0.1-0.5,0.2-1,0.3-1.4v-0.4l-0.1-0.7v-0.5c-0.1-0.6-0.1-1.1-0.1-1.6v-19.1h0.3c0-0.5,0-0.9,0-1.4
					c0-1.6,0-3.1,0.1-4.4c0-1.2,0.1-2.4,0.1-3.3c0-0.6,0-1.1,0-1.6l6.6-5.4c0.4,0.5,0.6,1,0.8,1.7c0,0.7,0,1.5,0.1,2.3
					c0,0.8,0.1,1.8,0.1,3c0,1.1,0,2.3-0.1,3.6c0,1.3-0.1,2.8-0.1,4.3c-0.1,2.6,0.1,4.6,0.5,6c0.5,1.4,0.9,2.4,1.3,2.8h-2.1v11.6
					c0,0.1,0,0.3,0.1,0.5c0,0.3,0.1,0.5,0.1,0.8c0.1,0.5,0.1,0.9,0.1,1.3v1.2c-0.1,0.5-0.2,1.1-0.4,2.1c-0.2,0.9-0.3,1.6-0.3,1.9v41
					c0,2.2,0.4,4.2,1.1,6h-0.1c1.2,3.5,3.2,5.2,6,5.2h43.4c1,0,2.4-0.2,4.4-0.5c2-0.3,4.4-0.9,7.2-1.6c3.8-0.9,6.8-1.9,8.8-3
					c2-1.1,3.1-2.3,3.1-3.4v-2.3L574.8,409.9z"/>
				<path class="st23" d="M523.4,407l-7.5,5.3l-0.7-84.6c-0.7-4.8-2.9-7.2-6.7-7.2h-31.7l-7.5-7.5h39.2c2.8,0,12.2,1,14.1,13.6
					l0.1,0.5L523.4,407z"/>
				<polygon class="st23" points="476.9,320.4 476.9,324.3 469.4,327.8 469.4,312.9 				"/>
				<path class="st23" d="M493.3,329.4l-6.6,5.4c-0.4,0-0.9-0.1-1.5-0.1c-5.2-0.1-9.7-1.7-13.2-4.7l-2.7-2.3l7.5-3.5
					c2.2,1.9,5.1,2.9,8.7,2.9c3.3,0.2,5.5,0.6,6.5,1.2C492.6,328.7,493,329,493.3,329.4z"/>
				<path class="st23" d="M668.2,366.5c-2.1-5-5.3-9.8-9.4-14.2c-8.5-9.1-18.8-13.6-30.9-13.6c-3.1,0-7.4,0.5-12.8,1.5
					c-1.5,0.3-2.8,0.6-4.1,1c-2.7,0.6-5,1.3-7,1.8c-8.2,3-14.8,7.8-19.7,14.2c-1.2,1.7-2.4,3.6-3.4,5.8c-1,2.2-1.9,4.5-2.7,6.9
					c-0.8,2.4-1.3,4.9-1.7,7.4c-0.4,2.5-0.6,4.9-0.6,7.2c0,2.8,0.4,5.8,1.1,9.1c0.7,1.8,1.3,3.3,1.8,4.6c0.5,1.3,0.9,2.3,1.1,2.9
					c2.9,6.8,6.8,12.2,11.9,16.3c1.2,1,2.4,1.8,3.7,2.7c6.8,4.3,15.3,6.4,25.5,6.4c21.1,0,36.8-8.8,47.2-26.3
					c2.3-3.8,3.5-9.4,3.5-16.6C671.6,377.4,670.4,371.8,668.2,366.5z M599.4,413.6c-5.5-3.5-9.7-8.6-12.7-15.6c-0.1-0.3-0.4-1-1-2.6
					c-0.4-1.2-1-2.5-1.6-4.1c-0.5-2.5-0.8-4.9-0.8-6.9c0-1.9,0.2-3.9,0.5-6c0.3-2.1,0.8-4.2,1.5-6.3c0.7-2.1,1.4-4.1,2.3-6
					c0.8-1.7,1.7-3.2,2.6-4.5c0.1-0.1,0.2-0.3,0.3-0.4l-1.8,4.9c-0.3,0.7-0.6,1.4-0.9,2.3l-0.5,1.3v3c0,0.3,0,0.5-0.1,0.8l-0.1,0.5
					v0.1c0,0.2,0,0.3-0.1,0.5c-0.1,0.3-0.1,0.6-0.2,0.8c-0.1,0.3-0.1,0.7-0.1,1c-0.1,0.3-0.1,0.5-0.1,0.7c-0.1,0.7-0.2,1.4-0.2,2.2
					c0,2.9,0.4,5.8,1.2,8.7l0.2,0.6l0.2,0.3c0,0.1,0.1,0.3,0.2,0.5v8.3l1.7-3c1.1,3.6,2.6,6.9,4.6,10c2.5,3.9,5.7,7.5,9.3,10.6
					c0.4,0.3,0.8,0.7,1.2,1C603,415.6,601.1,414.6,599.4,413.6z M652.2,396.8c-0.1,0.4-0.2,0.9-0.4,1.3c-0.1,0.4-0.3,0.9-0.5,1.3
					c-0.4,1-1,2.1-1.7,3.3c-5.4,9.7-12.8,14.6-22.1,14.6c-5.4,0-10.6-1.8-15.7-5.3c-1.1-0.7-2.1-1.6-3.2-2.5c-3.1-2.7-5.8-5.7-7.9-9
					c-2.1-3.3-3.6-6.9-4.4-10.8c-0.4-1-0.8-1.8-1-2.5c-0.2-0.7-0.4-1.2-0.5-1.3c-0.6-2.1-0.9-4.3-0.9-6.5c0-0.4,0-0.7,0.1-0.9
					c0.1-0.3,0.1-0.6,0.2-0.9c0-0.3,0-0.5,0.1-0.8c0-0.3,0.1-0.6,0.2-0.9c0-0.2,0-0.4,0.1-0.6c0-0.2,0.1-0.4,0.1-0.6
					c0.1-0.6,0.1-1.3,0.1-1.9v-1.6c0.3-0.9,0.7-1.7,0.9-2.4v0.1l0.7-1.2c0.9-3.1,2.2-6,4-8.6c1.7-2.6,3.8-4.8,6.1-6.5
					c2.1-1.5,4.4-2.7,6.8-3.5c0.8-0.3,1.6-0.5,2.4-0.7c1.6-0.4,3.3-0.5,5-0.5c2.7,0,5.6,0.8,8.8,2.3c6.3,3,11.5,7.8,15.4,14.7
					c1.3,2.2,2.5,5,3.7,8.2c1.2,3.3,2.4,6.9,3.7,10.9c0.1,0.3,0.1,2.4,0.1,6.3C652.3,394.2,652.3,396.3,652.2,396.8z M661.6,396.2
					c-0.8,1.4-1.7,2.8-2.6,4.1c0.2-0.6,0.4-1.2,0.5-1.8l0-0.2c0.2-0.8,0.3-1.4,0.3-8c0-6.7-0.1-7.4-0.5-8.5
					c-1.3-4.1-2.6-7.9-3.8-11.2c-1.3-3.6-2.7-6.7-4.2-9.3c-2.8-5-6.3-9.2-10.3-12.5c4.5,1.9,8.5,4.8,12.2,8.8
					c7.3,7.7,10.8,16.2,10.8,26C664.1,390.6,662.8,394.3,661.6,396.2z"/>
				<path class="st23" d="M674.8,362.8l-6.6,3.6c-2.1-5-5.3-9.8-9.4-14.2c-8.5-9.1-18.8-13.6-30.9-13.6c-3.1,0-7.4,0.5-12.8,1.5
					c-1.5,0.3-2.8,0.6-4.1,1l-2.8-7c1.7-0.4,3.5-0.8,5.4-1.3l0.3,0c5.9-1.1,10.6-1.6,14.2-1.6c14.2,0,26.5,5.4,36.4,16
					C668.8,352,672.3,357.3,674.8,362.8z"/>
				<path class="st23" d="M679.1,383.4c0,8.7-1.5,15.4-4.6,20.5c-11.7,19.9-29.7,30-53.6,30c-11.6,0-21.5-2.5-29.5-7.6
					c-1.7-1.1-3.3-2.2-4.8-3.5l5.1-5.5c1.2,1,2.4,1.8,3.7,2.7c6.8,4.3,15.3,6.4,25.5,6.4c21.1,0,36.8-8.8,47.2-26.3
					c2.3-3.8,3.5-9.4,3.5-16.6c0-6-1.1-11.7-3.4-17l6.6-3.6C677.6,369.3,679.1,376.1,679.1,383.4z"/>
				<path class="st23" d="M576.4,377.1c-0.4,2.5-0.6,4.9-0.6,7.2c0,2.8,0.4,5.8,1.1,9.1c0.7,1.8,1.3,3.3,1.8,4.6
					c0.5,1.3,0.9,2.3,1.1,2.9c2.9,6.8,6.8,12.2,11.9,16.3l-5.1,5.5c-0.9-0.8-1.8-1.6-2.6-2.4c-3.7-4.1-6.2-8.4-10.4-15
					c-0.2-0.5-0.4-1-0.7-1.5c-0.3-0.7-0.7-1.8-1.3-3.2c-0.5-1.3-1.1-2.8-1.8-4.5l-0.2-0.6l-0.1-0.6c-0.8-3.8-1.2-7.4-1.2-10.7
					c0-2.7,0.2-5.5,0.7-8.4c0.5-2.8,1.1-5.7,2-8.4c0.8-2.7,1.9-5.3,3-7.8c1.2-2.6,2.6-5,4.2-7.1l0.1-0.1
					c5.5-7.1,12.7-12.5,21.5-16.1l3.4-9.2v8c1.4-0.4,3-0.8,4.8-1.3l2.8,7c-2.7,0.6-5,1.3-7,1.8c-8.2,3-14.8,7.8-19.7,14.2
					c-1.2,1.7-2.4,3.6-3.4,5.8c-1,2.2-1.9,4.5-2.7,6.9C577.4,372.2,576.8,374.6,576.4,377.1z"/>
				<path class="st23" d="M770.4,352.3c-8.5-9.1-18.8-13.6-30.9-13.6c-3.1,0-7.4,0.5-12.8,1.5c-4.5,1-8.2,1.9-11.1,2.8c0,0,0,0,0,0
					c-8.2,3-14.7,7.7-19.6,14.1c-1.3,1.7-2.4,3.6-3.4,5.8c-1,2.2-1.9,4.5-2.7,6.9c-0.8,2.4-1.3,4.9-1.7,7.4
					c-0.4,2.5-0.6,4.9-0.6,7.2c0,2.8,0.3,5.8,1.1,9.1c0.7,1.8,1.3,3.3,1.8,4.6c0.5,1.3,0.9,2.3,1.1,2.9c3.6,8.4,8.8,14.7,15.6,19
					c6.8,4.3,15.3,6.4,25.5,6.4c10.9,0,20.4-2.3,28.4-7c7.5-4.4,13.8-10.8,18.8-19.3c2.3-3.8,3.5-9.4,3.5-16.6
					C783.2,371.7,778.9,361.4,770.4,352.3z M711,413.6c-5.5-3.5-9.7-8.6-12.7-15.6c-0.2-0.4-0.5-1.1-1-2.6c-0.4-1.2-1-2.5-1.6-4.1
					c-0.5-2.5-0.8-4.9-0.8-6.9c0-1.9,0.2-3.9,0.5-6c0.3-2.1,0.8-4.2,1.5-6.3c0.7-2.1,1.4-4.1,2.3-6c0.8-1.7,1.7-3.2,2.6-4.5
					c0.1-0.1,0.2-0.3,0.3-0.4l-1.8,4.9c-0.3,0.7-0.5,1.4-0.9,2.2l-0.5,1.3v3c0,0.3,0,0.5-0.1,0.8l-0.1,0.5v0.1c0,0.2,0,0.3-0.1,0.5
					c-0.1,0.3-0.1,0.6-0.2,0.9c-0.1,0.3-0.1,0.7-0.1,1c-0.1,0.3-0.1,0.5-0.1,0.7c-0.1,0.7-0.2,1.4-0.2,2.2c0,2.9,0.4,5.8,1.2,8.7
					l0.2,0.6l0.2,0.3c0.1,0.1,0.1,0.3,0.2,0.5v8.3l1.7-3c1.1,3.5,2.6,6.9,4.6,10c2.5,3.9,5.6,7.5,9.3,10.6c0.4,0.3,0.8,0.7,1.2,1
					C714.7,415.6,712.8,414.6,711,413.6z M763.8,396.8c-0.2,0.8-0.5,1.7-0.9,2.7c-0.4,1-1,2.1-1.7,3.3c-4.4,7.9-10.1,12.6-17.1,14.1
					c-1.6,0.3-3.2,0.5-4.9,0.5c-6.5,0-12.8-2.6-18.8-7.8c-3.1-2.7-5.8-5.7-7.9-9c-2.1-3.3-3.6-6.9-4.4-10.8c-0.4-1-0.8-1.8-1-2.5
					c-0.2-0.7-0.4-1.2-0.5-1.3c-0.6-2.1-0.9-4.3-0.9-6.5c0-0.4,0-0.7,0.1-0.9c0-0.3,0.1-0.6,0.2-0.9c0-0.3,0-0.5,0.1-0.8
					c0-0.3,0.1-0.6,0.2-0.9c0-0.2,0-0.4,0.1-0.6c0-0.2,0.1-0.4,0.1-0.6c0.1-0.6,0.1-1.3,0.1-1.9v-1.6c0.4-0.9,0.7-1.7,0.9-2.4v0.1
					l0.7-1.2c0.9-3.1,2.2-6,3.9-8.6c1.7-2.6,3.8-4.8,6.1-6.5c2.1-1.5,4.4-2.7,6.8-3.5c2.4-0.8,4.8-1.2,7.4-1.2c1.9,0,4,0.4,6.3,1.2
					c0.8,0.3,1.7,0.6,2.5,1c6.3,3,11.4,7.8,15.4,14.7c1.2,2.2,2.5,5,3.7,8.2c1.2,3.3,2.4,6.9,3.7,10.9c0.1,0.3,0.1,2.4,0.1,6.3
					C763.9,394.2,763.9,396.3,763.8,396.8z M773.3,396.2c-0.8,1.4-1.7,2.8-2.6,4.1c0.2-0.6,0.4-1.2,0.5-1.8l0-0.2
					c0.2-0.8,0.3-1.4,0.3-8c0-6.7-0.1-7.4-0.5-8.6c-1.3-4.1-2.6-7.9-3.8-11.2c-1.3-3.6-2.7-6.7-4.2-9.3c-2.9-5-6.3-9.2-10.3-12.5
					c4.5,1.9,8.5,4.8,12.2,8.8c7.3,7.7,10.8,16.2,10.8,26C775.7,390.6,774.4,394.3,773.3,396.2z"/>
				<path class="st23" d="M790.7,383.4c0,8.7-1.5,15.4-4.6,20.5c-5.9,10-13.4,17.5-22.4,22.5l-2.8-7.1c7.5-4.4,13.8-10.8,18.8-19.3
					c2.3-3.8,3.5-9.4,3.5-16.6c0-11.7-4.3-22.1-12.8-31.2c-8.5-9.1-18.8-13.6-30.9-13.6c-3.1,0-7.4,0.5-12.8,1.5
					c-4.5,1-8.2,1.9-11.1,2.8c0,0,0,0,0,0l-3.5-6.7l2.9-1c2.8-0.8,6.2-1.6,10.1-2.5l0.3,0c5.9-1.1,10.6-1.6,14.2-1.6
					c14.2,0,26.5,5.4,36.4,16C785.7,357.6,790.7,369.8,790.7,383.4z"/>
				<path class="st23" d="M763.7,426.4c-8.9,5-19.3,7.4-31.2,7.4c-11.5,0-21.5-2.5-29.5-7.6c-8.1-5.1-14.3-12.6-18.5-22.4
					c-0.3-0.7-0.7-1.7-1.3-3.1c-0.5-1.3-1.1-2.8-1.8-4.5l-0.2-0.6l-0.1-0.6c-0.8-3.8-1.2-7.4-1.2-10.7c0-2.7,0.2-5.5,0.7-8.4
					c0.5-2.8,1.1-5.7,2-8.4c0.9-2.7,1.9-5.3,3-7.8c1.2-2.6,2.6-5,4.2-7.1l0.1-0.1c5.4-7.1,12.7-12.5,21.5-16.1l0.6-0.2l3.5,6.7
					c-8.2,3-14.7,7.7-19.6,14.1c-1.3,1.7-2.4,3.6-3.4,5.8c-1,2.2-1.9,4.5-2.7,6.9c-0.8,2.4-1.3,4.9-1.7,7.4
					c-0.4,2.5-0.6,4.9-0.6,7.2c0,2.8,0.3,5.8,1.1,9.1c0.7,1.8,1.3,3.3,1.8,4.6c0.5,1.3,0.9,2.3,1.1,2.9c3.6,8.4,8.8,14.7,15.6,19
					c6.8,4.3,15.3,6.4,25.5,6.4c10.9,0,20.4-2.3,28.4-7L763.7,426.4z"/>
				<path class="st23" d="M1010.8,376.6c-11.7-14-23.4-28.1-35-42.3c0.3-0.4,0.5-0.7,0.7-1c0.2-0.3,0.5-0.8,1.1-1.5
					c0.6-0.8,1.3-1.7,1.8-2.7c0.6-1,1.3-2.1,2.2-3.3c1.4-2.1,2.5-3.8,3.3-5.2c0.8-1.4,1.2-2.4,1.2-3.1c0-3.1-2.8-6.8-8.3-11.1
					c-2.6-2-4.8-3.6-6.6-4.8c-1.8-1.2-3.5-1.7-4.9-1.7c-0.6,0-1.2,0.2-1.8,0.5c-4.1,2.3-9.9,11.6-17.5,27.9
					c-2.6,5.9-5.2,11.8-7.8,17.8c-2.6,5.9-5.3,11.8-8,17.6c-0.5,1.3-1,2.5-1.5,3.7c-0.5,1.2-1,2.5-1.5,3.7c-1,1.9-2.1,3.5-3.3,4.6
					c-1.7-1.4-4.1-3.7-7.3-6.9c-3.2-3.2-7.6-7.7-13.2-13.4c-13-13.2-19.6-20.7-19.6-22.7c0-0.4,1.3-2.6,3.8-6.7h-0.2
					c2.9-5.1,4.4-8.1,4.4-8.8c0-2.4-2.4-4.9-7.3-7.5c-2.2-1.2-4.2-2-6-2.5c-1.8-0.5-3.3-0.8-4.6-0.8c-9.6,0-24.4,20.4-44.3,61.2
					v-0.2c-8.7,17.5-15.2,30.1-19.4,37.6c-0.4,0.8-0.9,1.2-1.5,1.2h-4c-0.9,0.1-1.6,0.2-2.1,0.2h-1.5l-1-0.2c-2.4,0-4.3,1.1-5.8,3.3
					c2.3,1.5,4.5,3,6.5,4.4c2,1.4,4,2.8,5.8,4.2l-0.2-0.2c0.1,0.1,0.3,0.2,0.4,0.3c0.1,0.1,0.3,0.2,0.4,0.3c1.2,1.2,2.2,2,3.3,2.5
					c0.6,0.4,1.2,0.8,1.6,1.3c0.5,0.4,1,0.9,1.6,1.3c1.5,1.1,4,1.7,7.5,1.7c5,0,8.3-0.8,10-2.5c2.9-2.9,5.9-6.5,8.7-10.7
					c2.9-4.2,5.8-8.9,8.7-14.1c2-4.5,4.2-8.6,6.3-12.5c1-2.2,2.1-4.3,3.2-6.2c1.1-2,2.2-4.1,3.4-6.2l1.7-4l4-8.4v0.2
					c3.3-6.8,5.7-10.2,7.1-10.2c1,0,8.1,7.2,21.1,21.5c13.6,14.7,20.3,23.7,20.3,27.1c0,0.1-0.1,0.3-0.3,0.7
					c-0.4,0.8-1.2,2.3-2.4,4.5c-2,3.2-3.1,5.4-3.1,6.5c0,3,1.9,5.8,5.8,8.5c3.7,2.3,7,3.5,9.8,3.5c1.7,0,3.2-0.2,4.4-0.7
					c1.5-0.6,2.7-1.5,3.5-2.8c3.7-7,7-13.6,9.8-19.7c2.8-6.1,5.2-11.8,7.3-17.2c8.5-21.8,13.7-32.6,15.7-32.6c1,0,5.4,4.6,13,13.8
					c3.3,4.1,6,7.4,8.1,10c2,2.6,3.5,4.5,4.4,6h0.2c1.9,2.9,3.6,5.7,5.2,8.2c1.5,2.5,3,4.8,4.4,6.8c0.9,1.4,1.6,2.7,2.2,3.7
					c0.6,1.1,1.2,2.1,1.8,3c0.6,1.4,1.3,2.9,1.9,4.5c0.6,1.6,1.3,3.5,1.9,5.7v-0.2c0.3,0.9,0.3,2.1,0,3.6c-0.1,0.9-0.2,1.8-0.1,2.8
					c0.1,1,0.1,1.6,0.1,1.8c3.8,2.3,7.8,4,12,5c4.2,1,8.4,1.5,12.8,1.5c3.7,0,7.3-0.8,10.8-2.5V419
					C1034.2,404.8,1022.5,390.7,1010.8,376.6z M809,416.2l2-2.6c0.2,0,0.5-0.1,0.7-0.1L809,416.2z M857.3,365.8l-1.7,4
					c-1.1,2-2.1,4-3.2,5.9c-1.1,2-2.2,4.2-3.3,6.4c-2.2,3.8-4.3,8.1-6.4,12.5c-2.8,4.9-5.5,9.4-8.2,13.2c-2.5,3.6-5.1,6.8-7.6,9.4
					c-0.4,0.1-1.8,0.6-4.9,0.6c-2,0-2.9-0.3-3.1-0.3l-0.5-0.3c-0.1-0.1-0.2-0.1-0.2-0.1c-0.9-0.9-1.9-1.7-3.1-2.4l-0.5-0.3
					c0,0-0.4-0.2-1.3-1.1c-0.1-0.1-0.1-0.1-0.2-0.2c1.9-0.8,3.5-2.3,4.6-4.4c1.5-2.7,3.3-5.9,5.3-9.8v1.2l14.2-29.1
					c26.6-54.3,36.6-56.9,37.6-57c0.3,0,1,0,2.5,0.5c1.3,0.4,2.8,1,4.5,1.9c1.1,0.6,1.8,1,2.4,1.4c-0.6,1-1.4,2.5-2.5,4.5l-6.2,10.7
					v-5.5L857.3,365.8z M1002.8,381.3c-1.1-1.8-2.4-3.7-3.7-5.8l-2.2-3.4h-0.4c-0.7-0.9-1.5-2-2.4-3.1c-2.1-2.6-4.8-5.9-8.2-10.1
					c-12.4-14.9-14.8-16.5-18.8-16.5c-5.8,0-8.8,5.4-12.2,12.4c-2.7,5.7-6.2,13.9-10.5,25.1c-2,5.2-4.4,10.8-7.1,16.7
					c-2.6,5.7-5.8,12-9.2,18.6c-0.3,0.1-0.8,0.2-1.6,0.2c-0.6,0-2.4-0.2-5.7-2.2c-1.2-0.9-1.8-1.5-2.1-1.9c0.3-0.6,0.8-1.5,1.6-2.8
					l0.2-0.4c2.9-5.3,3.6-6.6,3.6-8.8c0-4.2-1.7-9.8-22.3-32.1c-6.6-7.2-11.7-12.7-15.3-16.3c-5.3-5.4-7.6-7.5-11-7.6v-9.6h1.5
					c0.2,3.5,2.4,7.6,21.7,27.1c5.8,5.9,10.2,10.3,13.3,13.5c3.4,3.4,5.9,5.8,7.8,7.3l5.3,4.5l4.9-4.9c1.7-1.7,3.2-3.8,4.6-6.4
					l0.3-0.8c0.5-1.2,1-2.4,1.5-3.6s1-2.4,1.5-3.7c2.7-5.7,5.3-11.6,7.9-17.5c2.6-5.9,5.2-11.8,7.8-17.7
					c7.4-15.9,11.6-21.5,13.4-23.5c0,0,0.1,0,0.1,0.1c1.6,1,3.6,2.4,5.9,4.3c3.1,2.5,4.5,4.1,5.1,5c-0.6,1.1-1.5,2.5-2.6,4.1
					c-1.1,1.4-1.9,2.7-2.7,4c-0.3,0.6-0.7,1.1-1,1.6l-0.5,0.6c-0.4,0.6-0.7,1-0.9,1.2c-0.3,0.3-0.5,0.8-0.9,1.3l-3.1,4.6l3.5,4.3
					c10.7,13.1,21.7,26.4,32.8,39.7V381.3z M1035.1,418.6c-3.7,0-7.4-0.4-11-1.3c-2.1-0.5-4.2-1.3-6.2-2.2c0.3-2.2,0.1-4.1-0.3-5.8
					l-5.5-19.4c7.9,9.5,15.9,19.1,23.8,28.8C1035.6,418.6,1035.3,418.6,1035.1,418.6z"/>
				<path class="st23" d="M1053.3,428.3l-4.3,2c-4.5,2.1-9.2,3.2-14,3.2c-4.9,0-9.8-0.6-14.6-1.8c-0.9-0.2-1.8-0.5-2.7-0.8v32.4
					l-11-37.3c-0.1-0.1-0.3-0.1-0.4-0.2l-3.6-2.2l7.5-4.3c3.8,2.3,7.8,4,12,5c4.2,1,8.4,1.5,12.8,1.5c3.7,0,7.3-0.8,10.8-2.5
					L1053.3,428.3z"/>
				<path class="st23" d="M1053.3,416.3v12l-7.5-4.7V419c-11.6-14.2-23.3-28.3-35-42.3c-11.7-14-23.4-28.1-35-42.3
					c0.3-0.4,0.5-0.7,0.7-1l9.4-0.5c-0.2,0.4-0.5,0.8-0.7,1.1c10.3,12.5,20.8,25.2,31.4,37.9c11.6,13.9,23.4,28.2,35.1,42.4
					L1053.3,416.3z"/>
				<path class="st23" d="M993.5,317.6c0,2-0.6,4-2.1,6.7c-0.9,1.6-2.1,3.5-3.7,5.8l-0.3,0.3c-0.7,0.8-1.2,1.6-1.6,2.3l-9.4,0.5
					c0.2-0.3,0.5-0.8,1.1-1.5c0.6-0.8,1.3-1.7,1.8-2.7c0.6-1,1.3-2.1,2.2-3.3c1.4-2.1,2.5-3.8,3.3-5.2c0.8-1.4,1.2-2.4,1.2-3.1
					l7.3-2C993.4,316.3,993.5,317,993.5,317.6z"/>
				<path class="st23" d="M993.3,315.7l-7.3,2c0-3.1-2.8-6.8-8.3-11.1c-2.6-2-4.8-3.6-6.6-4.8c-1.8-1.2-3.5-1.7-4.9-1.7
					c-0.6,0-1.2,0.2-1.8,0.5l1.8-8c2.9,0,5.8,0.9,8.8,2.9c2.1,1.3,4.5,3.1,7.4,5.3C986.7,304,992.3,309.2,993.3,315.7z"/>
				<path class="st23" d="M1010.3,414.9c-0.1,0.9-0.2,1.8-0.1,2.8c0.1,1,0.1,1.6,0.1,1.8l-7.5,4.3v-4.3c0-0.2,0-0.7-0.1-1.3
					c-0.1-1.4,0-2.9,0.2-4.3l0-0.2c0-0.2,0.1-0.4,0.1-0.5c-0.5-1.8-1-3.3-1.6-4.6c-0.5-1.2-1-2.4-1.5-3.6c-0.7-1-1.3-2-1.9-3.2
					c-0.4-0.8-1.1-1.9-1.8-3.1c-1.4-2.1-2.9-4.4-4.5-7c-0.9-1.4-1.8-3-2.9-4.6h-0.2l-2.2-3.5c-0.5-0.8-1.6-2.4-3.9-5.3
					c-2-2.5-4.7-5.8-8-9.9c-2.5-3-4.5-5.3-6-7l-1.2-11.5c1,0,5.4,4.6,13,13.8c3.3,4.1,6,7.4,8.1,10c2,2.6,3.5,4.5,4.4,6h0.2
					c1.9,2.9,3.6,5.7,5.2,8.2c1.5,2.5,3,4.8,4.4,6.8c0.9,1.4,1.6,2.7,2.2,3.7c0.6,1.1,1.2,2.1,1.8,3c0.6,1.4,1.3,2.9,1.9,4.5
					c0.6,1.6,1.3,3.5,1.9,5.7v-0.2C1010.6,412.2,1010.6,413.4,1010.3,414.9z"/>
				<path class="st23" d="M968.4,361.4c-2,4.2-5.2,11.5-10,23.8c-2.1,5.5-4.6,11.4-7.5,17.6c-2.8,6.2-6.2,12.9-10,20l-0.2,0.4
					c-1.2,2-3.3,4.3-6.7,5.7l-3.2-6.8c1.5-0.6,2.7-1.5,3.5-2.8c3.7-7,7-13.6,9.8-19.7c2.8-6.1,5.2-11.8,7.3-17.2
					c8.5-21.8,13.7-32.6,15.7-32.6L968.4,361.4z"/>
				<path class="st23" d="M934.1,428.9c-2,0.8-4.5,1.4-7.6,1.4c-4.3,0-8.8-1.5-13.7-4.6l-0.3-0.2c-5.9-4.2-9-9.1-9-14.6
					c0-2.8,1.2-5.7,4.1-10.4c0.4-0.7,0.7-1.3,1-1.8l7.9,1.1c-0.4,0.8-1.2,2.3-2.4,4.5c-2,3.2-3.1,5.4-3.1,6.5c0,3,1.9,5.8,5.8,8.5
					c3.7,2.3,7,3.5,9.8,3.5c1.7,0,3.2-0.2,4.4-0.7L934.1,428.9z"/>
				<path class="st23" d="M966.2,292.5l-1.8,8c-4.1,2.3-9.9,11.6-17.5,27.9c-2.6,5.9-5.2,11.8-7.8,17.8c-2.6,5.9-5.3,11.8-8,17.6
					c-0.5,1.3-1,2.5-1.5,3.7c-0.5,1.2-1,2.5-1.5,3.7c-1,1.9-2.1,3.5-3.3,4.6l-2-12.2c0.1,0.1,0.1,0.1,0.2,0.2
					c0.4-0.9,0.8-1.9,1.2-2.9l0.2-0.4c2.6-5.7,5.3-11.5,7.9-17.4c2.6-5.9,5.2-11.8,7.8-17.7l0.1-0.2
					C952.8,297.8,959.3,292.5,966.2,292.5z"/>
				<path class="st23" d="M916.7,399.2c0,0.1-0.1,0.3-0.3,0.7l-7.9-1.1c-1.5-2.5-5.7-8.4-17.7-21.5c-7.2-7.9-11.8-12.8-14.7-15.7
					c-0.4,0.8-0.8,1.6-1.3,2.6l0.4-13.5c1,0,8.1,7.2,21.1,21.5C909.9,386.9,916.7,395.9,916.7,399.2z"/>
				<path class="st23" d="M924.7,375.8c-1.7-1.4-4.1-3.7-7.3-6.9c-3.2-3.2-7.6-7.7-13.2-13.4c-13-13.2-19.6-20.7-19.6-22.7l10.2-2.7
					c-0.7,1-1.2,1.9-1.6,2.6c2,2.5,6.5,7.6,16.3,17.5c5.8,5.9,10.1,10.3,13.2,13.4L924.7,375.8z"/>
				<path class="st23" d="M902,318.6l-7.2,11.5l-10.2,2.7c0-0.4,1.3-2.6,3.8-6.7h-0.2c2.9-5.1,4.4-8.1,4.4-8.8
					c0-2.4-2.4-4.9-7.3-7.5c-2.2-1.2-4.2-2-6-2.5c-1.8-0.5-3.3-0.8-4.6-0.8l-3.3-7.2c1.2-0.3,2.3-0.3,3.3-0.3c2,0,4.2,0.3,6.7,1.1
					c2.3,0.7,4.8,1.7,7.4,3.1c2.8,1.5,11.3,5.9,11.3,14.1c0,0.4,0,0.9-0.1,1.3H902z"/>
				<path class="st23" d="M874.8,306.5c-9.6,0-24.4,20.4-44.3,61.2v-0.2c-8.7,17.5-15.2,30.1-19.4,37.6l-5.1-6.3
					c4.1-7.6,10.1-19.2,17.7-34.6l14.2-28.6v1.7c16.2-28.5,26.2-36.3,33.5-37.9L874.8,306.5z"/>
				<path class="st23" d="M875.2,350.6l-0.4,13.5l-3.9,8l-1.9,4.4c-1,1.9-2,3.8-3,5.6l-5.4,10.9v-0.7c-1.5,2.7-2.9,5.7-4.3,8.7
					l-0.3,0.5c-3.1,5.5-6.1,10.4-9.1,14.7c-3.1,4.5-6.3,8.4-9.6,11.7l-5.3-5.3c2.9-2.9,5.9-6.5,8.7-10.7c2.9-4.2,5.8-8.9,8.7-14.1
					c2-4.5,4.2-8.6,6.3-12.5c1-2.2,2.1-4.3,3.2-6.2c1.1-2,2.2-4.1,3.4-6.2l1.7-4l4-8.4v0.2C871.4,354,873.8,350.6,875.2,350.6z"/>
				<path class="st23" d="M837.3,428.1c-3.2,3.2-8.1,4.7-15.3,4.7c-5,0-8.8-1-11.6-3c-1.1-0.7-2-1.4-2.8-2.2c0,0,0,0,0,0
					c-1.5-0.8-2.9-1.8-4.3-3.2c-0.1-0.1-0.3-0.2-0.4-0.3l0,0c-1.7-1.3-3.5-2.6-5.4-4c-2-1.4-4.2-2.8-6.4-4.3l-6.2-4.1l10.3-2.1
					c2.3,1.5,4.5,3,6.5,4.4c2,1.4,4,2.8,5.8,4.2l-0.2-0.2c0.1,0.1,0.3,0.2,0.4,0.3c0.1,0.1,0.3,0.2,0.4,0.3c1.2,1.2,2.2,2,3.3,2.5
					c0.6,0.4,1.2,0.8,1.6,1.3c0.5,0.4,1,0.9,1.6,1.3c1.5,1.1,4,1.7,7.5,1.7c5,0,8.3-0.8,10-2.5L837.3,428.1z"/>
				<path class="st23" d="M811.1,405.1c-0.4,0.8-0.9,1.2-1.5,1.2h-4c-0.9,0.1-1.6,0.2-2.1,0.2h-1.5l-1-0.2c-2.4,0-4.3,1.1-5.8,3.3
					l-10.3,2.1l4-6.2c2.8-4.3,7.1-6.7,12-6.7h0.7l1,0.2h0.8c0,0,0.3,0,1.1-0.1l0.5-0.1h1L811.1,405.1z"/>
				<path class="st23" d="M558.5,282.9l-5.6,5c-1.5-1.7-2.5-3.8-2.7-6.1l-0.3-3.3l0.8-0.8l-3-1.7h4.6l2.8-3l3.3,7.5l-0.6,0.6
					C557.7,281.7,558,282.3,558.5,282.9z"/>
				<path class="st23" d="M597.7,290.9l-19.2-7.7c-0.4-0.8-0.8-1.3-1.1-1.5c-1.4-1.3-2.9-2-4.7-2c-0.7,0-1.4,0-2.2,0.1
					c-0.8,0.1-1.7,0.2-2.6,0.3l-4.7,0.8c-0.5,0.1-0.9,0.1-1.4,0.2s-0.9,0.1-1.3,0.2c-0.1,0-0.3,0-0.5-0.1c-0.2-0.1-0.3-0.2-0.5-0.3
					c-0.5-0.3-0.9-0.4-1.3-0.4l-3.3-7.5h3.3c1.1,0,2.2,0.2,3.3,0.6l0.6-0.1l5-0.8c1-0.1,1.9-0.2,2.8-0.3c1-0.1,1.9-0.1,2.8-0.1
					c3.5,0,6.8,1.3,9.5,3.7c0.5,0.4,1,0.9,1.5,1.5L597.7,290.9z"/>
				<path class="st23" d="M597.7,290.9h-16.6l-0.3,0.3h-4l-0.5-0.1c-0.5-0.1-1-0.2-1.4-0.3l-1.1,0.1c-0.4,0.1-0.8,0.1-1.3,0.2
					c-0.3,0-0.5,0.1-0.8,0.1l-0.3,0c-0.5,0.1-1,0.1-1.4,0.2c-0.4,0-0.8,0.1-1.2,0.2c-1.1,0.2-2.2,0.3-3.2,0.4c-1,0.1-2,0.1-2.9,0.1
					c-3.6,0-6.9-1.4-9.5-4l-0.3-0.3l5.6-5c1.2,1.2,2.6,1.8,4.2,1.8c0.7,0,1.5,0,2.3-0.1c0.8-0.1,1.7-0.2,2.7-0.3
					c0.5-0.1,0.9-0.1,1.3-0.2c0.4,0,0.8-0.1,1.3-0.2c0.4-0.1,0.8-0.1,1.2-0.2c0.4,0,0.8-0.1,1.2-0.2c0.6-0.1,1.1-0.1,1.5-0.2
					c0.4,0,0.9-0.1,1.3-0.2c0.2,0,0.3,0.1,0.5,0.1c0.2,0,0.4,0.1,0.7,0.2h-0.1c0.3,0.2,0.6,0.3,0.8,0.3h0.6l0.5-0.5L597.7,290.9z"/>
				<path class="st23" d="M578.4,283.2l-0.5,0.5h-0.6c-0.2,0-0.5-0.1-0.8-0.3h0.1c-0.3-0.1-0.5-0.1-0.7-0.2c-0.2,0-0.3-0.1-0.5-0.1
					c-0.4,0.1-0.8,0.1-1.3,0.2c-0.5,0-1,0.1-1.5,0.2c-0.4,0.1-0.8,0.1-1.2,0.2c-0.4,0.1-0.8,0.1-1.2,0.2c-0.5,0.1-0.9,0.1-1.3,0.2
					c-0.4,0-0.8,0.1-1.3,0.2c-1,0.1-1.9,0.2-2.7,0.3c-0.8,0.1-1.6,0.1-2.3,0.1c-1.6,0-3-0.6-4.2-1.8c-0.5-0.6-0.8-1.2-0.9-1.9
					l0.6-0.6c0.4,0,0.9,0.1,1.3,0.4c0.2,0.1,0.3,0.2,0.5,0.3c0.2,0.1,0.3,0.1,0.5,0.1c0.4-0.1,0.9-0.1,1.3-0.2s0.9-0.1,1.4-0.2
					l4.7-0.8c1-0.1,1.8-0.2,2.6-0.3c0.8-0.1,1.5-0.1,2.2-0.1c1.7,0,3.3,0.7,4.7,2C577.7,281.9,578,282.4,578.4,283.2z"/>
				<path class="st23" d="M607.9,297.7l-1.6,7.5c-1.1-0.3-2.1-0.9-3.1-1.7c-0.7-0.5-2.8-2.2-3.3-5.2l-0.1-0.3
					c-0.1-0.7-0.2-1.6-0.4-2.8c-0.1-1.1-0.3-2.3-0.4-3.7l0-0.2c-0.2-1.6-0.3-3.3-0.3-5.1c-0.1-1.7-0.1-3.6-0.1-5.7v-14.4l7.7-6.4
					c0.2,0.4,0.3,0.8,0.3,1.3c0,0.4-0.1,1-0.3,1.8c-0.1,0.7-0.2,1.1-0.2,1.3v16.4c0,2,0,3.8,0.1,5.4c0,1.7,0.1,3.2,0.3,4.6
					c0.2,1.4,0.3,2.6,0.5,3.7c0.1,1,0.2,1.9,0.3,2.6C607.3,297.1,607.5,297.4,607.9,297.7z"/>
				<path class="st23" d="M606.3,260l-7.7,6.4c-1,0.1-2.2,0.3-3.4,0.4c-0.2,0-0.3,0.1-0.5,0.2c-1,0.3-2.1,0.4-3.2,0.4
					c-6.2,0-9.4-4.4-9.4-8.7c0-0.6,0.1-1.3,0.2-1.9l7.3,1.9c0,0.8,0.6,1.2,1.9,1.2c0.4,0,0.8-0.1,1.1-0.2c0.4-0.1,0.6-0.2,0.8-0.3
					c0.1,0,0.1,0,0.1,0c2.1-0.3,3.8-0.5,5.3-0.6c1.4-0.2,2.6-0.2,3.5-0.2c0.7,0,1.3,0,1.7,0c0.4,0,0.7,0,0.9,0.1
					c0.4,0.1,0.7,0.3,1,0.5C606,259.3,606.2,259.6,606.3,260z"/>
				<path class="st23" d="M646.3,250.5l-6.9,3.1c0-1.1-0.8-1.6-2.3-1.6c-0.4,0-1,0-1.8,0.1s-1.6,0.1-2.5,0.3l-24.1-0.2
					c-0.4,0.1-0.8,0.1-1.2,0.2c-0.4,0-0.8,0.1-1.2,0.1c-1,0.1-2,0.3-2.8,0.4c-0.8,0.1-1.6,0.2-2.2,0.3c-0.8,0.2-1.8,0.4-2.9,0.7
					c-1.1,0.3-2.4,0.7-4,1.3c-0.9,0.3-1.8,0.7-2.5,1.1c-1.6,0.9-2.4,1.7-2.4,2.4l-7.3-1.9c0.6-2.7,2.6-5.1,5.9-7l0.2-0.1
					c1.1-0.6,2.3-1.1,3.5-1.6c1.8-0.6,3.3-1.1,4.6-1.5c1.2-0.3,2.3-0.6,3.3-0.8l0.8-0.1c0.6-0.1,1.3-0.1,2.1-0.2
					c0.8-0.1,1.6-0.2,2.6-0.3c0.5-0.1,1.1-0.2,1.7-0.2c0.2,0,0.4,0,0.6-0.1l0.6-0.1l24.2,0.2c0.9-0.1,1.7-0.2,2.5-0.3
					c0.9-0.1,1.7-0.1,2.3-0.1C642,244.5,645.1,247.2,646.3,250.5z"/>
				<path class="st23" d="M646.9,253.6c0,1.8-0.6,5.3-4.4,8.1c-1.6,1.2-3.2,2-4.8,2.4l-0.7,0.1c-1.2,0.2-2.6,0.3-4,0.5
					c-1.4,0.1-2.9,0.2-4.5,0.3l-0.2,0c-0.2,0-0.5,0-0.8,0.1c-0.6,0.1-1.1,0.1-1.6,0.1c-0.3,0-0.6,0-0.9,0H624l-6.5-6.8
					c0.6-0.2,1.1-0.3,1.6-0.4c0.5-0.1,0.9-0.2,1.3-0.3h4.7c0,0,0.1,0,0.2,0c0.1,0,0.2,0,0.3,0h0.4c0.2,0,0.4,0,0.6,0
					c0.8-0.1,1.4-0.2,1.6-0.2c1.5-0.1,2.8-0.2,4.1-0.3c1.3-0.1,2.4-0.3,3.5-0.4c0.7-0.2,1.4-0.5,2.2-1.1c0.9-0.6,1.4-1.3,1.4-2
					l6.9-3.1C646.7,251.5,646.9,252.6,646.9,253.6z"/>
				<path class="st23" d="M627.4,291.6c0,4.3-3.3,6.9-5,8.3c-0.9,0.7-1.8,1.4-2.7,2c-0.8,0.5-1.6,1-2.5,1.5l-0.2,0.1
					c-2.9,1.5-5.5,2.3-7.9,2.3c-1,0-1.9-0.2-2.8-0.5l1.6-7.5c0.4,0.3,0.8,0.5,1.2,0.5c1.2,0,2.6-0.5,4.4-1.4
					c0.8-0.4,1.5-0.9,2.2-1.3c0.7-0.4,1.3-0.9,2-1.5c1.5-1.2,2.2-2,2.2-2.4c0-0.7-0.3-1.2-1-1.5c-0.2-0.1-0.4-0.1-0.6-0.1
					c-0.2,0-0.3,0-0.3-0.1c-0.2,0-0.3-0.1-0.4-0.1c-0.1,0-0.2-0.1-0.3-0.1c-0.5-0.2-0.8-0.3-0.8-0.5v-27.2c0-1.9,0.1-3,0.3-3.2
					c0.2-0.2,0.4-0.4,0.7-0.4l6.5,6.8v19.3C626.1,286.3,627.4,288.8,627.4,291.6z"/>
				<path class="st23" d="M639.4,253.6c0,0.7-0.5,1.4-1.4,2c-0.8,0.6-1.5,1-2.2,1.1c-1.1,0.2-2.2,0.3-3.5,0.4
					c-1.3,0.1-2.6,0.2-4.1,0.3c-0.2,0-0.8,0-1.6,0.2c-0.2,0-0.4,0-0.6,0h-0.4c-0.1,0-0.2,0-0.3,0c-0.1,0-0.1,0-0.2,0h-4.7
					c-0.4,0.1-0.8,0.3-1.3,0.3c-0.5,0.1-1,0.2-1.6,0.4c-0.2,0-0.4,0.2-0.7,0.4c-0.2,0.2-0.3,1.3-0.3,3.2v27.2c0,0.2,0.3,0.4,0.8,0.5
					c0.1,0,0.2,0.1,0.3,0.1c0.1,0,0.3,0.1,0.4,0.1c0.1,0,0.2,0.1,0.3,0.1c0.2,0,0.3,0.1,0.6,0.1c0.7,0.3,1,0.8,1,1.5
					c0,0.5-0.7,1.3-2.2,2.4c-0.6,0.5-1.3,1-2,1.5c-0.7,0.4-1.4,0.9-2.2,1.3c-1.8,0.9-3.2,1.4-4.4,1.4c-0.4,0-0.8-0.2-1.2-0.5
					c-0.4-0.3-0.6-0.6-0.7-0.8c-0.1-0.7-0.2-1.5-0.3-2.6c-0.1-1-0.3-2.3-0.5-3.7c-0.1-1.4-0.2-2.9-0.3-4.6c-0.1-1.6-0.1-3.5-0.1-5.4
					v-16.4c0-0.2,0.1-0.7,0.2-1.3c0.2-0.8,0.3-1.3,0.3-1.8c0-0.5-0.1-0.9-0.3-1.3c-0.1-0.4-0.2-0.7-0.5-0.8c-0.3-0.2-0.6-0.4-1-0.5
					c-0.2,0-0.5-0.1-0.9-0.1c-0.4,0-1,0-1.7,0c-0.9,0-2,0.1-3.5,0.2c-1.4,0.1-3.2,0.4-5.3,0.6c0,0-0.1,0-0.1,0
					c-0.2,0.1-0.5,0.2-0.8,0.3c-0.3,0.1-0.7,0.2-1.1,0.2c-1.3,0-1.9-0.4-1.9-1.2c0-0.7,0.8-1.5,2.4-2.4c0.8-0.4,1.6-0.8,2.5-1.1
					c1.5-0.6,2.9-1,4-1.3c1.1-0.3,2.1-0.5,2.9-0.7c0.6-0.1,1.4-0.2,2.2-0.3c0.8-0.1,1.8-0.2,2.8-0.4c0.4-0.1,0.8-0.1,1.2-0.1
					c0.4,0,0.8-0.1,1.2-0.2l24.1,0.2c0.9-0.1,1.8-0.2,2.5-0.3s1.3-0.1,1.8-0.1C638.6,252,639.4,252.6,639.4,253.6z"/>
				<path class="st23" d="M695.8,276.5c-0.3-1.5-0.8-2.7-1.4-3.9c-0.9-1.5-2-2.7-3.4-3.6c-1.4-0.9-3-1.3-4.7-1.3
					c-2.8,0-5.6,0.7-8.3,2.1c-0.9,0.5-1.8,1-2.8,1.7c-1,0.6-2.1,1.4-3.2,2.3c-1.7,1.3-2.5,2-2.6,2c-0.1,0-0.1,0-0.1-0.1l-0.3-1
					l0.2-18.5c0-1.2-0.6-1.8-1.8-1.8c-0.4,0-1.4,0.3-2.8,1h0c-1.3,0.7-2.4,1.2-3.3,1.7c-1,0.5-1.8,0.8-2.4,1.1
					c-2.3,1.1-3.5,2-3.5,2.8c0,0.8,0.6,1.3,1.8,1.3c0.3,0,0.6-0.1,1-0.2s0.8-0.3,1.3-0.5l0.9-0.5c0.1-0.1,0.3-0.1,0.3-0.2
					c0,0,0,0.1,0,0.1c0,0.1,0,0.2,0.1,0.2l0.1,1.1v4c0,1.5,0,3.1,0,4.7c0,1.6,0,3.2,0,4.8v4c0,0.3-0.1,0.6-0.1,1.1c0,0.5,0,1,0,1.6
					s0,1.1,0,1.7v1.6l-0.3,12.3c0,0.6,0.2,1,0.7,1.4c0.4,0.3,0.9,0.5,1.5,0.5c0.1,0,0.5-0.1,1.1-0.3c0.6-0.2,1.4-0.5,2.4-0.9
					c1-0.4,1.9-0.8,2.6-1.1c0.7-0.3,1.1-0.6,1.4-0.8c0-0.6,0-1-0.1-1.1c-0.2-0.3-0.3-0.5-0.4-0.7c-0.1-0.2-0.2-0.3-0.3-0.4
					c-0.1-0.3-0.1-0.6-0.1-1c0-0.4-0.1-0.8-0.1-1.3h-1c0.1,0,0.3-0.3,0.6-0.7c0.3-0.4,0.5-1,0.5-1.7c0.1-0.7,0.1-1.4,0.1-1.9
					c0-0.5,0-0.9,0-1.1c0,0-0.1-1.6-0.1-4.8c0.2-0.9,0.8-1.9,1.8-3s2.3-2.3,3.9-3.4c3.3-2.3,6-3.5,7.9-3.5c2.3,0,4.1,1.7,5.3,5
					c0.5,1.2,0.8,2.4,1,3.6c0.2,1.2,0.3,2.4,0.3,3.5c0,2.2-0.5,4.4-1.4,6.7s-2.3,4.5-4.1,6.6c-0.6,0.7-1,1.3-1.3,1.8
					c-0.3,0.5-0.4,0.9-0.4,1.3c0,0.4,0.2,0.7,0.6,1c1,0.1,2.1-0.4,3.3-1.5h0c1.4-1.1,2.6-2.3,3.7-3.6c1.1-1.3,2-2.6,2.9-4h-0.1
					c0.4-0.6,0.7-1,1-1.5c0.3-0.4,0.5-0.7,0.7-1c0.5-1.2,0.8-2.1,1.2-2.9c0.3-0.8,0.5-1.4,0.7-1.7c0.1-0.1,0.1-0.2,0.1-0.3
					c0.3-1,0.4-2.5,0.4-4.5C696.3,279.5,696.2,278,695.8,276.5z"/>
				<path class="st23" d="M701.2,293h4.4l-14.8,13.1c-3,2.7,4,3.3,1.9,3.3c-0.2,0-0.4,0-0.7,0l-1.9-0.1l-7.6-7.4
					c1,0.1,2.1-0.4,3.3-1.5h0c1.4-1.1,2.6-2.3,3.7-3.6c1.1-1.3,2-2.6,2.9-4h-0.1c0.4-0.6,0.7-1,1-1.5c0.3-0.4,0.5-0.7,0.7-1
					c0.5-1.2,0.8-2.1,1.2-2.9c0.3-0.8,0.5-1.4,0.7-1.7c0.1-0.1,0.1-0.2,0.1-0.3c0.3-1,0.4-2.5,0.4-4.5c0-1.6-0.2-3.1-0.5-4.6
					c-0.3-1.5-0.8-2.7-1.4-3.9c-0.9-1.5-2-2.7-3.4-3.6c-1.4-0.9-3-1.3-4.7-1.3c-2.8,0-5.6,0.7-8.3,2.1c-0.9,0.5-1.8,1-2.8,1.7
					c-1,0.6-2.1,1.4-3.2,2.3c-1.7,1.3-2.5,2-2.6,2c-0.1,0-0.1,0-0.1-0.1l7.4-13.5c3.2-1.4,6.5-2,9.8-2c3.2,0,6.2,0.8,8.8,2.5
					c2.4,1.5,4.4,3.6,5.9,6.3c1,1.8,1.8,3.8,2.2,6c0.4,2,0.6,4,0.6,6.2c0,1.7-0.1,3.1-0.3,4.4h2.2L701.2,293z"/>
				<path class="st23" d="M689.3,284.7c0,2.2-0.5,4.4-1.4,6.7s-2.3,4.5-4.1,6.6c-0.6,0.7-1,1.3-1.3,1.8c-0.3,0.5-0.4,0.9-0.4,1.3
					c0,0.4,0.2,0.7,0.6,1l7.6,7.4l-11.6-1c-0.1-0.1-0.3-0.2-0.4-0.3h-13.4l1.3-1.1l11.2-12.8c0.3-0.3,0.5-0.7,0.8-1
					c1.3-1.5,2.3-3.1,2.9-4.7c0.6-1.3,0.8-2.5,0.8-3.8c0-0.7-0.1-1.5-0.2-2.3c-0.1-0.5-0.2-1-0.4-1.6c-0.6,0.3-1.3,0.8-2.1,1.3
					c-1.3,0.9-2.1,1.7-2.5,2.1l-7.5-1.8c0.2-0.9,0.8-1.9,1.8-3s2.3-2.3,3.9-3.4c3.3-2.3,6-3.5,7.9-3.5c2.3,0,4.1,1.7,5.3,5
					c0.5,1.2,0.8,2.4,1,3.6C689.2,282.3,689.3,283.5,689.3,284.7z"/>
				<path class="st23" d="M677.2,294.1L666,306.9c-1.1,0.4-2.1,0.7-3.4,0.7c-2.2,0-4.3-0.7-6.1-2.1c-1.8-1.4-3-3.3-3.4-5.5h-17.3
					l17.3-8.5l0.1-7.2c0-0.7,0-1.3,0-2c0-0.6,0-1.1,0-1.6c0-0.5,0-0.9,0.1-1.3v-3.6c0-1.5,0-3.1,0-4.7c0-0.7,0-1.3,0-1.9l7.4-7.9
					l0.1,1.1v4c0,1.5,0,3.1,0,4.7c0,1.6,0,3.2,0,4.8v4c0,0.3-0.1,0.6-0.1,1.1c0,0.5,0,1,0,1.6s0,1.1,0,1.7v1.6l-0.3,12.3
					c0,0.6,0.2,1,0.7,1.4c0.4,0.3,0.9,0.5,1.5,0.5c0.1,0,0.5-0.1,1.1-0.3c0.6-0.2,1.4-0.5,2.4-0.9c1-0.4,1.9-0.8,2.6-1.1
					c0.7-0.3,1.1-0.6,1.4-0.8c0-0.6,0-1-0.1-1.1c-0.2-0.3-0.3-0.5-0.4-0.7c-0.1-0.2-0.2-0.3-0.3-0.4c-0.1-0.3-0.1-0.6-0.1-1
					c0-0.4-0.1-0.8-0.1-1.3h-1c0.1,0,0.3-0.3,0.6-0.7c0.3-0.4,0.5-1,0.5-1.7c0.1-0.7,0.1-1.4,0.1-1.9c0-0.5,0-0.9,0-1.1
					c0,0-0.1-1.6-0.1-4.8l7.5,1.8c0,1.3,0,1.9,0,2.2c0.1,0.5,0.1,1.1,0.1,1.8c0,0.8,0,1.6-0.1,2.5c0,0.2,0,0.4-0.1,0.6v0.8l0.1,0.2
					C676.9,293,677.1,293.6,677.2,294.1z"/>
				<path class="st23" d="M694.9,248l-18.3,9.7l0,4.5l-7.4,13.5l-0.3-1l0.2-18.5c0-1.2-0.6-1.8-1.8-1.8c-0.4,0-1.4,0.3-2.8,1h0
					c-1.3,0.7-2.4,1.2-3.3,1.7c-1,0.5-1.8,0.8-2.4,1.1c-2.3,1.1-3.5,2-3.5,2.8c0,0.8,0.6,1.3,1.8,1.3c0.3,0,0.6-0.1,1-0.2
					s0.8-0.3,1.3-0.5l0.9-0.5c0.1-0.1,0.3-0.1,0.3-0.2c0,0,0,0.1,0,0.1c0,0.1,0,0.2,0.1,0.2l-7.4,7.9c-3-1.1-4.8-3.5-5.3-6.2l-6.1,2
					l11.2-12.1c1-0.6,1.9-1.1,2.6-1.4l0.1,0c0.5-0.2,1-0.5,1.7-0.8l3.8-1.9c2.2-1.1,4.1-1.8,6.1-1.8c1.6,0,3.1,0.4,4.4,1H694.9z"/>
				<path class="st23" d="M753.7,272.9l-1.5,3l-2,4l-6.9-6.1c0.8-0.7,1.2-1.4,1.2-2.1c0-1.7-1.4-3-4.2-3.8c-1-0.3-1.9-0.5-2.9-0.6
					c-1-0.1-2-0.2-3-0.2c-1.8,0-3.6,0.2-5.4,0.7c-0.8,0.2-1.5,0.5-2.1,0.7c-0.7,0.2-1.1,0.4-1.3,0.5c-0.8,0.4-1.5,0.8-2.3,1.3
					c-0.8,0.5-1.4,1-2,1.5c-2,1.8-3.4,4-4.3,6.7h0.1c-0.4,1-0.6,1.9-0.8,2.7c-0.2,0.8-0.2,1.6-0.2,2.3l-10.1,6.6l1-4.7l2.9-9.2
					c1.3-3.9,3.4-7.3,6.3-9.9l-2-1.3h3.6c0.5-0.4,1-0.7,1.5-1c1-0.6,2-1.2,3-1.7c0.5-0.3,1.2-0.5,2.2-0.8c0.7-0.2,1.5-0.5,2.3-0.7
					l0.3-0.1c3.7-1,7.7-1.2,11.3-0.7c1.3,0.2,2.6,0.4,3.9,0.8c8.8,2.5,9.7,8.5,9.7,11c0,0,0,0.1,0,0.1L753.7,272.9z"/>
				<path class="st23" d="M750.5,290.9l-8.3,1.3c-0.4,0-1.1,0.2-2.1,0.6c-0.2,0.1-0.4,0.2-0.7,0.3c-0.5,0.3-0.9,0.4-1.2,0.5
					c-2.8,0.7-4.5,1-5,1c-1.9,0-3.8-0.7-5.8-2h0.1c-2.2-1.5-3.5-3.3-3.7-5.3c0-0.1-0.1-0.3-0.1-0.5c0-0.2,0-0.3-0.1-0.5
					c-0.1-0.3-0.1-0.5-0.1-0.7c0-0.2,0-0.4-0.1-0.6v-0.1c0,0,0-0.2,0-0.3c0-0.1,0-0.2,0-0.3c0-0.1,0-0.3,0-0.4
					c0.2-0.1,0.7-0.1,1.4-0.1h0.1c0.6,0,1.1-0.1,1.6-0.1c0.5,0,0.8,0,1-0.1l7.5-0.1c0.4,0,0.9,0.2,1.7,0.6c0.8,0.5,1.4,0.8,1.6,0.8
					c0.4,0,0.7-0.1,1-0.2c0.1-0.1,0.4-0.2,0.7-0.4c0.3-0.2,0.7-0.4,1.1-0.7c1-0.7,1.6-1.4,1.6-2c0-1.2-1.1-1.8-3.3-1.8h-7.5
					c0,0-0.1,0-0.2,0c-0.1,0-0.1,0-0.2,0h-0.3c-0.1,0-0.3,0-0.4,0c-0.3,0-0.5-0.1-0.7-0.1c-0.2,0-0.3,0-0.4,0h-5.2
					c-0.6,0-0.9-0.3-0.8-1c0-0.2,0.2-0.7,0.7-1.6c0.5-0.9,1.1-1.8,1.8-2.6c0.7-0.8,1.5-1.5,2.3-2c1.5-1,3.1-1.5,4.8-1.5
					c0.7,0,1.7,0.2,2.9,0.5c1.3,0.4,2.1,0.7,2.5,1h-0.1c0.2,0.1,0.4,0.3,0.5,0.5c0.2,0.2,0.3,0.5,0.4,0.8c0.2,0.7,0.7,1.1,1.4,1.1
					c0.7,0,1.4-0.3,2.1-1l6.9,6.1c0.1,0.6,0.2,1.3,0.2,1.9c0,1.5-0.4,3.5-1.9,5.5C749.3,288.3,750.1,289.5,750.5,290.9z"/>
				<path class="st23" d="M751.7,300.2h-3.8c-0.3,0.3-0.6,0.6-0.9,0.8l-0.3,0.2c-0.6,0.5-1.2,0.9-1.9,1.2c-0.2,0.1-0.3,0.2-0.5,0.3
					l-0.5,0.3c-0.9,0.5-2,0.9-3.2,1.4c-1,0.4-2,0.7-3.3,1.2l-0.4,0.1c-1.5,0.4-3.1,0.6-4.9,0.6c-2.5,0-4.7-0.3-6.6-0.8l-0.8-0.2
					l-0.7-0.3c-0.1,0-0.4-0.2-0.8-0.4c-0.6-0.3-1.4-0.6-2.5-1.1l-0.3-0.2c-1.9-1-3.7-2.2-5.4-3.8c-1.8-1.7-3.2-3.6-4.2-5.8
					c-0.7-1.3-1.2-2.7-1.6-4.1l-3.4,0.1l10.1-6.6c0,2.6,0.5,5.1,1.7,7.3c0.6,1.3,1.5,2.5,2.6,3.6c1.1,1,2.3,1.9,3.6,2.5
					c1.1,0.5,1.9,0.8,2.6,1.1c0.6,0.3,1,0.5,1.1,0.5c1.2,0.3,2.8,0.5,4.7,0.5c1.1,0,2-0.1,2.8-0.4c1.2-0.4,2.2-0.8,3.1-1.1
					c0.9-0.3,1.7-0.7,2.3-1c0.3-0.2,0.6-0.3,0.8-0.5c0.3-0.2,0.6-0.4,0.9-0.6c0.5-0.4,0.8-0.8,1-1.1c0.2-0.3,0.3-0.6,0.3-0.8
					c0-0.8-0.4-1.2-1.1-1.2l8.3-1.3c0.2,0.8,0.3,1.7,0.3,2.5c0,1.6-0.5,3.3-1.4,4.7c-0.1,0.1-0.1,0.2-0.2,0.3L751.7,300.2z"/>
				<path class="st23" d="M743.3,293.5c0,0.3-0.1,0.5-0.3,0.8c-0.2,0.3-0.5,0.7-1,1.1c-0.3,0.2-0.6,0.4-0.9,0.6
					c-0.3,0.2-0.6,0.3-0.8,0.5c-0.6,0.3-1.4,0.7-2.3,1c-0.9,0.3-1.9,0.7-3.1,1.1c-0.8,0.2-1.8,0.4-2.8,0.4c-1.9,0-3.4-0.2-4.7-0.5
					c-0.1-0.1-0.5-0.2-1.1-0.5c-0.6-0.3-1.5-0.7-2.6-1.1c-1.3-0.6-2.4-1.5-3.6-2.5c-1.1-1.1-2-2.2-2.6-3.6c-1.1-2.2-1.7-4.7-1.7-7.3
					c0-0.7,0.1-1.5,0.2-2.3c0.2-0.8,0.4-1.7,0.8-2.7h-0.1c0.9-2.7,2.3-4.9,4.3-6.7c0.6-0.5,1.3-1,2-1.5c0.8-0.5,1.5-0.9,2.3-1.3
					c0.2-0.1,0.6-0.3,1.3-0.5c0.7-0.2,1.4-0.4,2.1-0.7c1.8-0.5,3.6-0.7,5.4-0.7c1,0,2,0.1,3,0.2c1,0.1,1.9,0.3,2.9,0.6
					c2.8,0.8,4.2,2,4.2,3.8c0,0.7-0.4,1.4-1.2,2.1c-0.7,0.7-1.3,1-2.1,1c-0.7,0-1.2-0.4-1.4-1.1c-0.1-0.4-0.3-0.6-0.4-0.8
					c-0.1-0.2-0.3-0.3-0.5-0.5h0.1c-0.4-0.2-1.2-0.6-2.5-1c-1.2-0.3-2.1-0.5-2.9-0.5c-1.7,0-3.3,0.5-4.8,1.5c-0.8,0.6-1.6,1.3-2.3,2
					c-0.7,0.8-1.3,1.7-1.8,2.6c-0.5,0.9-0.7,1.5-0.7,1.6c-0.1,0.7,0.2,1,0.8,1h5.2c0.1,0,0.2,0,0.4,0c0.2,0,0.4,0,0.7,0.1
					c0.2,0,0.3,0,0.4,0h0.3c0.1,0,0.1,0,0.2,0c0.1,0,0.1,0,0.2,0h7.5c2.2,0,3.3,0.6,3.3,1.8c0,0.6-0.5,1.3-1.6,2
					c-0.4,0.3-0.7,0.5-1.1,0.7c-0.3,0.2-0.6,0.3-0.7,0.4c-0.3,0.1-0.6,0.2-1,0.2c-0.3,0-0.8-0.3-1.6-0.8c-0.8-0.4-1.3-0.6-1.7-0.6
					l-7.5,0.1c-0.2,0.1-0.5,0.1-1,0.1c-0.4,0-1,0-1.6,0.1h-0.1c-0.8,0-1.3,0.1-1.4,0.1c0,0.1,0,0.2,0,0.4c0,0.2,0,0.3,0,0.3
					c0,0.2,0,0.3,0,0.3v0.1c0,0.2,0.1,0.4,0.1,0.6c0,0.2,0.1,0.4,0.1,0.7c0,0.1,0.1,0.3,0.1,0.5c0,0.2,0,0.3,0.1,0.5
					c0.2,2,1.4,3.8,3.7,5.3h-0.1c2,1.3,3.9,2,5.8,2c0.5,0,2.2-0.4,5-1c0.3,0,0.7-0.2,1.2-0.5c0.3-0.1,0.5-0.2,0.7-0.3
					c1-0.4,1.7-0.6,2.1-0.6C743,292.3,743.3,292.7,743.3,293.5z"/>
				<path class="st23" d="M839.6,290.9H783l-0.3,0.3h-4l-0.5-0.1c-0.5-0.1-1-0.2-1.4-0.3l-1.1,0.1c-0.4,0.1-0.8,0.1-1.3,0.2
					c-0.3,0-0.5,0.1-0.8,0.1l-0.3,0c-0.5,0.1-1,0.1-1.4,0.2c-0.4,0-0.8,0.1-1.2,0.2c-1.1,0.2-2.2,0.3-3.2,0.4c-1,0.1-2,0.1-2.9,0.1
					c-3.6,0-6.9-1.4-9.5-4l-0.3-0.3c-1.5-1.7-2.5-3.8-2.7-6.1l-0.3-3.3l7.8,2.6c0.1,0.7,0.3,1.3,0.8,1.9c1.2,1.2,2.6,1.8,4.2,1.8
					c0.7,0,1.5,0,2.3-0.1c0.8-0.1,1.7-0.2,2.7-0.3c0.5-0.1,0.9-0.1,1.3-0.2c0.4,0,0.8-0.1,1.3-0.2c0.4-0.1,0.8-0.1,1.2-0.2
					c0.4,0,0.8-0.1,1.2-0.2c0.6-0.1,1.1-0.1,1.5-0.2c0.5,0,0.9-0.1,1.3-0.2c0.2,0,0.3,0.1,0.5,0.1c0.2,0,0.4,0.1,0.7,0.2h-0.1
					c0.3,0.2,0.6,0.3,0.8,0.3h0.6l0.5-0.5L839.6,290.9z"/>
				<path class="st23" d="M839.6,290.9l-59.3-7.7c-0.4-0.8-0.8-1.3-1.1-1.5c-1.4-1.3-2.9-2-4.7-2c-0.7,0-1.4,0-2.2,0.1
					c-0.8,0.1-1.7,0.2-2.6,0.3l-4.7,0.8c-0.5,0.1-0.9,0.1-1.4,0.2c-0.5,0.1-0.9,0.1-1.3,0.2c-0.1,0-0.3,0-0.4-0.1
					c-0.2-0.1-0.3-0.2-0.5-0.3c-0.5-0.3-0.9-0.4-1.3-0.4l-0.6,0.6l-7.8-2.6l0.8-0.8l-0.4-1.7h1.9l2.8-3h3.3c1.1,0,2.2,0.2,3.3,0.6
					l0.6-0.1l5-0.8c1-0.1,1.9-0.2,2.8-0.3c1-0.1,1.9-0.1,2.8-0.1c3.5,0,6.8,1.3,9.5,3.7c0.5,0.4,1,0.9,1.5,1.5L839.6,290.9z"/>
				<path class="st23" d="M780.3,283.2l-0.5,0.5h-0.6c-0.2,0-0.5-0.1-0.8-0.3h0.1c-0.3-0.1-0.5-0.1-0.7-0.2c-0.2,0-0.3-0.1-0.5-0.1
					c-0.4,0.1-0.8,0.1-1.3,0.2c-0.4,0-1,0.1-1.5,0.2c-0.4,0.1-0.8,0.1-1.2,0.2c-0.4,0.1-0.8,0.1-1.2,0.2c-0.5,0.1-0.9,0.1-1.3,0.2
					c-0.4,0-0.8,0.1-1.3,0.2c-1,0.1-1.9,0.2-2.7,0.3c-0.8,0.1-1.6,0.1-2.3,0.1c-1.6,0-3-0.6-4.2-1.8c-0.5-0.6-0.8-1.2-0.8-1.9
					l0.6-0.6c0.4,0,0.9,0.1,1.3,0.4c0.2,0.1,0.3,0.2,0.5,0.3c0.2,0.1,0.3,0.1,0.4,0.1c0.4-0.1,0.9-0.1,1.3-0.2
					c0.4-0.1,0.9-0.1,1.4-0.2l4.7-0.8c1-0.1,1.8-0.2,2.6-0.3c0.8-0.1,1.5-0.1,2.2-0.1c1.7,0,3.3,0.7,4.7,2
					C779.6,281.9,779.9,282.4,780.3,283.2z"/>
				<path class="st23" d="M435,332.4c-0.2-0.9-0.4-2-0.7-3.1c-2.3-7.2-5.9-11.6-10.8-13.3v0c-1.5-0.5-3.1-0.8-4.8-0.8
					c-1.2,0-2.7,0.3-4.3,1c-3.3,1.3-5.1,2-5.3,2.1c-0.9,0.4-2.3,1.2-4,2.4c-1.8,1.2-3.9,2.8-6.3,4.7c-5.3,4.1-8.3,7.1-9,9.1
					c-0.1,0.3-0.1,0.6-0.1,0.8V350c0,0.5,0.1,1.2,0.1,1.9c0,0.3,0,0.6,0.1,0.9c0,0.3,0.1,0.6,0.1,0.9c0.1,0.5,0.1,1,0.1,1.6v1.4
					c0.4,0.5,1.3,0.7,2.7,0.7c0.2-0.1,0.4-0.1,0.7-0.1h0.8c0.3,0,0.7,0,1.2-0.2c0.7-0.2,1.2-0.3,1.7-0.3c0.5,0,0.9-0.1,1.3-0.2
					c0.2,0,0.4,0,0.6-0.1c0.2,0,0.4-0.1,0.6-0.1c2.5-0.2,5.8-0.9,9.9-2c1.2-0.5,2.7-1,4.3-1.4c0.7-0.2,1.4-0.4,2.1-0.6
					s1.5-0.4,2.3-0.6c6.7-2.2,11.9-5.5,15.5-9.9c0.2-0.3,0.4-0.7,0.6-1.1c0.6-1.5,1-3.4,1-5.8C435.3,334.2,435.2,333.4,435,332.4z
					 M416.2,344.7l-2,0.5c-0.8,0.2-1.6,0.4-2.4,0.6c-1.6,0.5-3.1,1-4.5,1.5c-4.2,1.1-6.7,1.5-8,1.6c-0.4,0-0.8,0.1-1.2,0.1h-0.4
					l-0.4,0.1v-12.3c0.7-0.8,2.4-2.5,6.2-5.4c2.4-1.8,4.4-3.3,6.1-4.5c1.8-1.3,2.5-1.6,2.5-1.6l0.4-0.2c0.3-0.1,1.3-0.6,4.9-2
					c0.9-0.4,1.3-0.4,1.4-0.4c0.5,0,1.3,0,2,0.3c2,0.6,4.4,2.4,6.4,8.4c0.2,0.9,0.4,1.8,0.6,2.5c0.1,0.6,0.1,1,0.1,1.1
					c0,1.6-0.2,2.4-0.3,2.7C424.9,340.7,421.1,343.1,416.2,344.7z"/>
				<path class="st23" d="M434.3,375.1c-4.8-5.5-10.8-8.2-17.8-8.2h-0.4c-0.1,0-0.5,0-0.9,0.1c-0.4,0.1-0.9,0.2-1.6,0.2
					c-0.7,0-1.4,0.1-2.1,0.2c-0.8,0.1-1.4,0.2-2,0.2c-0.6,0-1.1,0.1-1.7,0.2h0.1c-0.9,0.2-1.7,0.3-2.4,0.4s-1.4,0.1-1.8,0.2
					c-2.4,0.3-4.8,0.8-7.3,1.4c-1.1,0.3-2,0.5-2.6,0.7s-0.9,0.3-1.1,0.4c-1.3,0.4-2.1,1-2.3,1.8c-0.5,2.7-0.7,6.1-0.7,10.4v1.9
					c0,1,0,2.5,0.1,4.4c0.1,1.1,0.2,2.2,0.2,3.1c0,0.9,0.1,1.6,0.1,2.1v0.8l0.1,15.2c0,0.6,0.4,1,1.1,1.3c0.7,0.3,1.6,0.6,2.8,0.9
					c2.1,0.5,3.9,0.7,5.4,0.7c0.2,0,0.9-0.1,2.1-0.3c1.2-0.2,2.9-0.5,5.1-0.9c0.2,0,0.4,0,0.7-0.1c0.3-0.1,0.5-0.1,0.7-0.1
					c0.8-0.1,1.7-0.2,2.9-0.2s2.3-0.1,3.5-0.2c2.2-0.4,4.4-1,6.8-1.8c2.4-0.8,4.9-1.8,7.7-3c3.7-1.9,6.6-3.9,8.7-6.1
					c1.4-1.4,2.3-2.8,2.8-4.1c0.3-0.8,0.4-1.6,0.4-2.4C441.3,387.1,439,380.6,434.3,375.1z M432.6,395.7c-1.5,1.5-3.7,3.1-6.5,4.5
					c-2.5,1-4.9,2-7,2.7c-1.8,0.7-3.6,1.2-5.3,1.5c-0.9,0.1-1.9,0.1-2.8,0.2c-1.3,0.1-2.3,0.1-3.2,0.2c-0.3,0-0.7,0.1-1.2,0.1h-0.3
					l-0.6,0.1c-2.1,0.4-3.8,0.6-5,0.8c-0.6,0.1-1,0.2-1.3,0.2c-0.4,0-0.8,0-1.5-0.1l-0.1-10.5v-0.8c0-0.6,0-1.4-0.1-2.5
					c0-0.9-0.1-2-0.2-3.1c-0.1-2.1-0.1-3.3-0.1-3.9v-1.8c0-2.2,0.1-4.2,0.2-5.9c0.2-0.1,0.5-0.1,0.8-0.2l0.1,0
					c2.1-0.6,4.2-1,6.2-1.2l0.6-0.1c0,0,0.3,0,0.9-0.1c1.1-0.1,2.4-0.2,3.6-0.5h0c0.2,0,0.4,0,0.5,0c0.7-0.1,1.4-0.1,2.3-0.3
					c0.6-0.1,1.2-0.1,1.7-0.2c1-0.1,1.8-0.2,2.5-0.3c4.8,0,8.5,1.8,11.9,5.6c3.5,4.2,5.1,8.8,5,14.2l0,0.1
					C433.6,394.4,433.3,394.9,432.6,395.7z"/>
				<path class="st23" d="M652.2,384c-1.3-4-2.5-7.6-3.7-10.9c-1.2-3.3-2.4-6-3.7-8.2c-3.9-6.9-9-11.8-15.4-14.7
					c-3.2-1.5-6.2-2.3-8.8-2.3c-1.7,0-3.4,0.2-5,0.5c-0.8,0.2-1.6,0.4-2.4,0.7c-2.4,0.8-4.6,2-6.8,3.5c-2.3,1.8-4.3,4-6.1,6.5
					c-1.7,2.6-3.1,5.4-4,8.6l-0.7,1.2v-0.1c-0.3,0.7-0.6,1.5-0.9,2.4v1.6c0,0.6,0,1.3-0.1,1.9c0,0.2,0,0.4-0.1,0.6
					c-0.1,0.2-0.1,0.4-0.1,0.6c-0.1,0.3-0.2,0.7-0.2,0.9c-0.1,0.3-0.1,0.5-0.1,0.8c-0.1,0.4-0.1,0.7-0.2,0.9c0,0.3-0.1,0.6-0.1,0.9
					c0,2.2,0.3,4.4,0.9,6.5c0.1,0.2,0.2,0.6,0.5,1.3c0.2,0.7,0.6,1.6,1,2.5c0.8,3.9,2.3,7.5,4.4,10.8c2.1,3.3,4.8,6.3,7.9,9
					c1.1,0.9,2.1,1.7,3.2,2.5c5.1,3.5,10.3,5.3,15.7,5.3c9.3,0,16.6-4.9,22.1-14.6c0.7-1.3,1.3-2.4,1.7-3.3c0.2-0.5,0.3-0.9,0.5-1.3
					c0.2-0.5,0.3-0.9,0.4-1.3c0.1-0.5,0.1-2.6,0.1-6.6C652.3,386.3,652.3,384.2,652.2,384z M643.1,399.1
					c-5.4,9.6-11.4,10.7-15.5,10.7c-4.2,0-8.4-1.6-12.5-4.8c-0.5-0.4-1-0.7-1.4-1.1c-2.6-2.2-4.7-4.7-6.5-7.3
					c-1.6-2.5-2.7-5.2-3.3-8.3l-0.2-0.8l-0.4-0.8c-0.4-0.9-0.6-1.4-0.7-1.7c-0.2-0.7-0.4-1.1-0.5-1.5c-0.3-1.3-0.5-2.6-0.5-4
					c0-0.1,0-0.1,0-0.2l0.2-0.9v-0.7c0,0,0-0.1,0-0.2l0.2-0.9v-0.5c0.1-0.3,0.1-0.7,0.1-1c0.1-0.8,0.2-1.7,0.2-2.5v-0.2
					c0-0.1,0.1-0.2,0.1-0.2l1-1.8l0.2-0.8c0.7-2.3,1.7-4.5,3-6.4c1.3-1.9,2.7-3.4,4.3-4.7c1.5-1.1,3.1-1.9,4.7-2.4
					c0.5-0.2,1.1-0.3,1.6-0.4c1.1-0.3,2.2-0.4,3.4-0.4c1.5,0,3.4,0.5,5.7,1.6c4.9,2.3,8.9,6.1,12,11.6c1.1,1.9,2.1,4.3,3.2,7.2
					c1.1,2.9,2.2,6.2,3.3,9.7c0,0.6,0,2,0,4.8c0,3.3,0,4.7-0.1,5.3c-0.1,0.3-0.2,0.6-0.4,1.1c-0.2,0.4-0.4,0.9-0.7,1.5
					C643.5,398.5,643.3,398.8,643.1,399.1z"/>
				<path class="st23" d="M763.8,384c-1.3-4-2.5-7.6-3.7-10.9c-1.2-3.3-2.4-6-3.7-8.2c-3.9-6.9-9.1-11.8-15.4-14.7
					c-0.9-0.4-1.7-0.8-2.5-1c-2.2-0.8-4.3-1.2-6.3-1.2c-2.6,0-5.1,0.4-7.4,1.2c-2.4,0.8-4.6,2-6.8,3.5c-2.3,1.8-4.3,4-6.1,6.5
					c-1.7,2.6-3.1,5.4-3.9,8.6l-0.7,1.2v-0.1c-0.3,0.7-0.6,1.5-0.9,2.4v1.6c0,0.6,0,1.3-0.1,1.9c0,0.2,0,0.4-0.1,0.6
					c0,0.2-0.1,0.4-0.1,0.6c-0.1,0.3-0.2,0.7-0.2,0.9c0,0.3-0.1,0.5-0.1,0.8c-0.1,0.4-0.2,0.7-0.2,0.9c-0.1,0.3-0.1,0.6-0.1,0.9
					c0,2.2,0.3,4.4,0.9,6.5c0.1,0.2,0.2,0.6,0.5,1.3c0.2,0.7,0.6,1.6,1,2.5c0.8,3.9,2.3,7.5,4.4,10.8c2.1,3.3,4.8,6.3,7.9,9
					c6.1,5.2,12.3,7.8,18.8,7.8c1.7,0,3.4-0.2,4.9-0.5c7-1.5,12.7-6.2,17.1-14.1c0.7-1.3,1.3-2.4,1.7-3.3c0.4-1,0.7-1.9,0.9-2.7
					c0.1-0.5,0.1-2.6,0.1-6.6C763.9,386.3,763.9,384.2,763.8,384z M756.4,395.5c-0.1,0.3-0.2,0.6-0.4,1.1c-0.3,0.7-0.7,1.5-1.3,2.5
					c-4.6,8.2-9.7,10.2-13.6,10.6h0c-0.7,0.1-1.3,0.1-1.9,0.1c-4.7,0-9.3-2-14-6c-2.6-2.2-4.7-4.7-6.5-7.3c-1.6-2.5-2.7-5.2-3.4-8.3
					l-0.2-0.8l-0.3-0.8c-0.4-0.9-0.6-1.4-0.7-1.7c-0.2-0.6-0.4-1.1-0.5-1.5c-0.3-1.3-0.5-2.6-0.5-4c0-0.1,0-0.1,0-0.2l0.2-0.9v-0.7
					c0,0,0-0.1,0-0.2l0.2-0.9v-0.5c0.1-0.3,0.1-0.7,0.1-1c0.1-0.9,0.2-1.7,0.2-2.5v-0.2c0-0.1,0.1-0.2,0.1-0.2l1-1.8l0.2-0.8
					c0.7-2.3,1.7-4.5,2.9-6.4c1.3-1.9,2.7-3.4,4.3-4.7c1.5-1.1,3.1-1.9,4.7-2.4c1.6-0.5,3.2-0.8,5-0.8c0.8,0,1.6,0.1,2.5,0.4
					c1,0.3,2,0.7,3.1,1.2c4.9,2.3,8.9,6.1,12,11.6c1.1,1.9,2.1,4.3,3.2,7.2c1.1,2.9,2.2,6.1,3.3,9.7c0,0.6,0,2,0,4.8
					C756.4,393.6,756.4,395,756.4,395.5z"/>
			</g>
			<g>
				<path class="st24" d="M464,376.9c-0.2-1.8-0.5-3.8-1-6.1c-0.3-1.4-1.4-3.7-3.4-6.7v0.1c-4.9-8-10.4-12.8-16.3-14.6
					c-0.7,0-1.1-0.2-1.3-0.6l0.1-0.1c0,0,0,0,0.1-0.1c0.1-0.1,0.2-0.2,0.4-0.4c0.4-0.5,0.8-0.9,1.1-1.1c1.1-1.3,2.2-2.5,3.1-3.5
					c0.9-1,1.7-1.9,2.5-2.7v0.1c1.8-2.1,3.3-4.1,4.5-6.2c1.2-2,2.2-3.9,2.9-5.5c0.2-0.5,0.3-2.6,0.3-6.5c0-2.1,0-3.8-0.1-5.2
					c-0.1-1.4-0.3-2.4-0.6-3c-2.8-6.9-6.4-12.2-10.7-15.8c-4.3-3.6-9.4-5.5-15.3-5.5c-4.8,0-8.9,1-12.1,3c-1.6,0.9-3.9,2.3-6.8,4.5
					c-2.9,2.1-6.4,4.8-10.6,8.2c-3.3,2.7-6,4.7-8,6.2c-2,1.5-3,2.2-3.1,2.2c-0.4,0-0.5-0.6-0.4-1.7l0.1-9.5v-1.5
					c0-0.8,0.1-1.7,0.1-2.8c0.1-0.8,0.2-1.5,0.2-2.1c0-0.6,0.1-1.2,0.1-1.6v-1.1c0-3.6-2.5-5.4-7.5-5.4c-1.8,0-4.5,0.5-8.2,1.4
					c-3.7,0.9-8.3,2.3-13.9,4.2c-13.3,4.5-20,9-20,13.3c0,2.5,1.7,3.7,5,3.7c0.7,0,3.4-1,8.1-3c4.4-2,6.6-3,6.8-3
					c0.5,0,1,0.3,1.5,0.8c0.5,0.5,0.8,1.2,0.8,1.9c-0.1,0.1-0.1,0.2-0.1,0.4c-0.1,0.2-0.1,0.4-0.1,0.6s-0.1,0.5-0.1,0.6l0.1-0.1
					c-0.1,0.2-0.2,0.5-0.2,0.8c0,0.3-0.1,0.6-0.2,0.9c-0.4,1.9-0.6,3.5-0.6,4.8c-0.2,5.3,0,9.4,0.6,12.3c0.6,2.9,1.1,4.6,1.5,5.2
					h-2.5v0.7c0,0.6,0,1.1,0.1,1.5c0,0.4,0.1,1,0.2,1.8c0.3,2.3,0.4,3.7,0.4,4.4v3.6c0,1.5,0,3,0.1,4.4c0,0.7,0,1.3,0.1,1.9
					c0,0.6,0.1,1.3,0.1,2.1c0,0.8,0,1.5,0.1,2.2c0,0.7,0.1,1.4,0.1,2.1c0.1,1.4,0.2,2.7,0.2,3.8v2.8c0,3.3,0,6.8,0.1,10.6
					c0,3.8,0.1,7.5,0.1,11.4c0.1,3.8,0.1,7.6,0.1,11.4c0,3.8,0.1,7.3,0.1,10.6c0.1,3.9,0.5,7.2,1.3,9.9c0.8,2.8,1.8,4.6,3.3,5.5
					c1.8,1.1,6.4,1.7,13.9,1.7c3.8,0,7.4-0.1,10.9-0.4c3.5-0.2,6.7-0.6,9.9-1.1h-0.1c6.4-0.9,12.7-2.2,18.7-4.1
					c6-1.9,11.9-4.3,17.5-7.1c1.1-0.6,2.1-1.1,3.1-1.7c15.7-9,23.6-20.1,23.6-33.2C464.3,380.2,464.2,378.7,464,376.9z M389.7,335.4
					c0-0.3,0.1-0.5,0.1-0.8c0.7-2,3.7-5.1,9-9.1c2.5-1.9,4.6-3.5,6.3-4.7c1.8-1.2,3.1-2,4-2.4c0.2-0.1,1.9-0.8,5.3-2.1
					c1.6-0.7,3-1,4.3-1c1.7,0,3.3,0.3,4.8,0.8v0c5,1.7,8.6,6.1,10.8,13.3c0.3,1.1,0.5,2.2,0.7,3.1c0.2,0.9,0.3,1.8,0.3,2.6
					c0,2.4-0.3,4.4-1,5.8c-0.2,0.4-0.4,0.8-0.6,1.1c-3.6,4.5-8.8,7.8-15.5,9.9c-0.8,0.2-1.5,0.4-2.3,0.6s-1.5,0.4-2.1,0.6
					c-1.6,0.5-3,0.9-4.3,1.4c-4.2,1.1-7.5,1.8-9.9,2c-0.2,0-0.4,0-0.6,0.1c-0.2,0.1-0.4,0.1-0.6,0.1c-0.4,0.1-0.8,0.2-1.3,0.2
					c-0.5,0-1,0.2-1.7,0.3c-0.5,0.1-0.9,0.2-1.2,0.2h-0.8c-0.3,0-0.5,0-0.7,0.1c-1.4,0-2.3-0.2-2.7-0.7v-1.4c0-0.6,0-1.1-0.1-1.6
					c0-0.3,0-0.6-0.1-0.9c0-0.3-0.1-0.6-0.1-0.9c-0.1-0.8-0.1-1.4-0.1-1.9V335.4z M441.1,394.4c0,0.8-0.1,1.6-0.4,2.4
					c-0.5,1.4-1.4,2.8-2.8,4.1c-2.1,2.2-5,4.2-8.7,6.1c-2.8,1.1-5.3,2.1-7.7,3c-2.4,0.8-4.6,1.5-6.8,1.8c-1.1,0.1-2.3,0.2-3.5,0.2
					s-2.1,0.1-2.9,0.2c-0.2,0-0.4,0-0.7,0.1c-0.3,0-0.5,0.1-0.7,0.1c-2.2,0.4-3.9,0.7-5.1,0.9c-1.2,0.2-1.9,0.3-2.1,0.3
					c-1.5,0-3.3-0.2-5.4-0.7c-1.1-0.3-2.1-0.6-2.8-0.9c-0.7-0.3-1.1-0.8-1.1-1.3l-0.1-15.2v-0.8c0-0.5,0-1.2-0.1-2.1
					c0-0.9-0.1-1.9-0.2-3.1c-0.1-1.9-0.1-3.4-0.1-4.4v-1.9c0-4.3,0.2-7.7,0.7-10.4c0.2-0.8,1-1.5,2.3-1.8c0.2-0.1,0.6-0.2,1.1-0.4
					s1.4-0.4,2.6-0.7c2.5-0.7,4.9-1.1,7.3-1.4c0.5-0.1,1.1-0.2,1.8-0.2s1.6-0.2,2.4-0.4h-0.1c0.6-0.1,1.1-0.2,1.7-0.2
					c0.6,0,1.2-0.1,2-0.2c0.8-0.1,1.5-0.2,2.1-0.2c0.7,0,1.2-0.1,1.6-0.2c0.5-0.1,0.8-0.1,0.9-0.1h0.4c7,0,12.9,2.8,17.8,8.2
					C439,380.6,441.3,387.1,441.1,394.4z"/>
				<path class="st24" d="M565,413.1c-0.6-0.2-1.2-0.3-1.6-0.3c-0.3,0-0.7,0-1.2,0.1c-0.5,0-1.1,0.2-1.6,0.3
					c-0.4,0.1-0.7,0.2-1.1,0.3c-0.4,0.1-0.8,0.2-1.3,0.3c-3,0.9-5,1.3-5.9,1.3c-1.3,0.2-2.9,0.3-4.6,0.4c-1.7,0.1-3.6,0.1-5.7,0.1
					c-3.3,0-5.5-0.1-8.8-0.3c-3.2-0.2-6.4-0.5-9.5-0.8c-0.7-0.1-1.4-0.1-2.1-0.1h-1.8c-1.5-0.2-2.6-0.5-3.1-0.9
					c-0.6-0.5-0.9-0.9-0.9-1.2l-0.7-84.6c-0.7-4.8-2.9-7.2-6.7-7.2h-31.7v3.9c2.2,1.9,5.1,2.9,8.7,2.9c3.3,0.2,5.5,0.6,6.5,1.2
					c0.5,0.3,0.9,0.6,1.2,1c0.4,0.5,0.6,1,0.8,1.7c0,0.7,0,1.5,0.1,2.3c0,0.8,0.1,1.8,0.1,3c0,1.1,0,2.3-0.1,3.6
					c0,1.3-0.1,2.8-0.1,4.3c-0.1,2.6,0.1,4.6,0.5,6c0.5,1.4,0.9,2.4,1.3,2.8h-2.1v11.6c0,0.1,0,0.3,0.1,0.5c0,0.3,0.1,0.5,0.1,0.8
					c0.1,0.5,0.1,0.9,0.1,1.3v1.2c-0.1,0.5-0.2,1.1-0.4,2.1c-0.2,0.9-0.3,1.6-0.3,1.9v41c0,2.2,0.4,4.2,1.1,6h-0.1
					c1.2,3.5,3.2,5.2,6,5.2h43.4c1,0,2.4-0.2,4.4-0.5c2-0.3,4.4-0.9,7.2-1.6c3.8-0.9,6.8-1.9,8.8-3c2-1.1,3.1-2.3,3.1-3.4v-2.3
					C566.4,413.6,565.7,413.3,565,413.1z"/>
				<path class="st24" d="M668.2,366.5c-2.1-5-5.3-9.8-9.4-14.2c-8.5-9.1-18.8-13.6-30.9-13.6c-3.1,0-7.4,0.5-12.8,1.5
					c-1.5,0.3-2.8,0.6-4.1,1c-2.7,0.6-5,1.3-7,1.8c-8.2,3-14.8,7.8-19.7,14.2c-1.2,1.7-2.4,3.6-3.4,5.8c-1,2.2-1.9,4.5-2.7,6.9
					c-0.8,2.4-1.3,4.9-1.7,7.4c-0.4,2.5-0.6,4.9-0.6,7.2c0,2.8,0.4,5.8,1.1,9.1c0.7,1.8,1.3,3.3,1.8,4.6c0.5,1.3,0.9,2.3,1.1,2.9
					c2.9,6.8,6.8,12.2,11.9,16.3c1.2,1,2.4,1.8,3.7,2.7c6.8,4.3,15.3,6.4,25.5,6.4c21.1,0,36.8-8.8,47.2-26.3
					c2.3-3.8,3.5-9.4,3.5-16.6C671.6,377.4,670.4,371.8,668.2,366.5z M652.2,396.8c-0.1,0.4-0.2,0.9-0.4,1.3
					c-0.1,0.4-0.3,0.9-0.5,1.3c-0.4,1-1,2.1-1.7,3.3c-5.4,9.7-12.8,14.6-22.1,14.6c-5.4,0-10.6-1.8-15.7-5.3
					c-1.1-0.7-2.1-1.6-3.2-2.5c-3.1-2.7-5.8-5.7-7.9-9c-2.1-3.3-3.6-6.9-4.4-10.8c-0.4-1-0.8-1.8-1-2.5c-0.2-0.7-0.4-1.2-0.5-1.3
					c-0.6-2.1-0.9-4.3-0.9-6.5c0-0.4,0-0.7,0.1-0.9c0.1-0.3,0.1-0.6,0.2-0.9c0-0.3,0-0.5,0.1-0.8c0-0.3,0.1-0.6,0.2-0.9
					c0-0.2,0-0.4,0.1-0.6c0-0.2,0.1-0.4,0.1-0.6c0.1-0.6,0.1-1.3,0.1-1.9v-1.6c0.3-0.9,0.7-1.7,0.9-2.4v0.1l0.7-1.2
					c0.9-3.1,2.2-6,4-8.6c1.7-2.6,3.8-4.8,6.1-6.5c2.1-1.5,4.4-2.7,6.8-3.5c0.8-0.3,1.6-0.5,2.4-0.7c1.6-0.4,3.3-0.5,5-0.5
					c2.7,0,5.6,0.8,8.8,2.3c6.3,3,11.5,7.8,15.4,14.7c1.3,2.2,2.5,5,3.7,8.2c1.2,3.3,2.4,6.9,3.7,10.9c0.1,0.3,0.1,2.4,0.1,6.3
					C652.3,394.2,652.3,396.3,652.2,396.8z"/>
				<path class="st24" d="M770.4,352.3c-8.5-9.1-18.8-13.6-30.9-13.6c-3.1,0-7.4,0.5-12.8,1.5c-4.5,1-8.2,1.9-11.1,2.8c0,0,0,0,0,0
					c-8.2,3-14.7,7.7-19.6,14.1c-1.3,1.7-2.4,3.6-3.4,5.8c-1,2.2-1.9,4.5-2.7,6.9c-0.8,2.4-1.3,4.9-1.7,7.4
					c-0.4,2.5-0.6,4.9-0.6,7.2c0,2.8,0.3,5.8,1.1,9.1c0.7,1.8,1.3,3.3,1.8,4.6c0.5,1.3,0.9,2.3,1.1,2.9c3.6,8.4,8.8,14.7,15.6,19
					c6.8,4.3,15.3,6.4,25.5,6.4c10.9,0,20.4-2.3,28.4-7c7.5-4.4,13.8-10.8,18.8-19.3c2.3-3.8,3.5-9.4,3.5-16.6
					C783.2,371.7,778.9,361.4,770.4,352.3z M763.8,396.8c-0.2,0.8-0.5,1.7-0.9,2.7c-0.4,1-1,2.1-1.7,3.3
					c-4.4,7.9-10.1,12.6-17.1,14.1c-1.6,0.3-3.2,0.5-4.9,0.5c-6.5,0-12.8-2.6-18.8-7.8c-3.1-2.7-5.8-5.7-7.9-9
					c-2.1-3.3-3.6-6.9-4.4-10.8c-0.4-1-0.8-1.8-1-2.5c-0.2-0.7-0.4-1.2-0.5-1.3c-0.6-2.1-0.9-4.3-0.9-6.5c0-0.4,0-0.7,0.1-0.9
					c0-0.3,0.1-0.6,0.2-0.9c0-0.3,0-0.5,0.1-0.8c0-0.3,0.1-0.6,0.2-0.9c0-0.2,0-0.4,0.1-0.6c0-0.2,0.1-0.4,0.1-0.6
					c0.1-0.6,0.1-1.3,0.1-1.9v-1.6c0.4-0.9,0.7-1.7,0.9-2.4v0.1l0.7-1.2c0.9-3.1,2.2-6,3.9-8.6c1.7-2.6,3.8-4.8,6.1-6.5
					c2.1-1.5,4.4-2.7,6.8-3.5c2.4-0.8,4.8-1.2,7.4-1.2c1.9,0,4,0.4,6.3,1.2c0.8,0.3,1.7,0.6,2.5,1c6.3,3,11.4,7.8,15.4,14.7
					c1.2,2.2,2.5,5,3.7,8.2c1.2,3.3,2.4,6.9,3.7,10.9c0.1,0.3,0.1,2.4,0.1,6.3C763.9,394.2,763.9,396.3,763.8,396.8z"/>
				<path class="st24" d="M1010.8,376.6c-11.7-14-23.4-28.1-35-42.3c0.3-0.4,0.5-0.7,0.7-1c0.2-0.3,0.5-0.8,1.1-1.5
					c0.6-0.8,1.3-1.7,1.8-2.7c0.6-1,1.3-2.1,2.2-3.3c1.4-2.1,2.5-3.8,3.3-5.2c0.8-1.4,1.2-2.4,1.2-3.1c0-3.1-2.8-6.8-8.3-11.1
					c-2.6-2-4.8-3.6-6.6-4.8c-1.8-1.2-3.5-1.7-4.9-1.7c-0.6,0-1.2,0.2-1.8,0.5c-4.1,2.3-9.9,11.6-17.5,27.9
					c-2.6,5.9-5.2,11.8-7.8,17.8c-2.6,5.9-5.3,11.8-8,17.6c-0.5,1.3-1,2.5-1.5,3.7c-0.5,1.2-1,2.5-1.5,3.7c-1,1.9-2.1,3.5-3.3,4.6
					c-1.7-1.4-4.1-3.7-7.3-6.9c-3.2-3.2-7.6-7.7-13.2-13.4c-13-13.2-19.6-20.7-19.6-22.7c0-0.4,1.3-2.6,3.8-6.7h-0.2
					c2.9-5.1,4.4-8.1,4.4-8.8c0-2.4-2.4-4.9-7.3-7.5c-2.2-1.2-4.2-2-6-2.5c-1.8-0.5-3.3-0.8-4.6-0.8c-9.6,0-24.4,20.4-44.3,61.2
					v-0.2c-8.7,17.5-15.2,30.1-19.4,37.6c-0.4,0.8-0.9,1.2-1.5,1.2h-4c-0.9,0.1-1.6,0.2-2.1,0.2h-1.5l-1-0.2c-2.4,0-4.3,1.1-5.8,3.3
					c2.3,1.5,4.5,3,6.5,4.4c2,1.4,4,2.8,5.8,4.2l-0.2-0.2c0.1,0.1,0.3,0.2,0.4,0.3c0.1,0.1,0.3,0.2,0.4,0.3c1.2,1.2,2.2,2,3.3,2.5
					c0.6,0.4,1.2,0.8,1.6,1.3c0.5,0.4,1,0.9,1.6,1.3c1.5,1.1,4,1.7,7.5,1.7c5,0,8.3-0.8,10-2.5c2.9-2.9,5.9-6.5,8.7-10.7
					c2.9-4.2,5.8-8.9,8.7-14.1c2-4.5,4.2-8.6,6.3-12.5c1-2.2,2.1-4.3,3.2-6.2c1.1-2,2.2-4.1,3.4-6.2l1.7-4l4-8.4v0.2
					c3.3-6.8,5.7-10.2,7.1-10.2c1,0,8.1,7.2,21.1,21.5c13.6,14.7,20.3,23.7,20.3,27.1c0,0.1-0.1,0.3-0.3,0.7
					c-0.4,0.8-1.2,2.3-2.4,4.5c-2,3.2-3.1,5.4-3.1,6.5c0,3,1.9,5.8,5.8,8.5c3.7,2.3,7,3.5,9.8,3.5c1.7,0,3.2-0.2,4.4-0.7
					c1.5-0.6,2.7-1.5,3.5-2.8c3.7-7,7-13.6,9.8-19.7c2.8-6.1,5.2-11.8,7.3-17.2c8.5-21.8,13.7-32.6,15.7-32.6c1,0,5.4,4.6,13,13.8
					c3.3,4.1,6,7.4,8.1,10c2,2.6,3.5,4.5,4.4,6h0.2c1.9,2.9,3.6,5.7,5.2,8.2c1.5,2.5,3,4.8,4.4,6.8c0.9,1.4,1.6,2.7,2.2,3.7
					c0.6,1.1,1.2,2.1,1.8,3c0.6,1.4,1.3,2.9,1.9,4.5c0.6,1.6,1.3,3.5,1.9,5.7v-0.2c0.3,0.9,0.3,2.1,0,3.6c-0.1,0.9-0.2,1.8-0.1,2.8
					c0.1,1,0.1,1.6,0.1,1.8c3.8,2.3,7.8,4,12,5c4.2,1,8.4,1.5,12.8,1.5c3.7,0,7.3-0.8,10.8-2.5V419
					C1034.2,404.8,1022.5,390.7,1010.8,376.6z"/>
				<path class="st24" d="M577.3,281.7c-1.4-1.3-2.9-2-4.7-2c-0.7,0-1.4,0-2.2,0.1c-0.8,0.1-1.7,0.2-2.6,0.3l-4.7,0.8
					c-0.5,0.1-0.9,0.1-1.4,0.2s-0.9,0.1-1.3,0.2c-0.1,0-0.3,0-0.5-0.1c-0.2-0.1-0.3-0.2-0.5-0.3c-0.5-0.3-0.9-0.4-1.3-0.4l-0.6,0.6
					c0.1,0.7,0.4,1.3,0.9,1.9c1.2,1.2,2.6,1.8,4.2,1.8c0.7,0,1.5,0,2.3-0.1c0.8-0.1,1.7-0.2,2.7-0.3c0.5-0.1,0.9-0.1,1.3-0.2
					c0.4,0,0.8-0.1,1.3-0.2c0.4-0.1,0.8-0.1,1.2-0.2c0.4,0,0.8-0.1,1.2-0.2c0.6-0.1,1.1-0.1,1.5-0.2c0.4,0,0.9-0.1,1.3-0.2
					c0.2,0,0.3,0.1,0.5,0.1c0.2,0,0.4,0.1,0.7,0.2h-0.1c0.3,0.2,0.6,0.3,0.8,0.3h0.6l0.5-0.5C578,282.4,577.7,281.9,577.3,281.7z"/>
				<path class="st24" d="M779.2,281.7c-1.4-1.3-2.9-2-4.7-2c-0.7,0-1.4,0-2.2,0.1c-0.8,0.1-1.7,0.2-2.6,0.3l-4.7,0.8
					c-0.5,0.1-0.9,0.1-1.4,0.2c-0.5,0.1-0.9,0.1-1.3,0.2c-0.1,0-0.3,0-0.4-0.1c-0.2-0.1-0.3-0.2-0.5-0.3c-0.5-0.3-0.9-0.4-1.3-0.4
					l-0.6,0.6c0.1,0.7,0.3,1.3,0.8,1.9c1.2,1.2,2.6,1.8,4.2,1.8c0.7,0,1.5,0,2.3-0.1c0.8-0.1,1.7-0.2,2.7-0.3
					c0.5-0.1,0.9-0.1,1.3-0.2c0.4,0,0.8-0.1,1.3-0.2c0.4-0.1,0.8-0.1,1.2-0.2c0.4,0,0.8-0.1,1.2-0.2c0.6-0.1,1.1-0.1,1.5-0.2
					c0.5,0,0.9-0.1,1.3-0.2c0.2,0,0.3,0.1,0.5,0.1c0.2,0,0.4,0.1,0.7,0.2h-0.1c0.3,0.2,0.6,0.3,0.8,0.3h0.6l0.5-0.5
					C779.9,282.4,779.6,281.9,779.2,281.7z"/>
				<path class="st24" d="M637.1,252c-0.4,0-1,0-1.8,0.1s-1.6,0.1-2.5,0.3l-24.1-0.2c-0.4,0.1-0.8,0.1-1.2,0.2
					c-0.4,0-0.8,0.1-1.2,0.1c-1,0.1-2,0.3-2.8,0.4c-0.8,0.1-1.6,0.2-2.2,0.3c-0.8,0.2-1.8,0.4-2.9,0.7c-1.1,0.3-2.4,0.7-4,1.3
					c-0.9,0.3-1.8,0.7-2.5,1.1c-1.6,0.9-2.4,1.7-2.4,2.4c0,0.8,0.6,1.2,1.9,1.2c0.4,0,0.8-0.1,1.1-0.2c0.4-0.1,0.6-0.2,0.8-0.3
					c0.1,0,0.1,0,0.1,0c2.1-0.3,3.8-0.5,5.3-0.6c1.4-0.2,2.6-0.2,3.5-0.2c0.7,0,1.3,0,1.7,0c0.4,0,0.7,0,0.9,0.1
					c0.4,0.1,0.7,0.3,1,0.5c0.3,0.2,0.4,0.5,0.5,0.8c0.2,0.4,0.3,0.8,0.3,1.3c0,0.4-0.1,1-0.3,1.8c-0.1,0.7-0.2,1.1-0.2,1.3v16.4
					c0,2,0,3.8,0.1,5.4c0,1.7,0.1,3.2,0.3,4.6c0.2,1.4,0.3,2.6,0.5,3.7c0.1,1,0.2,1.9,0.3,2.6c0,0.2,0.3,0.4,0.7,0.8
					c0.4,0.3,0.8,0.5,1.2,0.5c1.2,0,2.6-0.5,4.4-1.4c0.8-0.4,1.5-0.9,2.2-1.3c0.7-0.4,1.3-0.9,2-1.5c1.5-1.2,2.2-2,2.2-2.4
					c0-0.7-0.3-1.2-1-1.5c-0.2-0.1-0.4-0.1-0.6-0.1c-0.2,0-0.3,0-0.3-0.1c-0.2,0-0.3-0.1-0.4-0.1c-0.1,0-0.2-0.1-0.3-0.1
					c-0.5-0.2-0.8-0.3-0.8-0.5v-27.2c0-1.9,0.1-3,0.3-3.2c0.2-0.2,0.4-0.4,0.7-0.4c0.6-0.2,1.1-0.3,1.6-0.4c0.5-0.1,0.9-0.2,1.3-0.3
					h4.7c0,0,0.1,0,0.2,0c0.1,0,0.2,0,0.3,0h0.4c0.2,0,0.4,0,0.6,0c0.8-0.1,1.4-0.2,1.6-0.2c1.5-0.1,2.8-0.2,4.1-0.3
					c1.3-0.1,2.4-0.3,3.5-0.4c0.7-0.2,1.4-0.5,2.2-1.1c0.9-0.6,1.4-1.3,1.4-2C639.4,252.6,638.6,252,637.1,252z"/>
				<path class="st24" d="M695.8,276.5c-0.3-1.5-0.8-2.7-1.4-3.9c-0.9-1.5-2-2.7-3.4-3.6c-1.4-0.9-3-1.3-4.7-1.3
					c-2.8,0-5.6,0.7-8.3,2.1c-0.9,0.5-1.8,1-2.8,1.7c-1,0.6-2.1,1.4-3.2,2.3c-1.7,1.3-2.5,2-2.6,2c-0.1,0-0.1,0-0.1-0.1l-0.3-1
					l0.2-18.5c0-1.2-0.6-1.8-1.8-1.8c-0.4,0-1.4,0.3-2.8,1h0c-1.3,0.7-2.4,1.2-3.3,1.7c-1,0.5-1.8,0.8-2.4,1.1
					c-2.3,1.1-3.5,2-3.5,2.8c0,0.8,0.6,1.3,1.8,1.3c0.3,0,0.6-0.1,1-0.2s0.8-0.3,1.3-0.5l0.9-0.5c0.1-0.1,0.3-0.1,0.3-0.2
					c0,0,0,0.1,0,0.1c0,0.1,0,0.2,0.1,0.2l0.1,1.1v4c0,1.5,0,3.1,0,4.7c0,1.6,0,3.2,0,4.8v4c0,0.3-0.1,0.6-0.1,1.1c0,0.5,0,1,0,1.6
					s0,1.1,0,1.7v1.6l-0.3,12.3c0,0.6,0.2,1,0.7,1.4c0.4,0.3,0.9,0.5,1.5,0.5c0.1,0,0.5-0.1,1.1-0.3c0.6-0.2,1.4-0.5,2.4-0.9
					c1-0.4,1.9-0.8,2.6-1.1c0.7-0.3,1.1-0.6,1.4-0.8c0-0.6,0-1-0.1-1.1c-0.2-0.3-0.3-0.5-0.4-0.7c-0.1-0.2-0.2-0.3-0.3-0.4
					c-0.1-0.3-0.1-0.6-0.1-1c0-0.4-0.1-0.8-0.1-1.3h-1c0.1,0,0.3-0.3,0.6-0.7c0.3-0.4,0.5-1,0.5-1.7c0.1-0.7,0.1-1.4,0.1-1.9
					c0-0.5,0-0.9,0-1.1c0,0-0.1-1.6-0.1-4.8c0.2-0.9,0.8-1.9,1.8-3s2.3-2.3,3.9-3.4c3.3-2.3,6-3.5,7.9-3.5c2.3,0,4.1,1.7,5.3,5
					c0.5,1.2,0.8,2.4,1,3.6c0.2,1.2,0.3,2.4,0.3,3.5c0,2.2-0.5,4.4-1.4,6.7s-2.3,4.5-4.1,6.6c-0.6,0.7-1,1.3-1.3,1.8
					c-0.3,0.5-0.4,0.9-0.4,1.3c0,0.4,0.2,0.7,0.6,1c1,0.1,2.1-0.4,3.3-1.5h0c1.4-1.1,2.6-2.3,3.7-3.6c1.1-1.3,2-2.6,2.9-4h-0.1
					c0.4-0.6,0.7-1,1-1.5c0.3-0.4,0.5-0.7,0.7-1c0.5-1.2,0.8-2.1,1.2-2.9c0.3-0.8,0.5-1.4,0.7-1.7c0.1-0.1,0.1-0.2,0.1-0.3
					c0.3-1,0.4-2.5,0.4-4.5C696.3,279.5,696.2,278,695.8,276.5z"/>
				<path class="st24" d="M742.2,292.3c-0.4,0-1.1,0.2-2.1,0.6c-0.2,0.1-0.4,0.2-0.7,0.3c-0.5,0.3-0.9,0.4-1.2,0.5
					c-2.8,0.7-4.5,1-5,1c-1.9,0-3.8-0.7-5.8-2h0.1c-2.2-1.5-3.5-3.3-3.7-5.3c0-0.1-0.1-0.3-0.1-0.5c0-0.2,0-0.3-0.1-0.5
					c-0.1-0.3-0.1-0.5-0.1-0.7c0-0.2,0-0.4-0.1-0.6v-0.1c0,0,0-0.2,0-0.3c0-0.1,0-0.2,0-0.3c0-0.1,0-0.3,0-0.4
					c0.2-0.1,0.7-0.1,1.4-0.1h0.1c0.6,0,1.1-0.1,1.6-0.1c0.5,0,0.8,0,1-0.1l7.5-0.1c0.4,0,0.9,0.2,1.7,0.6c0.8,0.5,1.4,0.8,1.6,0.8
					c0.4,0,0.7-0.1,1-0.2c0.1-0.1,0.4-0.2,0.7-0.4c0.3-0.2,0.7-0.4,1.1-0.7c1-0.7,1.6-1.4,1.6-2c0-1.2-1.1-1.8-3.3-1.8h-7.5
					c0,0-0.1,0-0.2,0c-0.1,0-0.1,0-0.2,0h-0.3c-0.1,0-0.3,0-0.4,0c-0.3,0-0.5-0.1-0.7-0.1c-0.2,0-0.3,0-0.4,0h-5.2
					c-0.6,0-0.9-0.3-0.8-1c0-0.2,0.2-0.7,0.7-1.6c0.5-0.9,1.1-1.8,1.8-2.6c0.7-0.8,1.5-1.5,2.3-2c1.5-1,3.1-1.5,4.8-1.5
					c0.7,0,1.7,0.2,2.9,0.5c1.3,0.4,2.1,0.7,2.5,1h-0.1c0.2,0.1,0.4,0.3,0.5,0.5c0.2,0.2,0.3,0.5,0.4,0.8c0.2,0.7,0.7,1.1,1.4,1.1
					c0.7,0,1.4-0.3,2.1-1c0.8-0.7,1.2-1.4,1.2-2.1c0-1.7-1.4-3-4.2-3.8c-1-0.3-1.9-0.5-2.9-0.6c-1-0.1-2-0.2-3-0.2
					c-1.8,0-3.6,0.2-5.4,0.7c-0.8,0.2-1.5,0.5-2.1,0.7c-0.7,0.2-1.1,0.4-1.3,0.5c-0.8,0.4-1.5,0.8-2.3,1.3c-0.8,0.5-1.4,1-2,1.5
					c-2,1.8-3.4,4-4.3,6.7h0.1c-0.4,1-0.6,1.9-0.8,2.7c-0.2,0.8-0.2,1.6-0.2,2.3c0,2.6,0.5,5.1,1.7,7.3c0.6,1.3,1.5,2.5,2.6,3.6
					c1.1,1,2.3,1.9,3.6,2.5c1.1,0.5,1.9,0.8,2.6,1.1c0.6,0.3,1,0.5,1.1,0.5c1.2,0.3,2.8,0.5,4.7,0.5c1.1,0,2-0.1,2.8-0.4
					c1.2-0.4,2.2-0.8,3.1-1.1c0.9-0.3,1.7-0.7,2.3-1c0.3-0.2,0.6-0.3,0.8-0.5c0.3-0.2,0.6-0.4,0.9-0.6c0.5-0.4,0.8-0.8,1-1.1
					c0.2-0.3,0.3-0.6,0.3-0.8C743.3,292.7,743,292.3,742.2,292.3z"/>
			</g>
			<g>
				<path class="st25" d="M664.1,383.4c0,7.2-1.3,10.9-2.4,12.8c-0.8,1.4-1.7,2.8-2.6,4.1c0.2-0.6,0.4-1.2,0.5-1.8l0-0.2
					c0.2-0.8,0.3-1.4,0.3-8c0-6.7-0.1-7.4-0.5-8.5c-1.3-4.1-2.6-7.9-3.8-11.2c-1.3-3.6-2.7-6.7-4.2-9.3c-2.8-5-6.3-9.2-10.3-12.5
					c4.5,1.9,8.5,4.8,12.2,8.8C660.5,365.1,664.1,373.6,664.1,383.4z"/>
				<path class="st25" d="M605,416.3c-2-0.8-3.9-1.7-5.6-2.8c-5.5-3.5-9.7-8.6-12.7-15.6c-0.1-0.3-0.4-1-1-2.6
					c-0.4-1.2-1-2.5-1.6-4.1c-0.5-2.5-0.8-4.9-0.8-6.9c0-1.9,0.2-3.9,0.5-6c0.3-2.1,0.8-4.2,1.5-6.3c0.7-2.1,1.4-4.1,2.3-6
					c0.8-1.7,1.7-3.2,2.6-4.5c0.1-0.1,0.2-0.3,0.3-0.4l-1.8,4.9c-0.3,0.7-0.6,1.4-0.9,2.3l-0.5,1.3v3c0,0.3,0,0.5-0.1,0.8l-0.1,0.5
					v0.1c0,0.2,0,0.3-0.1,0.5c-0.1,0.3-0.1,0.6-0.2,0.8c-0.1,0.3-0.1,0.7-0.1,1c-0.1,0.3-0.1,0.5-0.1,0.7c-0.1,0.7-0.2,1.4-0.2,2.2
					c0,2.9,0.4,5.8,1.2,8.7l0.2,0.6l0.2,0.3c0,0.1,0.1,0.3,0.2,0.5v8.3l1.7-3c1.1,3.6,2.6,6.9,4.6,10c2.5,3.9,5.7,7.5,9.3,10.6
					C604.3,415.7,604.7,416,605,416.3z"/>
				<path class="st25" d="M716.7,416.3c-2-0.8-3.9-1.7-5.6-2.8c-5.5-3.5-9.7-8.6-12.7-15.6c-0.2-0.4-0.5-1.1-1-2.6
					c-0.4-1.2-1-2.5-1.6-4.1c-0.5-2.5-0.8-4.9-0.8-6.9c0-1.9,0.2-3.9,0.5-6c0.3-2.1,0.8-4.2,1.5-6.3c0.7-2.1,1.4-4.1,2.3-6
					c0.8-1.7,1.7-3.2,2.6-4.5c0.1-0.1,0.2-0.3,0.3-0.4l-1.8,4.9c-0.3,0.7-0.5,1.4-0.9,2.2l-0.5,1.3v3c0,0.3,0,0.5-0.1,0.8l-0.1,0.5
					v0.1c0,0.2,0,0.3-0.1,0.5c-0.1,0.3-0.1,0.6-0.2,0.9c-0.1,0.3-0.1,0.7-0.1,1c-0.1,0.3-0.1,0.5-0.1,0.7c-0.1,0.7-0.2,1.4-0.2,2.2
					c0,2.9,0.4,5.8,1.2,8.7l0.2,0.6l0.2,0.3c0.1,0.1,0.1,0.3,0.2,0.5v8.3l1.7-3c1.1,3.5,2.6,6.9,4.6,10c2.5,3.9,5.6,7.5,9.3,10.6
					C715.9,415.7,716.3,416,716.7,416.3z"/>
				<path class="st25" d="M775.7,383.4c0,7.2-1.3,10.9-2.4,12.8c-0.8,1.4-1.7,2.8-2.6,4.1c0.2-0.6,0.4-1.2,0.5-1.8l0-0.2
					c0.2-0.8,0.3-1.4,0.3-8c0-6.7-0.1-7.4-0.5-8.6c-1.3-4.1-2.6-7.9-3.8-11.2c-1.3-3.6-2.7-6.7-4.2-9.3c-2.9-5-6.3-9.2-10.3-12.5
					c4.5,1.9,8.5,4.8,12.2,8.8C772.2,365.1,775.7,373.6,775.7,383.4z"/>
				<path class="st25" d="M1035.8,418.6c-0.2,0-0.5,0-0.7,0c-3.7,0-7.4-0.4-11-1.3c-2.1-0.5-4.2-1.3-6.2-2.2
					c0.3-2.2,0.1-4.1-0.3-5.8l-5.5-19.4C1019.9,399.3,1027.9,408.9,1035.8,418.6z"/>
				<path class="st25" d="M1002.8,378.8v2.5c-1.1-1.8-2.4-3.7-3.7-5.8l-2.2-3.4h-0.4c-0.7-0.9-1.5-2-2.4-3.1
					c-2.1-2.6-4.8-5.9-8.2-10.1c-12.4-14.9-14.8-16.5-18.8-16.5c-5.8,0-8.8,5.4-12.2,12.4c-2.7,5.7-6.2,13.9-10.5,25.1
					c-2,5.2-4.4,10.8-7.1,16.7c-2.6,5.7-5.8,12-9.2,18.6c-0.3,0.1-0.8,0.2-1.6,0.2c-0.6,0-2.4-0.2-5.7-2.2c-1.2-0.9-1.8-1.5-2.1-1.9
					c0.3-0.6,0.8-1.5,1.6-2.8l0.2-0.4c2.9-5.3,3.6-6.6,3.6-8.8c0-4.2-1.7-9.8-22.3-32.1c-6.6-7.2-11.7-12.7-15.3-16.3
					c-5.3-5.4-7.6-7.5-11-7.6v-9.6h1.5c0.2,3.5,2.4,7.6,21.7,27.1c5.8,5.9,10.2,10.3,13.3,13.5c3.4,3.4,5.9,5.8,7.8,7.3l5.3,4.5
					l4.9-4.9c1.7-1.7,3.2-3.8,4.6-6.4l0.3-0.8c0.5-1.2,1-2.4,1.5-3.6s1-2.4,1.5-3.7c2.7-5.7,5.3-11.6,7.9-17.5
					c2.6-5.9,5.2-11.8,7.8-17.7c7.4-15.9,11.6-21.5,13.4-23.5c0,0,0.1,0,0.1,0.1c1.6,1,3.6,2.4,5.9,4.3c3.1,2.5,4.5,4.1,5.1,5
					c-0.6,1.1-1.5,2.5-2.6,4.1c-1.1,1.4-1.9,2.7-2.7,4c-0.3,0.6-0.7,1.1-1,1.6l-0.5,0.6c-0.4,0.6-0.7,1-0.9,1.2
					c-0.3,0.3-0.5,0.8-0.9,1.3l-3.1,4.6l3.5,4.3C980.7,352.1,991.7,365.5,1002.8,378.8z"/>
				<path class="st25" d="M884.3,317.8c-0.6,1-1.4,2.5-2.5,4.5l-6.2,10.7v-5.5l-18.3,38.3l-1.7,4c-1.1,2-2.1,4-3.2,5.9
					c-1.1,2-2.2,4.2-3.3,6.4c-2.2,3.8-4.3,8.1-6.4,12.5c-2.8,4.9-5.5,9.4-8.2,13.2c-2.5,3.6-5.1,6.8-7.6,9.4
					c-0.4,0.1-1.8,0.6-4.9,0.6c-2,0-2.9-0.3-3.1-0.3l-0.5-0.3c-0.1-0.1-0.2-0.1-0.2-0.1c-0.9-0.9-1.9-1.7-3.1-2.4l-0.5-0.3
					c0,0-0.4-0.2-1.3-1.1c-0.1-0.1-0.1-0.1-0.2-0.2c1.9-0.8,3.5-2.3,4.6-4.4c1.5-2.7,3.3-5.9,5.3-9.8v1.2l14.2-29.1
					c26.6-54.3,36.6-56.9,37.6-57c0.3,0,1,0,2.5,0.5c1.3,0.4,2.8,1,4.5,1.9C882.9,317,883.7,317.4,884.3,317.8z"/>
				<path class="st25" d="M441.6,357v3.3h-17c-1.7-0.5-3.5-0.8-5.4-0.9l0.9-0.2l0.5-0.1c5.6-1.8,10.3-4.3,14.2-7.5l0.5,0.9
					C436.5,354.9,438.8,356.5,441.6,357z"/>
				<path class="st25" d="M395.9,420.8c-1.6,0.2-3.2,0.3-4.8,0.4c-3.3,0.2-6.8,0.3-10.4,0.3c-5.7,0-8.4-0.3-9.6-0.6
					c-0.1-0.3-0.3-0.7-0.4-1.2c-0.6-2.1-0.9-4.8-1-8c0-3.3,0-6.8-0.1-10.6s-0.1-7.5-0.1-11.4l-0.1-11.4c-0.1-3.6-0.1-7.1-0.1-10.5
					v-2.8c0-1.2,0-2.6-0.2-4.1c0-0.7,0-1.5-0.1-2.3c0-0.5-0.1-1.1-0.1-1.7c0-0.9,0-1.8-0.1-2.7c0-0.4,0-0.8,0-1.3l0-0.5
					c-0.1-1.2-0.1-2.5-0.1-3.9v-3.6c0-0.2,0-0.5,0-0.9h8.4l-7.4-11.1c-0.1-0.4-0.4-1.3-0.8-3.1c-0.3-1.6-0.7-4.6-0.5-10.4v-0.3
					c0-0.5,0.1-1.5,0.4-3c0.1-0.3,0.1-0.6,0.2-0.9l0.4-0.7l0.3-0.3v-0.3l6.8-13.6c3.5-0.8,5-0.9,5.5-0.9c0,0,0,0.1,0,0.1
					c0,0.5-0.1,1.1-0.2,1.7l0,0.2c-0.1,1.3-0.2,2.4-0.2,3.5l-0.1,10.6c-0.1,1.3-0.2,4.5,2.2,7c1.1,1.2,2.6,2,4.1,2.4
					c-4,3.9-5.7,7.2-5.7,10.6V350c0,0.7,0.1,1.5,0.2,2.5c0,0.5,0.1,0.9,0.1,1.4v0.6l0.1,0.7v4.2l1.6,2c1.2,1.5,2.7,2.5,4.6,3
					c-4.1,1.9-5.3,5.3-5.6,6.7l-0.1,0.3c-0.6,3.1-0.8,6.9-0.8,11.7v1.8c0,1.2,0,2.8,0.2,4.8l0,0.2c0.1,1.1,0.1,2,0.2,2.8
					c0,0.7,0.1,1.3,0.1,1.7l0.1,16c0,3.5,2,6.6,5.4,8.1c1.2,0.5,2.5,1,4.1,1.4l0.2,0C393.8,420.4,394.9,420.6,395.9,420.8z"/>
				<path class="st25" d="M510.2,417.5h-8.5l-0.2-0.5c-0.3-0.9-0.5-2-0.5-3.2V373c0-0.2,0.1-0.5,0.1-0.8c0.2-0.9,0.3-1.6,0.4-2
					l0.1-0.7v-1.9c0-0.7,0-1.4-0.2-2.1c0-0.3-0.1-0.7-0.1-1v-3.7h6.7l0.4,51.6C508.4,413.5,508.7,415.5,510.2,417.5z"/>
				<path class="st25" d="M507.9,354.5l-6-6c0-0.1-0.1-0.2-0.1-0.4c0,0-0.3-0.9-0.2-3.5l0-0.3c0-1.5,0-2.8,0.1-4
					c0-1.4,0.1-2.7,0.1-3.8c0-1.3,0-2.4-0.1-3.4c0-0.7-0.1-1.3-0.1-1.9v-0.8l-0.2-0.8c-0.1-0.6-0.3-1.1-0.5-1.6h6.7
					c0,0.1,0.1,0.2,0.1,0.4L507.9,354.5z"/>
				<path class="st25" d="M456.8,381.4c0,7.3-3.2,13.8-9.8,19.7c1.1-2.1,1.6-4.4,1.7-6.7c0.2-9.1-2.7-17.3-8.6-24.3l-0.1-0.1
					c-0.4-0.5-0.9-1-1.3-1.4l13-2.9c0.5,0.8,1.1,1.6,1.6,2.4l2.1,3.4c0.2,0.4,0.3,0.7,0.3,0.7c0.4,2,0.7,3.8,0.9,5.3
					C456.7,379.2,456.8,380.5,456.8,381.4z"/>
				<path class="st25" d="M449.2,323.1c0,2.4,0,3.7-0.1,4.4c-0.6,1.2-1.3,2.5-2.1,3.9c-0.8,1.3-1.7,2.6-2.8,4l-0.5,0.5
					c-0.3,0.3-0.7,0.7-1,1.1c0-0.6,0-1.2,0-1.9c0-1.3-0.1-2.6-0.4-4c-0.2-1.1-0.5-2.3-0.8-3.5l-0.1-0.4
					c-5.3-16.6-16.5-19.2-22.8-19.3c-1.6,0-3.3,0.3-5.1,0.8c0.7-0.6,1.4-1.1,2.1-1.6c3.2-2.4,4.9-3.4,5.8-3.9l0.4-0.3
					c2-1.2,4.7-1.9,8.1-1.9c4.1,0,7.5,1.2,10.4,3.7c3.3,2.8,6.2,7.1,8.6,12.8c0,0.1,0.1,0.4,0.1,0.9
					C449.2,319.6,449.2,321.2,449.2,323.1z"/>
			</g>
		</g>
		<line class="st10" x1="420.7" y1="323" x2="420.7" y2="323"/>
		<line class="st10" x1="456.8" y1="344.5" x2="455.9" y2="344.8"/>
		<line class="st10" x1="442.1" y1="348.9" x2="441.1" y2="349.2"/>
		<line class="st10" x1="446.3" y1="420.3" x2="446.2" y2="420.2"/>
		<line class="st10" x1="440.7" y1="414.7" x2="440.5" y2="414.5"/>
		<line class="st10" x1="499.2" y1="425" x2="494.9" y2="431.3"/>
		<line class="st10" x1="615.6" y1="348.4" x2="615.5" y2="347.9"/>
		<line class="st10" x1="617.7" y1="357.8" x2="617.2" y2="355.7"/>
		<line class="st10" x1="611.9" y1="412.1" x2="610.9" y2="414.2"/>
		<line class="st10" x1="615.5" y1="403.9" x2="615" y2="405.1"/>
		<line class="st10" x1="655.8" y1="398.1" x2="651.8" y2="398.1"/>
		<line class="st10" x1="643.6" y1="398.1" x2="641" y2="398.1"/>
		<line class="st10" x1="610.9" y1="341.2" x2="610.9" y2="341.1"/>
		<line class="st10" x1="608" y1="334" x2="606.9" y2="331.1"/>
		<line class="st10" x1="668.2" y1="366.5" x2="666.9" y2="367.2"/>
		<line class="st10" x1="675.3" y1="362.6" x2="674.8" y2="362.8"/>
		<line class="st10" x1="592.6" y1="416.3" x2="591.7" y2="417.3"/>
		<line class="st10" x1="744.6" y1="417.8" x2="744.2" y2="416.9"/>
		<line class="st10" x1="741.1" y1="409.8" x2="740.1" y2="407.5"/>
		<line class="st10" x1="740.1" y1="346.2" x2="738.5" y2="349.1"/>
		<line class="st10" x1="734.8" y1="355.7" x2="733.7" y2="357.8"/>
		<line class="st10" x1="716.7" y1="345.2" x2="715.5" y2="342.9"/>
		<line class="st10" x1="712" y1="336.3" x2="710.5" y2="333.3"/>
		<line class="st10" x1="761" y1="419.3" x2="760.2" y2="417.4"/>
		<line class="st10" x1="764.2" y1="427.6" x2="763.7" y2="426.4"/>
		<line class="st10" x1="919.1" y1="400.3" x2="916.4" y2="399.9"/>
		<line class="st10" x1="582.2" y1="256.8" x2="582.2" y2="256.8"/>
		<path class="st26" d="M740.2,284.5"/>
		<g>
			<g>
				<path class="st23" d="M794,483.7c-0.5,0.8-1.1,1.7-1.8,2.7c-0.3,0.5-0.7,0.9-1.1,1.4L791,488c-0.4,0.5-1.1,1.3-1.9,2
					c-2.3,2.3-6.5,5.4-12.9,7l-0.1,0c-1.7,0.4-3.1,0.6-4.5,0.7c-0.9,0.1-1.7,0.1-2.5,0.1l-2,0l-6.8-0.1c-1.5,0-3.1-0.1-4.6-0.1
					c-19.5-0.5-44.3-2-70.5-4.2c-28.3-2.4-54.8-5.3-74.7-8.2l-8-1.2c-0.1,0-0.2,0-0.3,0c-0.1,0-0.2,0-0.2,0l-0.3,0
					c-0.4,0-0.9,0-1.4,0c-1.7,0.1-3.4,0.5-5,1.3c-0.3,0.2-0.7,0.3-1,0.5l-1.4,0.8c-1.2,0.7-2.2,1.1-3,1.5c-5.7,2.5-9.1,0.4-10.5-1
					c-1.5-1.4-3.5-4.6-0.5-9.8c0.5-0.8,1.1-1.7,1.8-2.7l0.2-0.3c0.3-0.4,0.6-0.9,1.1-1.3c0.5-0.6,1.1-1.3,1.9-2
					c2.4-2.3,6.6-5.3,12.9-6.9l0.1,0c1-0.2,2.6-0.6,4.4-0.8c0.7-0.1,1.3-0.1,1.9-0.1l0.8,0l4,0l4.8,0.1c20.2,0.4,46.8,2,75.1,4.3
					c28.2,2.4,54.8,5.3,74.7,8.2l8.3,1.3c0.2,0,0.5,0.1,0.7,0.1c0.4,0,0.9,0,1.4,0c2.1-0.1,3.8-0.8,4.8-1.3c0.4-0.2,0.7-0.4,1.1-0.6
					c0.5-0.3,1-0.6,1.5-0.9c1.1-0.6,2.1-1.1,3-1.5c5.7-2.5,9-0.4,10.5,1C795,475.4,797,478.6,794,483.7z"/>
			</g>
		</g>
		<g>
			<path class="st24" d="M788.5,478.3c0.3,0.3,0.1,1.1-0.6,2.3c-0.4,0.6-0.8,1.3-1.4,2.1c-0.3,0.4-0.6,0.8-1,1.3
				c-0.4,0.5-0.9,1-1.4,1.5c-2.1,2-5.4,4.2-9.8,5.2c-1.1,0.3-2.3,0.5-3.5,0.6c-0.6,0.1-1.2,0.1-1.9,0.1c-0.6,0-1.2,0-1.8,0
				c-2.2,0-4.4-0.1-6.8-0.1c-19.2-0.4-45.5-1.9-74.6-4.3s-55.3-5.4-74.2-8.1c-2.4-0.4-4.6-0.7-6.7-1c-0.5-0.1-0.9-0.1-1.4-0.2
				c-0.4,0-0.8-0.1-1.2-0.1c-0.8-0.1-1.6-0.1-2.4,0c-3.1,0.2-5.8,1-7.8,2c-0.5,0.3-1,0.5-1.5,0.8c-0.5,0.3-1,0.6-1.4,0.8
				c-0.9,0.5-1.7,0.9-2.4,1.2c-1.3,0.6-2.2,0.7-2.5,0.4s-0.1-1.1,0.6-2.3c0.4-0.6,0.8-1.3,1.4-2.1c0.3-0.4,0.6-0.8,1-1.3
				c0.4-0.5,0.9-1,1.4-1.5c2.1-2,5.4-4.1,9.8-5.2c1.1-0.3,2.3-0.5,3.5-0.6c0.6-0.1,1.2-0.1,1.9-0.1c0.6,0,1.2,0,1.8,0
				c2.2,0,4.4,0.1,6.8,0.1c19.2,0.4,45.5,1.9,74.6,4.3s55.3,5.4,74.2,8.1c2.4,0.4,4.6,0.7,6.7,1c0.5,0.1,0.9,0.2,1.4,0.2
				c0.4,0.1,0.8,0.1,1.2,0.1c0.8,0.1,1.6,0.1,2.4,0c3.1-0.2,5.7-1,7.8-2c0.5-0.2,1-0.5,1.5-0.8c0.5-0.3,1-0.6,1.4-0.8
				c0.9-0.5,1.7-0.9,2.4-1.2C787.3,478.1,788.2,478,788.5,478.3z"/>
		</g>
	</g>
</g>
<g id="wood__x26__plants" class="st0">
	<g id="wood_3_" class="st1">
		<g>
			<polygon class="st27" points="592.3,129.3 580.6,127.4 586.7,136.6 629.4,147.4 633.8,151.2 574,143 560.1,126.6 512.6,119.9 
				441.5,134.3 366.7,105.3 357.5,107.2 384,121.8 402.2,162.6 469.8,208.1 454.7,206.7 402.4,185 402.4,204.6 399.4,204.6 
				392.4,180.8 383.7,177.2 366.2,136 311.3,107.7 321.5,87.6 370.3,84.1 437,110.9 506.7,98.2 509.1,98.6 546,85.9 546.7,88.1 
				529.8,102.1 584.8,111.2 679.1,119.2 673.7,124 			"/>
		</g>
		<polygon class="st28" points="311.3,107.7 366.2,136 366.2,146.1 313.4,117.1 		"/>
		<polygon class="st17" points="383.7,177.2 366.2,136 366.2,146.1 383.7,187.8 		"/>
		<polygon class="st29" points="392.4,180.8 383.7,177.2 383.7,187.8 392.4,190 		"/>
		<polygon class="st17" points="399.4,204.6 392.4,180.8 392.4,190 399.4,208.7 		"/>
		<rect x="399.4" y="204.6" class="st28" width="3" height="4.1"/>
		<polygon class="st28" points="454.7,206.7 469.8,208.1 469.8,214 454.7,212.8 		"/>
		<polygon class="st17" points="402.4,185 454.7,206.7 454.7,212.8 402.4,191.8 		"/>
		<polygon class="st28" points="546.7,88.1 535.7,103.1 529.8,102.1 		"/>
		<polygon class="st28" points="679.1,119.2 679.1,121.8 674.4,126.2 673.7,124 		"/>
		<polygon class="st17" points="580.6,127.4 592.3,129.3 594.6,134.8 584.8,133.7 		"/>
		<polygon class="st30" points="673.7,124 592.3,129.3 594.6,134.8 674.4,126.2 		"/>
		<polygon class="st31" points="357.5,107.2 366.7,105.3 369,111.7 365.7,111.7 		"/>
		<polygon class="st32" points="441.5,134.3 366.7,105.3 369,111.7 441.5,139.6 		"/>
		<polygon class="st33" points="512.6,119.9 441.5,134.3 441.5,139.6 514.1,124 		"/>
		<polygon class="st17" points="560.1,126.6 512.6,119.9 514.1,124 560.1,131.1 		"/>
		<polygon class="st28" points="574,143 560.1,126.6 560.1,131.1 573.4,147.4 		"/>
		<polygon class="st28" points="633.8,151.2 573.4,147.4 574,143 		"/>
	</g>
	<g id="wood" class="st1">
		<g>
			<polygon class="st27" points="476.2,596.1 450.1,614.5 504.6,632.8 501.5,635.1 344.2,611.3 266,636.1 225.8,596 244.3,497.2 
				228.1,449.8 194.9,426.6 195.9,426 221,433.2 208.7,404.7 231,293.5 212.5,227.5 214,227.2 231.6,257 244.8,243.8 235.8,199.2 
				262.5,184.8 269.9,152.1 281.4,143.1 280.7,145.8 273,155 269.8,180.8 292.1,168.7 298.5,167.5 246.1,203.2 263.2,249.4 
				240.5,272.2 251.1,290.1 235.8,402.6 268.6,496.2 262.3,533.8 296.4,512.4 318,456.5 319.2,457.2 307,512.1 327.6,512.1 
				330.9,513.7 307.1,518.3 260.4,553.2 255.3,589 281.5,611.3 343.2,591.7 422.7,608.7 469.7,575.3 552.8,587.9 591.6,549.2 
				590.2,552.1 568.3,593 632.4,608.1 715.4,583.6 720.8,584.9 640.9,618.9 			"/>
		</g>
		<polygon class="st17" points="246.1,203.2 249.6,204.6 298.5,167.5 		"/>
		<polygon class="st17" points="280.7,145.8 273,155 274.5,156.6 		"/>
		<polygon class="st17" points="269.8,180.8 273,155 274.5,156.6 273,179.1 		"/>
		<polygon class="st34" points="246.1,203.2 249.6,204.6 268.1,250.7 263.2,249.4 		"/>
		<polygon class="st28" points="247,274.4 268.1,250.7 263.2,249.4 240.5,272.2 		"/>
		<polygon class="st17" points="251.1,290.1 240.5,272.2 247,274.4 258.5,291 		"/>
		<polygon class="st34" points="214,227.2 231.6,257 234.7,253.9 		"/>
		<polygon class="st34" points="195.9,426 218.8,428.3 221,433.2 		"/>
		<polygon class="st17" points="251.1,290.1 235.8,402.6 245.7,402.6 258.5,291 		"/>
		<polygon class="st29" points="268.6,496.2 235.8,402.6 245.7,402.6 280.3,496.2 		"/>
		<polygon class="st28" points="262.3,533.8 268.6,496.2 280.3,496.2 276,525.2 		"/>
		<polygon class="st17" points="319.2,457.2 314.5,512.1 307,512.1 		"/>
		<polygon class="st17" points="307.1,518.3 330.9,513.7 310.2,525.4 		"/>
		<polygon class="st17" points="260.4,553.2 307.1,518.3 310.2,525.4 271,560.5 		"/>
		<polygon class="st28" points="255.3,589 260.4,553.2 271,560.5 271.3,590.6 		"/>
		<polygon class="st34" points="255.3,589 271.3,590.6 300.4,605.3 281.5,611.3 		"/>
		<polygon class="st17" points="266,636.1 344.2,611.3 355.6,613.1 289.4,634.1 		"/>
		<polygon class="st28" points="450.1,614.5 467.9,614.5 494.8,598.7 476.2,596.1 		"/>
		<polygon class="st17" points="504.6,632.8 450.1,614.5 467.9,614.5 		"/>
		<polygon class="st34" points="591.6,549.2 568.3,593 579.9,595.8 		"/>
		<polygon class="st17" points="640.9,618.9 657.1,618.9 720.8,584.9 		"/>
	</g>
	<g id="wood_1_" class="st1">
		<g>
			<polygon class="st17" points="1215.3,335.1 1182,408 1151.6,426.4 1141.3,459.2 1139.4,449.7 1144.2,420.5 1177.7,401.1 
				1192.7,338 1164.6,298.7 1149.3,337.6 1148.9,333.5 1157.3,288.6 1146,269.4 1185.1,207.6 1139.3,141.9 1099.1,149.9 1063.9,131 
				1021.9,162.5 1020.7,157.8 1050.9,124 1041.3,116.9 976.2,149.9 885.6,115.2 882.4,110.3 975.3,131 1042.1,95.3 1101.6,128.5 
				1155.5,111.4 1207.2,205.5 1163,266.3 			"/>
		</g>
		<polygon class="st35" points="1099.1,149.9 1093.5,163.5 1134.2,157.1 1139.3,141.9 		"/>
		<polygon class="st27" points="1185.1,207.6 1139.3,141.9 1134.2,157.1 1178.4,218.1 		"/>
		<polygon class="st36" points="885.6,115.2 978,160 976.2,149.9 		"/>
		<polygon class="st27" points="1041.3,116.9 1041.7,130.2 1043.9,131.8 1050.9,124 		"/>
		<polygon class="st35" points="976.2,149.9 978,160 1041.7,130.2 1041.3,116.9 		"/>
		<polygon class="st35" points="1021.9,162.5 1062.8,142.6 1063.9,131 		"/>
		<polygon class="st36" points="1099.1,149.9 1093.5,163.5 1062.8,142.6 1063.9,131 		"/>
		<polygon class="st37" points="1207.2,205.5 1196,227.4 1166.4,270.7 1163,266.3 		"/>
		<polygon class="st27" points="1146,269.4 1143.2,284.3 1151.7,298.7 1157.3,288.6 		"/>
		<polygon class="st36" points="1148.9,333.5 1157.3,288.6 1151.7,298.7 		"/>
		<polygon class="st27" points="1164.6,298.7 1160.9,308 1185.1,342.8 1192.7,338 		"/>
		<polygon class="st36" points="1192.7,338 1177.7,401.1 1173.4,401.1 1185.1,342.8 		"/>
		<polygon class="st27" points="1144.2,420.5 1139.9,420.5 1173.4,401.1 1177.7,401.1 		"/>
		<polygon class="st36" points="1139.4,449.7 1139.9,420.5 1144.2,420.5 		"/>
	</g>
	<g id="wood_2_" class="st1">
		<g>
			<polygon class="st27" points="1103.8,582.8 1103.2,592.5 1053.3,602.1 1003.6,561.3 934.7,553.8 874.8,566.1 871.1,563 
				907.8,550.1 862,529.2 836.5,477.1 841.6,477.1 870.7,522.4 923.9,536.2 1009.8,540.7 1064.1,582.5 			"/>
		</g>
		<polygon class="st29" points="836.5,477.1 858.3,536.8 862,529.2 		"/>
		<polygon class="st36" points="907.8,550.1 862,529.2 858.3,536.8 893.5,555.1 		"/>
		<polygon class="st36" points="871.1,563 871.1,567.6 874.1,570.7 874.8,566.1 		"/>
		<polygon class="st29" points="934.7,553.8 874.8,566.1 874.1,570.7 934.7,563 		"/>
		<polygon class="st17" points="1003.6,561.3 1002.8,570.7 934.7,563 934.7,553.8 		"/>
		<polygon class="st28" points="1053.3,602.1 1003.6,561.3 1002.8,570.7 1052.2,611.6 		"/>
		<polyline class="st34" points="1103.2,592.5 1053.3,602.1 1052.2,611.6 1103.2,598.6 		"/>
	</g>
	<g id="plant_4_" class="st1">
		<g>
			<path class="st38" d="M247.4,614.6l-15.6-1l7.6-24.3l39.7-12.2l51.8-2.8l23.2-9.3l23.7-31.1l-23.1-51l11.2-2.4
				c42.8,0.5,72.6,1.6,81.4-0.7c10.6-4.6,40.3-13,58.3-19.7h2.2c-18.2,8-52,27.6-58.4,28.6c-8.9,1.5-26.4,3.6-41.3,3.8
				c-14,0.2-27.8,0.2-37.5,0.2l20.8,41.7l-28.6,41.9l-30.1,11.8l-50.5,4.7l-29.4,9.1L247.4,614.6z M467.8,485.8
				C467.8,485.8,467.8,485.8,467.8,485.8C467.8,485.8,467.8,485.8,467.8,485.8z M455.8,475.2C455.8,475.2,455.8,475.2,455.8,475.2
				C455.8,475.2,455.8,475.2,455.8,475.2z"/>
		</g>
		<polygon class="st39" points="231.9,613.6 235.6,617.3 249.4,619.6 247.4,614.6 		"/>
		<polygon class="st40" points="252.9,601.9 247.4,614.6 249.4,619.6 255.3,607.6 		"/>
		<polygon class="st41" points="282.3,592.8 252.9,601.9 255.3,607.6 285.3,598.6 		"/>
		<polygon class="st42" points="332.8,588.1 334.6,593.5 285.3,598.6 282.3,592.8 		"/>
		<polygon class="st40" points="362.8,576.3 332.8,588.1 334.6,593.5 362.8,582.1 		"/>
		<polygon class="st43" points="391.4,534.4 362.8,576.3 362.8,582.1 389.9,539.4 		"/>
		<polygon class="st44" points="354.7,482.9 377.8,533.8 374.7,537.9 355.5,489.8 		"/>
		<path class="st43" d="M370.6,492.7l78.8-4l-2,4.9c0,0-50.3,4.4-74.2,4.2L370.6,492.7z"/>
		<path class="st45" d="M447.4,493.6l2-4.9l34.6-16.8l-1,2.8C483,474.7,461.2,487.8,447.4,493.6z"/>
		<path class="st46" d="M507.8,460.1c0,0-21.9,9.9-23.8,11.8s-1,2.8-1,2.8s22.9-12.3,24.9-13.3V460.1z"/>
	</g>
	<g id="plant_3_" class="st1">
		<g>
			<polygon class="st38" points="956.6,274.7 958.7,268.9 984,236.6 985.4,212.5 1030.9,244.6 1022,178.8 1093.1,228.6 
				1082.1,168.4 1130.9,171 1169,171 1158.7,223.3 1140.5,236.6 1136.7,228.8 1147.9,217.5 1154.9,182.6 1130.4,182.6 1095.3,180.7 
				1105,247.6 1032.9,197.5 1042.4,260.8 991.6,228 991.6,241.7 			"/>
		</g>
		<polygon class="st40" points="1095.3,180.7 1154.9,182.6 1153.7,188.3 1096.4,188.3 		"/>
		<polygon class="st43" points="1136.7,228.8 1140.5,236.6 1138.6,241.1 1135.1,235 		"/>
		<polygon class="st40" points="1158.7,223.3 1140.5,236.6 1138.6,241.1 1157.4,228.8 		"/>
		<polygon class="st39" points="1082.1,168.4 1093.1,228.6 1087.6,224.7 1079.5,176 		"/>
		<polygon class="st40" points="1032.9,197.5 1105,247.6 1101.3,251.4 1034,204.5 		"/>
		<polygon class="st44" points="1022,178.8 1030.9,244.6 1026,241.1 1018.9,186.7 		"/>
		<polygon class="st43" points="991.6,228 1042.4,260.8 1039.5,263.7 991.6,233.4 		"/>
		<polygon class="st44" points="985.4,212.5 984,236.6 980.4,241.1 980.4,221.1 		"/>
		<polygon class="st45" points="956.6,274.7 991.6,241.7 991.6,248.1 962.1,277.5 		"/>
	</g>
	<g id="plant_2_">
		<g class="st1">
			<polygon class="st38" points="1086.9,572.6 1059.8,532.2 980.2,521.6 1005.1,490.4 936.9,454.4 931.4,445.9 1030.1,484.8 
				1012.4,506.9 1074,514.6 1104.6,570.4 			"/>
		</g>
		<polygon class="st47" points="931.4,445.9 934.2,460.6 936.9,454.4 		"/>
		<polygon class="st48" points="1005.1,490.4 936.9,454.4 934.2,460.6 999.6,497.4 		"/>
		<polygon class="st47" points="1030.1,484.8 1012.4,506.9 1020.2,507.6 		"/>
		<polygon class="st48" points="980.2,521.6 1059.8,532.2 1057.4,539.7 985.4,527.5 		"/>
		<polygon class="st49" points="1086.9,572.6 1059.8,532.2 1057.4,539.7 1084.4,579.9 		"/>
		<polygon class="st47" points="1104.6,570.4 1101.9,576.9 1084.4,579.9 1086.9,572.6 		"/>
	</g>
	<g id="plant_1_" class="st1">
		<g>
			<polygon class="st38" points="558.5,228.3 536.3,180.8 480.3,156.8 473.2,107.5 431.4,98.6 436.8,86.8 488,97.9 493.4,141.8 
				545.3,167.7 560.6,227.8 			"/>
		</g>
		<polygon class="st44" points="431.4,98.6 473.2,107.5 471.5,111.7 431.4,100.5 		"/>
		<polygon class="st40" points="480.3,156.8 473.2,107.5 471.5,111.7 477.8,163.6 		"/>
		<polygon class="st40" points="536.3,180.8 480.3,156.8 477.8,163.6 533.5,185 		"/>
		<polygon class="st45" points="558.5,228.3 536.3,180.8 533.5,185 		"/>
	</g>
	<g id="plant">
		<g class="st1">
			<polygon class="st38" points="820,298.2 820.2,290 849,220.7 820.7,177.3 859.6,158.9 839.6,96.3 859.7,91 886,164.2 
				844.1,185.6 869.2,221.5 			"/>
		</g>
		<polygon class="st50" points="837.2,107.6 839.6,96.3 859.6,158.9 852.1,162.5 		"/>
		<polygon class="st48" points="820.7,177.3 849,220.7 845.8,228.3 820.7,188.9 		"/>
		<polygon class="st48" points="886,164.2 883.5,173.1 849,192.6 844.1,185.6 		"/>
		<polygon class="st47" points="869.2,221.5 869.2,232.7 820,298.2 		"/>
	</g>
</g>
</svg>
