<svg id="Warstwa_2" data-name="Warstwa 2" xmlns="http://www.w3.org/2000/svg" xmlns:xlink="http://www.w3.org/1999/xlink" viewBox="0 0 352.27 498.49"><defs><style>.cls-1,.cls-14,.cls-15,.cls-3,.cls-4{stroke:#000;stroke-linejoin:round;stroke-width:0.5px;}.cls-2,.cls-3{fill:none;}.cls-4,.cls-7{fill:#fff;}.cls-5{isolation:isolate;}.cls-6{clip-path:url(#clip-path);}.cls-8{clip-path:url(#clip-path-2);}.cls-9{clip-path:url(#clip-path-3);}.cls-10{clip-path:url(#clip-path-4);}.cls-11{clip-path:url(#clip-path-5);}.cls-12{clip-path:url(#clip-path-6);}.cls-13{clip-path:url(#clip-path-7);}.cls-14{fill:#c61a27;}.cls-15{fill:#e02037;}</style><clipPath id="clip-path" transform="translate(-79.52 -6.92)"><path class="cls-1" d="M249.09,269.78l180.69-46.57,1.5,235.05-180.7,46.57Z"/></clipPath><clipPath id="clip-path-2" transform="translate(-79.52 -6.92)"><polygon class="cls-3" points="249.09 269.78 80.72 219.79 261.42 173.22 429.78 223.21 249.09 269.78"/></clipPath><clipPath id="clip-path-3" transform="translate(-79.52 -6.92)"><path class="cls-4" d="M204.61,187c32.45-7,82-7.28,110.71-.52s25.67,17.93-6.78,25-82,7.28-110.69.53S172.17,194,204.61,187Z"/></clipPath><clipPath id="clip-path-4" transform="translate(-79.52 -6.92)"><path class="cls-2" d="M335,197.66l.39,20c.1,4.89-8.85,9.93-26.46,13.76-32.44,7-82,7.27-110.69.52-13.12-3.09-19.61-7.1-19.7-11.22l-.38-20c.08,4.12,6.57,8.13,19.69,11.22,28.7,6.75,78.25,6.51,110.69-.53C326.15,207.6,335.1,202.55,335,197.66Z"/></clipPath><clipPath id="clip-path-5" transform="translate(-79.52 -6.92)"><path class="cls-2" d="M240.89,52.15c9.8-2.13,24.75-2.2,33.42-.16s7.75,5.41-2.05,7.54-24.74,2.2-33.4.16S231.1,54.28,240.89,52.15Z"/></clipPath><clipPath id="clip-path-6" transform="translate(-79.52 -6.92)"><path class="cls-2" d="M280.25,55.38l.39,142.83c0,1.47-2.67,3-8,4.15-9.79,2.13-24.75,2.2-33.4.16-4-.93-5.93-2.14-5.95-3.39L232.91,56.3c0,1.25,2,2.46,6,3.39,8.66,2,23.61,2,33.4-.16C277.58,58.38,280.28,56.85,280.25,55.38Z"/></clipPath><clipPath id="clip-path-7" transform="translate(-79.52 -6.92)"><path class="cls-2" d="M241.28,194c9.8-2.12,24.75-2.2,33.42-.16s7.75,5.42-2.05,7.54-24.75,2.2-33.4.16S231.49,196.1,241.28,194Z"/></clipPath></defs><title>the_weavers</title><g class="cls-5"><path d="M249.09,269.78l180.69-46.57,1.5,235.05-180.7,46.57Z" transform="translate(-79.52 -6.92)"/><g class="cls-6"><path class="cls-1" d="M250.33,505.16v-.33l-1.49-235.25.19-.05,181-46.65v.32l1.49,235.26Zm-1-235.18,1.49,234.52L431,458.06l-1.49-234.52Z" transform="translate(-79.52 -6.92)"/></g><path class="cls-3" d="M249.09,269.78l180.69-46.57,1.5,235.05-180.7,46.57Z" transform="translate(-79.52 -6.92)"/></g><path class="cls-7" d="M281.68,373.65l-13.36,3.46c-5.17-33.78-9.82-67.65-13.69-101.6L268.15,272q3.35,30.66,7.45,61.24,2.64-32.22,4.93-64.47l8.77-2.29q4.17,30.48,8.92,60.89,1.27-31.95,2.6-63.89l11.59-3q-2.62,53.26-5,106.54l-11.46,3q-4.95-31.06-9.6-62.19C284.86,329.74,283.37,351.7,281.68,373.65Z" transform="translate(-79.52 -6.92)"/><path class="cls-7" d="M315.15,259.74l27-7c.24,8.15.37,12.19.63,20.23l-15.34,4c.32,8.14.49,12.18.83,20.23l14.45-3.73c.28,7.8.43,11.68.73,19.42l-14.18,3.67c.45,10,.68,14.91,1.14,24.8l15.13-3.91c.31,7.8.47,11.69.78,19.47l-26.41,6.85Q317.32,311.75,315.15,259.74Z" transform="translate(-79.52 -6.92)"/><path class="cls-7" d="M360.19,353.32l-11.27,2.91q-1.68-43.69-3.14-87.41c3.39-7.63,5.12-11.47,8.66-19.22l26-6.66q.59,52.38,1.64,104.74L370,350.78c-.35-13.54-.52-20.3-.86-33.92l-10,2.59C359.54,333,359.76,339.8,360.19,353.32Zm8.51-56.23c-.28-12.15-.41-18.25-.64-30.6l-10.34,2.65c.31,12.33.47,18.43.82,30.56Z" transform="translate(-79.52 -6.92)"/><path class="cls-7" d="M408.65,235.75l15.66-4q-4.8,53.7-9.14,107.46c-9.53,2.42-13.92,3.54-22.27,5.68q-5.1-51.3-9.83-102.64l14.16-3.61q2.83,39.78,6.17,79.52Q405.83,276.95,408.65,235.75Z" transform="translate(-79.52 -6.92)"/><path class="cls-7" d="M255.52,392.13c14.85-3.83,21.29-5.5,33.52-8.67.39,7.79.58,11.69,1,19.5l-18.51,4.79c.34,7.94.51,11.91.84,19.89l17.76-4.59c.37,7.71.56,11.57.91,19.34L273.33,447c.4,10,.59,15.07.95,25.23l19.17-4.95c.33,8,.5,12,.81,20.11-12.53,3.24-19.33,5-35.77,9.21Q257.26,444.33,255.52,392.13Z" transform="translate(-79.52 -6.92)"/><path class="cls-7" d="M324.94,479.37c-3.2-14.78-4.86-22-8.29-36.42l-3.12.81c.64,15.11,1,22.72,1.51,38.19l-12.12,3.15q-1.83-44.78-4.08-89.53c3.39-6.75,5-10.1,8.32-16.81l24.63-6.39q1.23,32.88,2.32,65.75l-6.26,1.63c3.48,14.48,5.17,21.79,8.44,36.67Zm-3.17-57.45c-.44-10.81-.67-16.18-1.13-26.9l-9.21,2.38c.51,10.72.76,16.09,1.24,26.88Z" transform="translate(-79.52 -6.92)"/><path class="cls-7" d="M375.84,466.19c-14.63,3.75-20.68,5.32-32.73,8.46-.28-13.36-.44-19.95-.79-33l12-3.11c.09,5.13.14,7.7.23,12.86l7.75-2c-.08-6.76-.13-10.11-.23-16.8-8.36-8.45-12.29-12.7-20.2-21.14-.49-16.62-.76-24.85-1.28-41.33,12.59-3.25,19-4.9,33.75-8.67.17,12.29.26,18.43.41,30.78l-12.44,3.19-.2-11-8.5,2.19c.13,5.4.19,8.1.32,13.52,8.26,8.31,12.47,12.46,21.58,20.65C375.69,438.69,375.77,447.74,375.84,466.19Z" transform="translate(-79.52 -6.92)"/><g class="cls-5"><g class="cls-8"><path class="cls-4" d="M249.08,270l-.07,0L79.77,219.77l.89-.23L261.42,173l.07,0,169.25,50.25-.89.23Z" transform="translate(-79.52 -6.92)"/></g><polygon class="cls-3" points="169.57 262.86 1.21 212.87 181.9 166.3 350.27 216.28 169.57 262.86"/></g><g class="cls-5"><polygon class="cls-7" points="171.06 497.91 2.7 447.92 1.21 212.87 169.57 262.86 171.06 497.91"/><polygon class="cls-3" points="171.06 497.91 2.7 447.92 1.21 212.87 169.57 262.86 171.06 497.91"/></g><g class="cls-5"><path class="cls-7" d="M204.61,187c32.45-7,82-7.28,110.71-.52s25.67,17.93-6.78,25-82,7.28-110.69.53S172.17,194,204.61,187Z" transform="translate(-79.52 -6.92)"/><g class="cls-9"><path class="cls-4" d="M250.13,217.11c-19.48,0-38.39-1.63-52.34-4.91-12.86-3-19.93-7.14-19.89-11.59,0-5.23,9.51-10.16,26.65-13.89l.06.25-.06-.25c32.42-7,82.14-7.27,110.83-.52,12.86,3,19.92,7.14,19.88,11.58,0,5.23-9.52,10.17-26.67,13.89C291.94,215.29,270.72,217.11,250.13,217.11Z" transform="translate(-79.52 -6.92)"/><path class="cls-7" d="M315.27,186.69c12.59,3,19.52,6.9,19.47,11.08,0,4.91-9.6,9.79-26.25,13.41-32.36,7-82,7.25-110.57.51-12.61-3-19.54-6.9-19.52-11.08,0-4.89,9.63-9.77,26.26-13.39C237,180.2,286.64,180,315.27,186.69Z" transform="translate(-79.52 -6.92)"/><path class="cls-3" d="M204.66,187.22c-16.63,3.62-26.21,8.5-26.26,13.39,0,4.18,6.91,8.11,19.52,11.08,28.61,6.74,78.21,6.52,110.57-.51,16.65-3.62,26.21-8.5,26.25-13.41.05-4.18-6.88-8.11-19.47-11.08C286.64,180,237,180.2,204.66,187.22Z" transform="translate(-79.52 -6.92)"/></g><path class="cls-3" d="M204.61,187c32.45-7,82-7.28,110.71-.52s25.67,17.93-6.78,25-82,7.28-110.69.53S172.17,194,204.61,187Z" transform="translate(-79.52 -6.92)"/></g><g class="cls-5"><g class="cls-10"><path d="M316,206.19c1.94.47,3.75.95,5.42,1.46,8.6-3,13.34-6.43,13.37-9.88,0-4.14-6.77-8-19.17-11Z" transform="translate(-79.52 -6.92)"/><path d="M250.52,237.06c-19.48,0-38.39-1.63-52.34-4.91-12.93-3-19.8-7-19.89-11.46l-.39-20h.51c.08,4.14,7,8,19.5,11,28.62,6.73,78.22,6.5,110.57-.53,16.79-3.64,26.36-8.56,26.27-13.5h.51l.39,20c.1,5.28-9.37,10.26-26.67,14C292.33,235.24,271.11,237.06,250.52,237.06Z" transform="translate(-79.52 -6.92)"/></g></g><g class="cls-5"><g class="cls-11"><path d="M254.64,61.42a73.68,73.68,0,0,1-15.84-1.48c-4-.95-6.16-2.22-6.15-3.67,0-1.68,2.92-3.23,8.18-4.37h0c9.82-2.13,24.86-2.2,33.54-.16,4,.95,6.15,2.22,6.14,3.67,0,1.68-2.93,3.23-8.2,4.37A87.86,87.86,0,0,1,254.64,61.42Zm-13.7-9c-4.86,1.06-7.76,2.5-7.78,3.87,0,1.15,2.09,2.31,5.76,3.17,8.61,2,23.55,2,33.28-.16,4.87-1.06,7.78-2.5,7.8-3.87,0-1.15-2.09-2.31-5.74-3.17-8.62-2-23.57-2-33.32.16Z" transform="translate(-79.52 -6.92)"/></g></g><g class="cls-5"><g class="cls-12"><path d="M255,204.25a73.68,73.68,0,0,1-15.84-1.48c-4-.94-6.12-2.2-6.15-3.63L232.65,56.3h.51c0,1.14,2.12,2.29,5.76,3.14,8.61,2,23.55,2,33.28-.16,4.87-1.05,7.77-2.5,7.8-3.86v0h.51v.05l.39,142.79c0,1.68-2.88,3.25-8.2,4.4A87.86,87.86,0,0,1,255,204.25Z" transform="translate(-79.52 -6.92)"/></g></g><g class="cls-5"><g class="cls-13"><path d="M255,203.25a73.59,73.59,0,0,1-15.83-1.49c-4-.95-6.16-2.22-6.15-3.67,0-1.67,2.92-3.22,8.18-4.37h0c9.81-2.12,24.85-2.2,33.54-.15,4,.94,6.15,2.21,6.14,3.66,0,1.68-2.93,3.23-8.2,4.37A87.14,87.14,0,0,1,255,203.25Zm-13.69-9c-4.86,1.06-7.77,2.51-7.78,3.87,0,1.15,2.09,2.31,5.75,3.17,8.62,2,23.56,2,33.29-.16,4.87-1,7.78-2.5,7.79-3.87,0-1.15-2.08-2.3-5.74-3.16-8.62-2-23.56-2-33.31.15Z" transform="translate(-79.52 -6.92)"/></g></g><path class="cls-14" d="M302.37,32.56a22.72,22.72,0,0,0-.57-4c-.29-1.09-.74-2.52-1.1-3.61-.17-.43-.41-.92-.62-1.37l-.22-.45a15.16,15.16,0,0,0-1-1.78c-.59-.9-1.47-2.11-2.19-3a26.27,26.27,0,0,0-2.82-2.85,27.88,27.88,0,0,0-7.7-4.67,50.45,50.45,0,0,0-14.67-3.19c-3.09-.29-6-.35-6-.35-3.46-.08-3.44-.08-8.36,0-.67,0-16.83.47-28,5a31.69,31.69,0,0,0-7.64,4.26A26.7,26.7,0,0,0,216.85,21a24.09,24.09,0,0,0-5.3,14.36A23.62,23.62,0,0,0,216,49.93a22.65,22.65,0,0,0,2.56,3,22.41,22.41,0,0,0,3.2,2.76,17.41,17.41,0,0,0,2.52,1.62c.65.37,1.43.76,2.15,1.11.45.22.92.45,1.39.63,5.2,2.07,10.44,3,18.68,3.48.69,0,2.54.13,5.18.13a128.91,128.91,0,0,0,18.12-1.27c13-1.93,18.47-5.27,20.52-6.54a26.88,26.88,0,0,0,6.62-5.77,25.12,25.12,0,0,0,3.93-6.74A24.29,24.29,0,0,0,302.37,32.56Zm-37.17-16c-11.26,1.65-24.63,1.29-29.79-.84h0c-1.17-.48-1.83-1-1.89-1.56-.18-1.39,3.77-3.5,12.93-4.85C257.69,7.6,271,8,276.22,10.11c1.27.52,1.93,1.09,1.91,1.68C278.09,13.21,274.07,15.21,265.2,16.53Z" transform="translate(-79.52 -6.92)"/><path class="cls-15" d="M278.13,11.79c0,1.42-4.06,3.42-12.93,4.74-11.26,1.65-24.63,1.29-29.79-.84h0c-1.17-.48-1.83-1-1.89-1.56-.18-1.39,3.77-3.5,12.93-4.85C257.69,7.6,271,8,276.22,10.11,277.49,10.63,278.15,11.2,278.13,11.79Z" transform="translate(-79.52 -6.92)"/><path d="M115.25,388.61c0,9.25,0,13.83,0,22.8,43.41,12.86,86.68,26.18,130.1,39,.07,10,.1,15,.13,24.49-43.5-12.79-86.83-26.18-130.3-39.06,0,8.81-.07,13.1-.13,21.31-12.47-3.65-18.27-5.32-27.64-7.91,0-22.9-.13-45.8-.24-68.71C96.9,383.26,102.77,385,115.25,388.61Z" transform="translate(-79.52 -6.92)"/><path d="M153.63,363.42c0-9-.07-13.53-.11-22.52-22.22-6.61-44.44-13.26-66.75-19.56-.07-10.48-.1-15.7-.16-26,52.75,15.19,105.25,31.19,157.81,47,.08,10.28.13,15.5.22,26Q215.86,359.73,187.1,351c.11,9,.17,13.54.28,22.57q28.73,8.69,57.46,17.31c.09,10.51.14,15.77.23,26.17-52.67-15.66-105.17-31.88-158-47-.06-10.39-.09-15.65-.16-26.16C109.22,350.15,131.42,356.8,153.63,363.42Z" transform="translate(-79.52 -6.92)"/><path d="M86.55,284.5c-.12-23.49-.17-34.93-.17-55.42,10.59,3,16.59,4.76,29.09,8.43-.09,11.7-.12,17.92-.16,30.76C128,272,134.82,274,148.42,278.06c0-12.21,0-18.14,0-29.34,13.08,3.9,19.77,5.9,32.58,9.75,0,11.11.08,17,.17,29.1,16.61,5,24.77,7.46,38.79,11.7-.16-13.09-.24-19.43-.34-31.35l24.43,7.41c0,20.73.07,32.33.25,56.16C191.79,315.66,139.29,299.69,86.55,284.5Z" transform="translate(-79.52 -6.92)"/></svg>